<?xml version="1.0" encoding="utf-8"?>
<!-- Generator: Adobe Illustrator 25.4.1, SVG Export Plug-In . SVG Version: 6.00 Build 0)  -->
<svg version="1.1" id="Layer_1" xmlns="http://www.w3.org/2000/svg" xmlns:xlink="http://www.w3.org/1999/xlink" x="0px" y="0px"
	 viewBox="0 0 1000 1000" style="enable-background:new 0 0 1000 1000;" xml:space="preserve">
<style type="text/css">
	.st0{fill:#FFFFFF;}
	.st1{fill:none;stroke:#FFFFFF;stroke-width:5.1725;stroke-miterlimit:10;}
	.st2{fill:#41E6AF;}
	.st3{fill:#00EA9C;}
	.st4{fill:#00C986;}
	.st5{fill:#77F4CA;}
	.st6{fill:#00CC88;}
	.st7{fill:#00B77A;}
	.st8{fill:#179D70;}
	.st9{fill:#00AF75;}
	.st10{fill:#42F0B6;}
	.st11{fill:#009B67;}
	.st12{fill:#1E8563;}
	.st13{fill:#1E8965;}
	.st14{fill:#14BD85;}
	.st15{fill:#1DA276;}
	.st16{fill:#1E785A;}
	.st17{fill:#0FD694;}
	.st18{fill:#1CA477;}
	.st19{fill:#3FDAA6;}
	.st20{fill:#80F0CB;}
	.st21{fill:#00FFAA;}
	.st22{fill:#01E498;}
	.st23{fill:#0FCE8E;}
	.st24{fill:#00FEA9;}
	.st25{fill:#12D292;}
	.st26{fill:#11BB82;}
	.st27{fill:#02E69A;}
	.st28{fill:#00F5A3;}
	.st29{fill:#009865;}
	.st30{fill:#197758;}
	.st31{fill:#231F20;}
	.st32{fill:#3BAD87;}
	.st33{fill:#306F5A;}
	.st34{fill:#0D5E43;}
	.st35{fill:#159067;}
</style>
<g>
	<g>
		<path class="st0" d="M503.8,809c1.6,14.4,15.7,23.9,34.9,23.9c18.4,0,31.6-9.5,31.6-22.5c0-11.3-8-18.1-26.9-22.7l-18.9-4.5
			c-26.8-6.5-39.2-19-39.2-39.3c0-25.2,21.9-42.4,53-42.4c30.8,0,51.9,17.3,52.6,42.4h-22c-1.3-14.5-13.3-23.3-30.9-23.3
			s-29.6,8.9-29.6,21.8c0,10.3,7.7,16.4,26.5,21l16.1,3.9c29.9,7.1,42.3,19.1,42.3,40.4c0,27.3-21.7,44.4-56.3,44.4
			c-32.3,0-54.2-16.7-55.6-43H503.8z"/>
		<path class="st0" d="M601,796.5c0-34.1,20.1-55.1,50.4-55.1s50.4,20.9,50.4,55.1c0,34.2-20,55.2-50.4,55.2S601,830.7,601,796.5z
			 M679.6,796.5c0-23.5-11.1-37.1-28.2-37.1s-28.2,13.5-28.2,37.1c0,23.6,11.1,37.2,28.2,37.2C668.6,833.6,679.6,820.1,679.6,796.5z
			"/>
		<path class="st0" d="M784,779.9c-2.2-11.3-10.7-20.3-25-20.3c-16.9,0-28,14-28,36.9c0,23.3,11.2,36.9,28.2,36.9
			c13.4,0,22.2-7.4,24.8-19.7h21c-2.3,22.6-20.4,38-46,38c-30.4,0-50.2-20.8-50.2-55.2c0-33.7,19.8-55.1,50-55.1
			c27.4,0,44,17.6,46,38.5H784z"/>
		<path class="st0" d="M814.3,715.3c0-7,5.7-12.5,12.6-12.5c7.1,0,12.7,5.6,12.7,12.5c0,6.9-5.7,12.4-12.7,12.4
			C819.9,727.8,814.3,722.2,814.3,715.3z M816,743.3h21.8v106.3H816V743.3z"/>
		<path class="st0" d="M850.7,819.4c0-18.6,14.2-30,39.5-31.4l29.1-1.7v-8.2c0-11.8-8-18.9-21.3-18.9c-12.6,0-20.5,6.1-22.4,15.6
			H855c1.2-19.2,17.6-33.3,43.8-33.3c25.8,0,42.2,13.6,42.2,35v73.2h-20.9v-17.5h-0.5c-6.2,11.8-19.6,19.3-33.5,19.3
			C865.3,851.4,850.7,838.5,850.7,819.4z M919.3,809.8v-8.4l-26.2,1.6c-13,0.9-20.4,6.7-20.4,15.8c0,9.3,7.7,15.4,19.4,15.4
			C907.4,834.1,919.3,823.6,919.3,809.8z"/>
		<path class="st0" d="M957.8,703.8h21.8v145.8h-21.8V703.8z"/>
	</g>
	<g>
		<polyline class="st1" points="416.4,801.6 425.4,835.8 390.8,889.3 		"/>
		<polyline class="st1" points="450.8,876.4 425.4,835.8 458,810.2 		"/>
		<circle class="st0" cx="425.4" cy="835.8" r="17.6"/>
		<circle class="st0" cx="458" cy="810.2" r="8.8"/>
		<circle class="st0" cx="450.8" cy="875.1" r="14"/>
		<circle class="st0" cx="390.8" cy="889.3" r="20.4"/>
		<circle class="st0" cx="416.4" cy="801.6" r="8.3"/>
	</g>
	<g>
		<path id="Layer_00000006677114184574669540000010217959061082919049_" class="st2" d="M170.7,776.8c0-7,0-13.2,0.3-17.8
			s0.5-8.5,1-11.6c2.1-12.9,11.9-20.4,24.6-20.4c8.3,0,15.5,3.1,20.4,10.1c2.1,3.1,3.6,6.5,4.7,10.6c0.3,0.3,0.3,0.5,1,0.5h27.9
			c0.3,0,0.5-0.3,0.5-0.8c-3.1-17.3-12.4-33.4-29-40.9c-7.8-3.6-16.3-5.4-25.9-5.4c-16,0-29.2,5.4-40.1,16.3
			c-6.2,6.2-10.3,13.7-12.2,22.2c-1.6,8.3-2.6,20.7-2.6,37s1,28.7,2.6,37c1.6,8.8,5.9,16.3,12.2,22.2c10.9,10.9,24.3,16.3,40.1,16.3
			c9.6,0,18.1-1.8,25.9-5.4c16.6-7.8,25.9-23.5,29-40.9c0-0.3,0-0.8-0.5-0.8h-28.2c-0.5,0-0.8,0.3-1,0.5c-1,3.9-2.6,7.5-4.7,10.6
			c-4.7,7-12.2,10.1-20.4,10.1c-12.4,0-22.2-7.8-24.6-20.4c-0.5-2.8-1-7-1-11.6C170.7,790,170.7,783.8,170.7,776.8z"/>
		<path id="Layer_00000051377766197835372230000010792803153282682754_" class="st2" d="M299.7,776.8c0-7,0-13.2,0.3-17.8
			s0.5-8.5,1-11.6c2.1-12.9,11.9-20.4,24.6-20.4c8.3,0,15.5,3.1,20.4,10.1c2.1,3.1,3.6,6.5,4.7,10.6c0.3,0.3,0.3,0.5,1,0.5h28.2
			c0.3,0,0.5-0.3,0.5-0.8c-3.1-17.3-12.4-33.4-29-40.9c-7.8-3.6-16.3-5.4-25.9-5.4c-16,0-29.2,5.4-40.1,16.3
			c-6.2,6.2-10.3,13.7-12.2,22.2c-1.6,8.3-2.6,20.7-2.6,37s1,28.7,2.6,37c1.6,8.8,5.9,16.3,12.2,22.2c10.9,10.9,24.3,16.3,40.1,16.3
			c9.6,0,18.1-1.8,25.9-5.4c16.6-7.8,25.9-23.5,29-40.9c0-0.3,0-0.8-0.5-0.8h-28.2c-0.5,0-0.8,0.3-1,0.5c-1,3.9-2.6,7.5-4.7,10.6
			c-4.7,7-12.2,10.1-20.4,10.1c-12.4,0-22.2-7.8-24.6-20.4c-0.5-2.8-1-7-1-11.6C300,790,299.7,783.8,299.7,776.8z"/>
		<path id="Layer_00000138545521060631823980000011599928127480395965_" class="st2" d="M43.2,704.9c0-1.6-1-2.6-2.6-2.6H16.5
			c-1.6,0-2.6,1-2.6,2.6v143.8c0,1.6,1,2.6,2.6,2.6h24.1c1.6,0,2.6-1,2.6-2.6v-42.2l19.1-23l39.6,67c0.3,0.5,0.8,0.8,1.6,0.8h29
			c1.3,0,1.6-1,1-2.1l-51.7-87.7l47.3-56.9c1-1,0.5-2.1-1-2.1H96.2c-0.5,0-0.8,0.3-1,0.5l-52.2,62.6L43.2,704.9L43.2,704.9z"/>
	</g>
</g>
<g>
	<polygon class="st3" points="815.6,340.2 753.6,176.7 704.8,269.7 	"/>
	<polygon class="st4" points="665.1,380.8 704.8,269.7 815.6,340.2 	"/>
	<polygon class="st5" points="721.5,116.3 753.6,176.7 704.8,269.7 	"/>
	<polygon class="st6" points="621.7,56.8 704.8,269.7 721.5,116.3 	"/>
	<polygon class="st7" points="583.6,206.3 621.7,56.8 704.8,269.7 	"/>
	<polygon class="st8" points="578.2,341.9 665.1,380.8 704.8,269.7 	"/>
	<polygon class="st9" points="583.6,206.3 704.8,269.7 578.2,341.9 	"/>
	<polygon class="st10" points="526.1,403.9 555.1,368.1 603.3,398.6 	"/>
	<polygon class="st3" points="499.4,375.7 555.1,368.1 526.1,403.9 	"/>
	<polygon class="st7" points="559.6,321.9 499.4,375.7 555.1,368.1 	"/>
	<polygon class="st11" points="583.6,206.3 559.6,321.9 499.4,375.7 	"/>
	<polygon class="st12" points="511.1,286.4 521.4,331.4 583.6,206.3 	"/>
	<polygon class="st13" points="520.4,115.2 583.6,206.3 602.4,132.6 	"/>
	<polygon class="st14" points="510,59.9 520.4,115.2 602.4,132.6 	"/>
	<polygon class="st15" points="511.1,286.4 520.4,115.2 583.6,206.3 	"/>
	<polygon class="st16" points="360.3,320.5 521.4,331.4 511.1,286.4 	"/>
	<polygon class="st17" points="360.3,320.5 520.4,115.2 511.1,286.4 	"/>
	<polygon class="st18" points="301.4,214.2 360.3,320.5 520.4,115.2 	"/>
	<polygon class="st19" points="301.4,103.9 301.4,214.2 520.4,115.2 	"/>
	<polygon class="st20" points="301.4,103.9 510,59.9 520.4,115.2 	"/>
	<path class="st21" d="M326.5,404.4c0.3,0,75.9-5,75.9-5l-47.3-30.7L326.5,404.4z"/>
	<polygon class="st22" points="299.3,376.5 326.5,404.4 355.1,368.7 	"/>
	<polygon class="st23" points="299.3,376.5 360.3,320.5 355.1,368.7 	"/>
	<polygon class="st24" points="301.4,214.2 299.3,376.5 360.3,320.5 	"/>
	<polygon class="st25" points="217.6,203.5 301.4,103.9 301.4,214.2 	"/>
	<polygon class="st26" points="184.4,345 301.4,214.2 217.6,203.5 	"/>
	<polygon class="st27" points="299.3,376.5 184.4,345 301.4,214.2 	"/>
	<polygon class="st28" points="281.6,488.2 299.3,376.5 184.4,345 	"/>
	<polygon class="st23" points="276,559 281.6,488.2 184.4,345 	"/>
	<polygon class="st29" points="401.7,602.4 281.6,488.2 276,559 	"/>
	<polygon class="st30" points="526.1,522.9 401.7,602.4 351.8,554.9 	"/>
	<path class="st31" d="M478.7,390.1"/>
	<polygon class="st32" points="395.3,489.1 440.9,467.1 475.3,500.9 404.8,540.7 413.9,517.3 443.5,505.7 428.8,489.4 	"/>
	<polygon class="st33" points="373.8,484.6 339.4,490.8 404.8,540.7 413.9,517.3 	"/>
	<polygon class="st29" points="373.8,426.8 373.8,484.6 339.4,490.8 	"/>
	<polygon class="st34" points="478.7,390.1 373.8,484.6 373.8,426.8 	"/>
	<polygon class="st35" points="526.1,522.9 478.7,390.1 423.4,439.9 486.3,490.8 	"/>
	<polygon class="st34" points="468.4,533.5 486.3,490.8 526.1,522.9 	"/>
</g>
<g>
</g>
<g>
</g>
<g>
</g>
<g>
</g>
<g>
</g>
<g>
</g>
</svg>
