<svg xmlns="http://www.w3.org/2000/svg" viewBox="0 0 110.19 115.7"><defs><style>.a,.b,.c,.d,.e,.f,.g,.h,.i,.j,.k,.l,.m,.n,.p,.q{fill:#41e6ae;}.a{opacity:0.2;}.b{opacity:0.7;}.c{opacity:0.5;}.d{opacity:0.25;}.f{opacity:0.8;}.g{opacity:0.15;}.h{opacity:0.6;}.i{opacity:0.9;}.j{opacity:0.4;}.k{opacity:0.3;}.l{opacity:0.85;}.m{opacity:0.1;}.n{opacity:0.95;}.o{fill:#f1f2f2;}.p{opacity:0.75;}.q{opacity:0.35;}</style></defs><rect class="a" x="26.78" width="8.93" height="9.64"/><rect class="b" x="35.7" width="8.93" height="9.64"/><rect class="c" x="44.63" width="8.93" height="9.64"/><rect class="d" x="17.85" y="9.64" width="8.93" height="9.64"/><rect class="e" x="35.7" y="9.64" width="8.93" height="9.64"/><rect class="f" x="44.63" y="9.64" width="8.93" height="9.64"/><rect class="e" x="53.56" y="9.64" width="8.93" height="9.64"/><rect class="g" x="8.93" y="19.28" width="8.93" height="9.64"/><rect class="h" x="17.85" y="19.28" width="8.93" height="9.64"/><rect class="a" x="26.78" y="19.28" width="8.93" height="9.64"/><rect class="b" x="35.7" y="19.28" width="8.93" height="9.64"/><rect class="e" x="44.63" y="19.28" width="8.93" height="9.64"/><rect class="i" x="53.56" y="19.28" width="8.93" height="9.64"/><rect class="e" x="62.48" y="19.28" width="8.93" height="9.64"/><rect class="d" y="28.92" width="8.93" height="9.64"/><rect class="g" x="8.93" y="28.92" width="8.93" height="9.64"/><rect class="j" x="17.85" y="28.92" width="8.93" height="9.64"/><rect class="h" x="26.78" y="28.92" width="8.93" height="9.64"/><rect class="i" x="35.7" y="28.92" width="8.93" height="9.64"/><rect class="j" x="44.63" y="28.92" width="8.93" height="9.64"/><rect class="e" x="53.56" y="28.92" width="8.93" height="9.64"/><rect class="k" x="8.93" y="38.57" width="8.93" height="9.64"/><rect class="f" x="17.85" y="38.57" width="8.93" height="9.64"/><rect class="a" x="26.78" y="38.57" width="8.93" height="9.64"/><rect class="c" x="35.7" y="38.57" width="8.93" height="9.64"/><rect class="l" x="44.63" y="38.57" width="8.93" height="9.64"/><rect class="c" x="62.48" y="38.57" width="8.93" height="9.64"/><rect class="a" y="48.21" width="8.93" height="9.64"/><rect class="m" x="17.85" y="48.21" width="8.93" height="9.64"/><rect class="c" x="26.78" y="48.21" width="8.93" height="9.64"/><rect class="n" x="35.7" y="48.21" width="8.93" height="9.64"/><rect class="f" x="44.63" y="48.21" width="8.93" height="9.64"/><rect class="o" x="53.56" y="38.57" width="8.93" height="9.64"/><path class="o" d="M106.61,34.36c-5.76-18.52-25-28.53-44.2-28.31v9.64h8.93v9.64h8.93V35H71.34v9.64h8.93v9.64H71.34v9.64h8.93v9.65H71.34v9.64H62.41v9.64h8.93v9.64h8.93v9.64H62.41v9.64H98.18l-7.36-21.57,17.11,1.54.89-23.33L119,75.08S113.39,56.11,106.61,34.36Z" transform="translate(-8.86 -6.05)"/><rect class="e" x="53.56" y="48.21" width="8.93" height="9.64"/><rect class="h" x="17.85" y="57.85" width="8.93" height="9.64"/><rect class="k" x="26.78" y="57.85" width="8.93" height="9.64"/><rect class="b" x="35.7" y="57.85" width="8.93" height="9.64"/><rect class="e" x="44.63" y="57.85" width="8.93" height="9.64"/><rect class="j" x="53.56" y="57.85" width="8.93" height="9.64"/><rect class="e" x="62.48" y="57.85" width="8.93" height="9.64"/><rect class="a" x="8.93" y="67.49" width="8.93" height="9.64"/><rect class="p" x="17.85" y="67.49" width="8.93" height="9.64"/><rect class="h" x="26.78" y="67.49" width="8.93" height="9.64"/><rect class="a" x="35.7" y="67.49" width="8.93" height="9.64"/><rect class="h" x="44.63" y="67.49" width="8.93" height="9.64"/><rect class="e" x="53.56" y="67.49" width="8.93" height="9.64"/><rect class="k" x="17.85" y="77.13" width="8.93" height="9.64"/><rect class="c" x="26.78" y="77.13" width="8.93" height="9.64"/><rect class="b" x="35.7" y="77.13" width="8.93" height="9.64"/><rect class="e" x="44.63" y="77.13" width="8.93" height="9.64"/><rect class="c" x="17.85" y="86.77" width="8.93" height="9.64"/><rect class="m" x="35.7" y="86.77" width="8.93" height="9.64"/><rect class="e" x="44.63" y="86.77" width="8.93" height="9.64"/><rect class="i" x="53.56" y="86.77" width="8.93" height="9.64"/><rect class="e" x="17.85" y="96.41" width="8.93" height="9.64"/><rect class="h" x="26.78" y="96.41" width="8.93" height="9.64"/><rect class="p" x="35.7" y="96.41" width="8.93" height="9.64"/><rect class="h" x="44.63" y="96.41" width="8.93" height="9.64"/><rect class="e" x="53.56" y="96.41" width="8.93" height="9.64"/><rect class="f" x="62.48" y="96.41" width="8.93" height="9.64"/><rect class="d" x="8.93" y="106.06" width="8.93" height="9.64"/><rect class="p" x="17.85" y="106.06" width="8.93" height="9.64"/><rect class="q" x="26.78" y="106.06" width="8.93" height="9.64"/><rect class="e" x="35.7" y="106.06" width="8.93" height="9.64"/><rect class="b" x="44.63" y="106.06" width="8.93" height="9.64"/></svg>