<svg xmlns="http://www.w3.org/2000/svg" viewBox="0 0 373.38 80.7"><defs><style>.a{fill:#fff;}.b{fill:none;stroke:#fff;stroke-miterlimit:10;stroke-width:2px;}.c{fill:#41e6af;}</style></defs><path class="a" d="M201.46,61.05c.62,5.58,6,9.25,13.48,9.25,7.1,0,12.22-3.67,12.22-8.71,0-4.37-3.08-7-10.39-8.79l-7.3-1.75c-10.35-2.5-15.16-7.35-15.16-15.2,0-9.73,8.48-16.4,20.51-16.4s20.08,6.67,20.35,16.4h-8.52c-.5-5.62-5.15-9-12-9s-11.44,3.44-11.44,8.44c0,4,3,6.32,10.23,8.12l6.21,1.52c11.56,2.74,16.37,7.39,16.37,15.63,0,10.55-8.4,17.15-21.76,17.15-12.5,0-20.94-6.45-21.48-16.64Z" transform="translate(-12.06 -19.3)"/><path class="a" d="M239.07,56.2c0-13.2,7.77-21.29,19.49-21.29S278.05,43,278.05,56.2s-7.73,21.33-19.49,21.33S239.07,69.45,239.07,56.2Zm30.39,0c0-9.1-4.3-14.33-10.9-14.33s-10.9,5.23-10.9,14.33,4.3,14.38,10.9,14.38S269.46,65.34,269.46,56.2Z" transform="translate(-12.06 -19.3)"/><path class="a" d="M309.8,49.8A9.32,9.32,0,0,0,300.15,42c-6.52,0-10.82,5.43-10.82,14.25,0,9,4.34,14.26,10.9,14.26,5.2,0,8.6-2.85,9.57-7.62h8.13c-.9,8.75-7.89,14.69-17.78,14.69-11.75,0-19.41-8-19.41-21.33,0-13,7.66-21.29,19.34-21.29,10.58,0,17,6.8,17.77,14.89Z" transform="translate(-12.06 -19.3)"/><path class="a" d="M321.51,24.84a4.91,4.91,0,1,1,4.89,4.8A4.86,4.86,0,0,1,321.51,24.84Zm.67,10.82h8.44V76.75h-8.44Z" transform="translate(-12.06 -19.3)"/><path class="a" d="M335.61,65.07c0-7.19,5.51-11.6,15.27-12.15l11.25-.66V49.09c0-4.57-3.09-7.3-8.24-7.3-4.88,0-7.93,2.34-8.67,6h-8c.47-7.42,6.79-12.89,16.95-12.89,10,0,16.33,5.28,16.33,13.52V76.75h-8.09V70h-.19a14.68,14.68,0,0,1-13,7.46C341.23,77.45,335.61,72.45,335.61,65.07Zm26.52-3.71V58.12L352,58.74c-5,.35-7.89,2.58-7.89,6.1s3,5.93,7.5,5.93C357.52,70.77,362.13,66.71,362.13,61.36Z" transform="translate(-12.06 -19.3)"/><path class="a" d="M377,20.38h8.43V76.75H377Z" transform="translate(-12.06 -19.3)"/><polyline class="b" points="155.6 38.9 159.1 52.1 145.7 72.8"/><polyline class="b" points="168.9 67.8 159.1 52.1 171.7 42.2"/><circle class="a" cx="159.1" cy="52.1" r="6.8"/><circle class="a" cx="171.7" cy="42.2" r="3.4"/><circle class="a" cx="168.9" cy="67.3" r="5.4"/><circle class="a" cx="145.7" cy="72.8" r="7.9"/><circle class="a" cx="155.6" cy="38.9" r="3.2"/><path class="c" d="M72.66,48.6c0-2.7,0-5.1.1-6.9a44.15,44.15,0,0,1,.4-4.5c.8-5,4.6-7.9,9.5-7.9a9.2,9.2,0,0,1,7.9,3.9,12.76,12.76,0,0,1,1.8,4.1c.1.1.1.2.4.2h10.8c.1,0,.2-.1.2-.3-1.2-6.7-4.8-12.9-11.2-15.8a23.25,23.25,0,0,0-10-2.1,21,21,0,0,0-15.5,6.3,17,17,0,0,0-4.7,8.6,82.09,82.09,0,0,0-1,14.3,82.09,82.09,0,0,0,1,14.3,15.59,15.59,0,0,0,4.7,8.6,21.12,21.12,0,0,0,15.5,6.3,23.25,23.25,0,0,0,10-2.1c6.4-3,10-9.1,11.2-15.8,0-.1,0-.3-.2-.3H92.66a.52.52,0,0,0-.4.2,13.81,13.81,0,0,1-1.8,4.1,9.08,9.08,0,0,1-7.9,3.9,9.3,9.3,0,0,1-9.5-7.9,25.77,25.77,0,0,1-.4-4.5Z" transform="translate(-12.06 -19.3)"/><path class="c" d="M122.56,48.6c0-2.7,0-5.1.1-6.9a44.15,44.15,0,0,1,.4-4.5c.8-5,4.6-7.9,9.5-7.9a9.2,9.2,0,0,1,7.9,3.9,12.76,12.76,0,0,1,1.8,4.1c.1.1.1.2.4.2h10.9c.1,0,.2-.1.2-.3-1.2-6.7-4.8-12.9-11.2-15.8a23.25,23.25,0,0,0-10-2.1,21,21,0,0,0-15.5,6.3,17,17,0,0,0-4.7,8.6,82.09,82.09,0,0,0-1,14.3,82.09,82.09,0,0,0,1,14.3,15.59,15.59,0,0,0,4.7,8.6,21.12,21.12,0,0,0,15.5,6.3,23.25,23.25,0,0,0,10-2.1c6.4-3,10-9.1,11.2-15.8,0-.1,0-.3-.2-.3h-10.9a.52.52,0,0,0-.4.2,13.81,13.81,0,0,1-1.8,4.1,9.08,9.08,0,0,1-7.9,3.9,9.3,9.3,0,0,1-9.5-7.9,25.77,25.77,0,0,1-.4-4.5C122.66,53.7,122.56,51.3,122.56,48.6Z" transform="translate(-12.06 -19.3)"/><path class="c" d="M23.36,20.8a.94.94,0,0,0-1-1h-9.3a.94.94,0,0,0-1,1V76.4a.94.94,0,0,0,1,1h9.3a.94.94,0,0,0,1-1V60.1l7.4-8.9,15.3,25.9a.6.6,0,0,0,.6.3h11.2c.5,0,.6-.4.4-.8l-20-33.9,18.3-22c.4-.4.2-.8-.4-.8H43.86a.52.52,0,0,0-.4.2L23.26,44.3l.1-23.5Z" transform="translate(-12.06 -19.3)"/></svg>