<?xml version="1.0" encoding="utf-8"?>
<!-- Generator: Adobe Illustrator 25.4.1, SVG Export Plug-In . SVG Version: 6.00 Build 0)  -->
<svg version="1.1" id="Layer_1" xmlns="http://www.w3.org/2000/svg" xmlns:xlink="http://www.w3.org/1999/xlink" x="0px" y="0px"
	 viewBox="0 0 600 600" style="enable-background:new 0 0 600 600;" xml:space="preserve">
<style type="text/css">
	.st0{fill:#0A1014;stroke:#231F20;stroke-width:0.7016;stroke-miterlimit:10;}
	.st1{fill:#00EA9C;}
	.st2{fill:#00C986;}
	.st3{fill:#77F4CA;}
	.st4{fill:#00CC88;}
	.st5{fill:#00B77A;}
	.st6{fill:#179D70;}
	.st7{fill:#00AF75;}
	.st8{fill:#42F0B6;}
	.st9{fill:#009B67;}
	.st10{fill:#1E8563;}
	.st11{fill:#1E8965;}
	.st12{fill:#14BD85;}
	.st13{fill:#1DA276;}
	.st14{fill:#1E785A;}
	.st15{fill:#0FD694;}
	.st16{fill:#1CA477;}
	.st17{fill:#3FDAA6;}
	.st18{fill:#80F0CB;}
	.st19{fill:#00FFAA;}
	.st20{fill:#01E498;}
	.st21{fill:#0FCE8E;}
	.st22{fill:#00FEA9;}
	.st23{fill:#12D292;}
	.st24{fill:#11BB82;}
	.st25{fill:#02E69A;}
	.st26{fill:#00F5A3;}
	.st27{fill:#009865;}
	.st28{fill:#197758;}
	.st29{fill:#231F20;}
	.st30{fill:#3BAD87;}
	.st31{fill:#306F5A;}
	.st32{fill:#0D5E43;}
	.st33{fill:#159067;}
	.st34{fill:#FFFFFF;}
	.st35{fill:#41E6AF;}
</style>
<path class="st0" d="M468.5,456.8h-337c-33.1,0-59.9-26.8-59.9-59.9V60c0-33.1,26.8-59.9,59.9-59.9h337c33.1,0,59.9,26.8,59.9,59.9
	v337C528.4,430,501.6,456.8,468.5,456.8z"/>
<g>
	<polygon class="st1" points="488.9,234.8 451.8,136.9 422.6,192.6 	"/>
	<polygon class="st2" points="398.8,259.1 422.6,192.6 488.9,234.8 	"/>
	<polygon class="st3" points="432.6,100.8 451.8,136.9 422.6,192.6 	"/>
	<polygon class="st4" points="372.8,65.2 422.6,192.6 432.6,100.8 	"/>
	<polygon class="st5" points="350,154.6 372.8,65.2 422.6,192.6 	"/>
	<polygon class="st6" points="346.8,235.8 398.8,259.1 422.6,192.6 	"/>
	<polygon class="st7" points="350,154.6 422.6,192.6 346.8,235.8 	"/>
	<polygon class="st8" points="315.6,272.9 333,251.5 361.8,269.7 	"/>
	<polygon class="st1" points="299.6,256 333,251.5 315.6,272.9 	"/>
	<polygon class="st5" points="335.7,223.8 299.6,256 333,251.5 	"/>
	<polygon class="st9" points="350,154.6 335.7,223.8 299.6,256 	"/>
	<polygon class="st10" points="306.7,202.6 312.8,229.5 350,154.6 	"/>
	<polygon class="st11" points="312.2,100.1 350,154.6 361.3,110.5 	"/>
	<polygon class="st12" points="306,67.1 312.2,100.1 361.3,110.5 	"/>
	<polygon class="st13" points="306.7,202.6 312.2,100.1 350,154.6 	"/>
	<polygon class="st14" points="216.4,223 312.8,229.5 306.7,202.6 	"/>
	<polygon class="st15" points="216.4,223 312.2,100.1 306.7,202.6 	"/>
	<polygon class="st16" points="181.1,159.4 216.4,223 312.2,100.1 	"/>
	<polygon class="st17" points="181.1,93.4 181.1,159.4 312.2,100.1 	"/>
	<polygon class="st18" points="181.1,93.4 306,67.1 312.2,100.1 	"/>
	<path class="st19" d="M196.1,273.2c0.2,0,45.4-3,45.4-3l-28.3-18.4L196.1,273.2z"/>
	<polygon class="st20" points="179.9,256.5 196.1,273.2 213.3,251.9 	"/>
	<polygon class="st21" points="179.9,256.5 216.4,223 213.3,251.9 	"/>
	<polygon class="st22" points="181.1,159.4 179.9,256.5 216.4,223 	"/>
	<polygon class="st23" points="131,152.9 181.1,93.4 181.1,159.4 	"/>
	<polygon class="st24" points="111.1,237.7 181.1,159.4 131,152.9 	"/>
	<polygon class="st25" points="179.9,256.5 111.1,237.7 181.1,159.4 	"/>
	<polygon class="st26" points="169.3,323.4 179.9,256.5 111.1,237.7 	"/>
	<polygon class="st21" points="165.9,365.7 169.3,323.4 111.1,237.7 	"/>
	<polygon class="st27" points="241.2,391.7 169.3,323.4 165.9,365.7 	"/>
	<polygon class="st28" points="315.6,344.1 241.2,391.7 211.3,363.3 	"/>
	<path class="st29" d="M287.3,264.7"/>
	<polygon class="st30" points="237.3,323.9 264.6,310.7 285.2,331 243,354.8 248.4,340.8 266.2,333.8 257.4,324.1 	"/>
	<polygon class="st31" points="224.5,321.2 203.9,324.9 243,354.8 248.4,340.8 	"/>
	<polygon class="st27" points="224.5,286.6 224.5,321.2 203.9,324.9 	"/>
	<polygon class="st32" points="287.3,264.7 224.5,321.2 224.5,286.6 	"/>
	<polygon class="st33" points="315.6,344.1 287.3,264.7 254.2,294.5 291.8,324.9 	"/>
	<polygon class="st32" points="281.1,350.5 291.8,324.9 315.6,344.1 	"/>
</g>
<g>
	<path class="st34" d="M304,541.1c0.9,8.3,9,13.7,19.9,13.7c10.5,0,18.1-5.4,18.1-12.9c0-6.5-4.6-10.4-15.4-13l-10.8-2.6
		c-15.3-3.7-22.5-10.9-22.5-22.5c0-14.4,12.5-24.3,30.4-24.3s29.7,9.9,30.1,24.3h-12.6c-0.8-8.3-7.6-13.3-17.7-13.3
		s-16.9,5.1-16.9,12.5c0,5.9,4.4,9.4,15.1,12l9.2,2.3c17.1,4,24.2,10.9,24.2,23.1c0,15.6-12.4,25.4-32.2,25.4
		c-18.5,0-31-9.5-31.8-24.6H304V541.1z"/>
	<path class="st34" d="M359.7,534c0-19.5,11.5-31.5,28.8-31.5s28.9,12,28.9,31.5s-11.5,31.5-28.9,31.5S359.7,553.6,359.7,534z
		 M404.6,534c0-13.5-6.3-21.2-16.1-21.2c-9.8,0-16.1,7.7-16.1,21.2s6.3,21.3,16.1,21.3S404.6,547.5,404.6,534L404.6,534z"/>
	<path class="st34" d="M464.3,524.4c-1.1-6.9-7.3-12-14.3-11.6c-9.7,0-16,8-16,21.1c0,13.3,6.4,21.1,16.1,21.1
		c7.7,0,12.7-4.2,14.2-11.3h12c-1.3,12.9-11.7,21.7-26.3,21.7c-17.4,0-28.7-11.8-28.7-31.5c0-19.2,11.3-31.5,28.6-31.5
		c15.7,0,25.2,10,26.3,22H464.3z"/>
	<path class="st34" d="M481.7,487.5c-0.1-4,3.1-7.3,7.1-7.4s7.3,3.1,7.4,7.1s-3.1,7.3-7.1,7.4c-0.1,0-0.1,0-0.2,0
		C484.9,494.7,481.7,491.5,481.7,487.5z M482.6,503.6h12.5v60.8h-12.5V503.6z"/>
	<path class="st34" d="M502.5,547.1c0-10.6,8.2-17.2,22.6-18l16.6-1v-4.7c0-6.8-4.6-10.8-12.2-10.8c-7.2,0-11.7,3.5-12.8,8.9h-11.8
		c0.7-11,10.1-19.1,25.2-19.1c14.8,0,24.2,7.8,24.2,20v42h-12v-10H542c-3.9,6.9-11.3,11.2-19.2,11.1
		C510.9,565.4,502.5,558,502.5,547.1z M541.8,541.6v-4.8l-15,1c-7.4,0.5-11.7,3.8-11.7,9s4.4,8.8,11.1,8.8
		C535,555.5,541.8,549.5,541.8,541.6z"/>
	<path class="st34" d="M563.8,481h12.5v83.4h-12.5V481z"/>
	<polygon class="st34" points="240.5,587.9 238.1,586.3 257.6,556.1 252.6,537.3 255.4,536.5 260.8,556.7 	"/>
	<polygon class="st34" points="272.4,580.5 257.2,556.1 276.9,540.6 278.7,543 261.2,556.7 275,578.9 	"/>
	<circle class="st34" cx="259.2" cy="556.4" r="10.1"/>
	<circle class="st34" cx="277.8" cy="541.8" r="5"/>
	<circle class="st34" cx="273.7" cy="578.9" r="8"/>
	<circle class="st34" cx="239.3" cy="587.1" r="11.7"/>
	<circle class="st34" cx="254" cy="536.9" r="4.7"/>
	<path class="st35" d="M113.4,522.7c0-4,0-7.5,0.1-10.2c0.1-2.2,0.3-4.5,0.6-6.7c1.2-7.4,6.8-11.7,14.1-11.7c4.6-0.2,9,2,11.7,5.8
		c1.2,1.8,2.1,3.9,2.7,6.1c0.1,0.1,0.1,0.3,0.6,0.3h16c0.1,0,0.3-0.1,0.3-0.4c-1.8-9.9-7.1-19.1-16.6-23.4
		c-4.6-2.1-9.7-3.2-14.8-3.1c-8.6-0.2-16.9,3.2-22.9,9.3c-3.5,3.5-5.9,7.9-7,12.7c-1.1,7-1.6,14.1-1.5,21.2
		c-0.1,7.1,0.4,14.2,1.5,21.2c0.9,4.9,3.3,9.3,7,12.7c6,6.1,14.3,9.5,22.9,9.3c5.1,0.1,10.2-1,14.8-3.1c9.5-4.4,14.8-13.5,16.6-23.4
		c0-0.1,0-0.4-0.3-0.4H143c-0.2,0-0.4,0.1-0.6,0.3c-0.6,2.2-1.5,4.2-2.7,6.1c-2.6,3.8-7.1,6-11.7,5.8c-7,0.2-13-4.8-14.1-11.7
		c-0.4-2.2-0.6-4.4-0.6-6.7L113.4,522.7z"/>
	<path class="st35" d="M187.3,522.7c0-4,0-7.5,0.1-10.2c0.1-2.2,0.3-4.5,0.6-6.7c1.2-7.4,6.8-11.7,14.1-11.7c4.6-0.2,9,2,11.7,5.8
		c1.2,1.8,2.1,3.9,2.7,6.1c0.1,0.1,0.1,0.3,0.6,0.3h16.1c0.1,0,0.3-0.1,0.3-0.4c-1.8-9.9-7.1-19.1-16.6-23.4
		c-4.6-2.1-9.7-3.2-14.8-3.1c-8.6-0.2-16.9,3.2-22.9,9.3c-3.5,3.5-5.9,7.9-7,12.7c-1.1,7-1.6,14.1-1.5,21.2
		c-0.1,7.1,0.4,14.2,1.5,21.2c0.9,4.9,3.3,9.3,7,12.7c6,6.1,14.3,9.5,22.9,9.3c5.1,0.1,10.2-1,14.8-3.1c9.5-4.4,14.8-13.5,16.6-23.4
		c0-0.1,0-0.4-0.3-0.4H217c-0.2,0-0.4,0.1-0.6,0.3c-0.6,2.2-1.5,4.2-2.7,6.1c-2.6,3.8-7.1,6-11.7,5.8c-7,0.2-13-4.8-14.1-11.7
		c-0.4-2.2-0.6-4.4-0.6-6.7C187.4,530.2,187.3,526.7,187.3,522.7z"/>
	<path class="st35" d="M40.5,481.5c0.1-0.8-0.5-1.4-1.3-1.5c-0.1,0-0.1,0-0.2,0H25.2c-0.8-0.1-1.4,0.5-1.5,1.3c0,0.1,0,0.1,0,0.2
		v82.3c-0.1,0.8,0.5,1.4,1.3,1.5c0.1,0,0.1,0,0.2,0H39c0.8,0.1,1.4-0.5,1.5-1.3c0-0.1,0-0.1,0-0.2v-24.1l11-13.2L74,564.9
		c0.2,0.3,0.5,0.5,0.9,0.4h16.6c0.7,0,0.9-0.6,0.6-1.2L62.5,514l27.1-32.6c0.6-0.6,0.3-1.2-0.6-1.2H70.8c-0.2,0-0.4,0.1-0.6,0.3
		l-29.9,35.8L40.5,481.5L40.5,481.5z"/>
</g>
</svg>
