<?xml version="1.0" encoding="utf-8"?>
<!-- Generator: Adobe Illustrator 25.4.1, SVG Export Plug-In . SVG Version: 6.00 Build 0)  -->
<svg version="1.1" id="Layer_1" xmlns="http://www.w3.org/2000/svg" xmlns:xlink="http://www.w3.org/1999/xlink" x="0px" y="0px"
	 viewBox="0 0 373.4 80.7" style="enable-background:new 0 0 373.4 80.7;" xml:space="preserve">
<style type="text/css">
	.st0{fill:#414042;}
	.st1{fill:#41E6AF;}
</style>
<path class="st0" d="M189.4,41.8c0.6,5.6,6,9.3,13.5,9.3c7.1,0,12.2-3.7,12.2-8.7c0-4.4-3.1-7-10.4-8.8l-7.3-1.8
	c-10.4-2.5-15.2-7.3-15.2-15.2c0-9.7,8.5-16.4,20.5-16.4s20.1,6.7,20.4,16.4h-8.5c-0.5-5.6-5.1-9-12-9S191.1,11,191.1,16
	c0,4,3,6.3,10.2,8.1l6.2,1.5C219.1,28.4,224,33,224,41.3c0,10.5-8.4,17.1-21.8,17.1c-12.5,0-20.9-6.4-21.5-16.6L189.4,41.8z"/>
<path class="st0" d="M227,36.9c0-13.2,7.8-21.3,19.5-21.3c11.7,0,19.5,8.1,19.5,21.3s-7.7,21.3-19.5,21.3S227,50.1,227,36.9z
	 M257.4,36.9c0-9.1-4.3-14.3-10.9-14.3s-10.9,5.2-10.9,14.3s4.3,14.4,10.9,14.4C253.1,51.3,257.4,46,257.4,36.9L257.4,36.9z"/>
<path class="st0" d="M297.7,30.5c-0.8-4.7-4.9-8-9.6-7.8c-6.5,0-10.8,5.4-10.8,14.2c0,9,4.3,14.3,10.9,14.3c5.2,0,8.6-2.8,9.6-7.6
	h8.1c-0.9,8.7-7.9,14.7-17.8,14.7c-11.8,0-19.4-8-19.4-21.3c0-13,7.7-21.3,19.3-21.3c10.6,0,17,6.8,17.8,14.9L297.7,30.5z"/>
<path class="st0" d="M309.5,5.5c-0.1-2.7,2.1-5,4.8-5s5,2.1,5,4.8s-2.1,5-4.8,5h-0.1C311.7,10.4,309.5,8.2,309.5,5.5z M310.1,16.4
	h8.4v41.1h-8.4V16.4z"/>
<path class="st0" d="M323.5,45.8c0-7.2,5.5-11.6,15.3-12.2l11.2-0.7v-3.2c0-4.6-3.1-7.3-8.2-7.3c-4.9,0-7.9,2.3-8.7,6h-8
	c0.5-7.4,6.8-12.9,17-12.9c10,0,16.3,5.3,16.3,13.5v28.3h-8.1v-6.8h-0.2c-2.6,4.7-7.6,7.5-13,7.5C329.2,58.1,323.5,53.1,323.5,45.8z
	 M350.1,42.1v-3.2L340,39.5c-5,0.3-7.9,2.6-7.9,6.1s3,5.9,7.5,5.9C345.5,51.5,350.1,47.4,350.1,42.1L350.1,42.1z"/>
<path class="st0" d="M364.9,1.1h8.4v56.4h-8.4V1.1z"/>
<polygon class="st0" points="146.5,73.3 144.9,72.3 158,51.9 154.6,39.2 156.6,38.6 160.2,52.3 "/>
<polygon class="st0" points="168.1,68.3 157.8,51.9 171.1,41.4 172.3,43 160.4,52.3 169.7,67.3 "/>
<circle class="st0" cx="159.1" cy="52.1" r="6.8"/>
<circle class="st0" cx="171.7" cy="42.2" r="3.4"/>
<circle class="st0" cx="168.9" cy="67.3" r="5.4"/>
<circle class="st0" cx="145.7" cy="72.8" r="7.9"/>
<circle class="st0" cx="155.6" cy="38.9" r="3.2"/>
<path class="st1" d="M60.6,29.3c0-2.7,0-5.1,0.1-6.9c0.1-1.5,0.2-3,0.4-4.5c0.8-5,4.6-7.9,9.5-7.9c3.1-0.1,6.1,1.3,7.9,3.9
	c0.8,1.2,1.4,2.6,1.8,4.1c0.1,0.1,0.1,0.2,0.4,0.2h10.8c0.1,0,0.2-0.1,0.2-0.3C90.5,11.2,86.9,5,80.5,2.1c-3.1-1.4-6.6-2.2-10-2.1
	C64.7-0.1,59.1,2.1,55,6.3c-2.4,2.3-4,5.3-4.7,8.6c-0.7,4.7-1.1,9.5-1,14.3c-0.1,4.8,0.3,9.6,1,14.3c0.6,3.3,2.2,6.3,4.7,8.6
	c4.1,4.1,9.7,6.4,15.5,6.3c3.4,0.1,6.9-0.7,10-2.1c6.4-3,10-9.1,11.2-15.8c0-0.1,0-0.3-0.2-0.3H80.6c-0.2,0-0.3,0.1-0.4,0.2
	c-0.4,1.5-1,2.8-1.8,4.1c-1.8,2.6-4.8,4.1-7.9,3.9c-4.7,0.2-8.8-3.2-9.5-7.9c-0.3-1.5-0.4-3-0.4-4.5L60.6,29.3z"/>
<path class="st1" d="M110.5,29.3c0-2.7,0-5.1,0.1-6.9c0.1-1.5,0.2-3,0.4-4.5c0.8-5,4.6-7.9,9.5-7.9c3.1-0.1,6.1,1.3,7.9,3.9
	c0.8,1.2,1.4,2.6,1.8,4.1c0.1,0.1,0.1,0.2,0.4,0.2h10.9c0.1,0,0.2-0.1,0.2-0.3c-1.2-6.7-4.8-12.9-11.2-15.8c-3.1-1.4-6.6-2.2-10-2.1
	c-5.8-0.1-11.4,2.1-15.5,6.3c-2.4,2.3-4,5.3-4.7,8.6c-0.7,4.7-1.1,9.5-1,14.3c-0.1,4.8,0.3,9.6,1,14.3c0.6,3.3,2.2,6.3,4.7,8.6
	c4.1,4.1,9.7,6.4,15.5,6.3c3.4,0.1,6.9-0.7,10-2.1c6.4-3,10-9.1,11.2-15.8c0-0.1,0-0.3-0.2-0.3h-10.9c-0.2,0-0.3,0.1-0.4,0.2
	c-0.4,1.5-1,2.8-1.8,4.1c-1.8,2.6-4.8,4.1-7.9,3.9c-4.7,0.2-8.8-3.2-9.5-7.9c-0.3-1.5-0.4-3-0.4-4.5C110.6,34.4,110.5,32,110.5,29.3
	z"/>
<path class="st1" d="M11.3,1.5c0-0.5-0.4-1-0.9-1h-0.1H1c-0.5,0-1,0.4-1,0.9v0.1v55.6c0,0.5,0.4,1,0.9,1H1h9.3c0.5,0,1-0.4,1-0.9
	v-0.1V40.8l7.4-8.9L34,57.8c0.1,0.2,0.4,0.3,0.6,0.3h11.2c0.5,0,0.6-0.4,0.4-0.8l-20-33.9l18.3-22c0.4-0.4,0.2-0.8-0.4-0.8H31.8
	c-0.2,0-0.3,0.1-0.4,0.2L11.2,25L11.3,1.5z"/>
</svg>
