<svg xmlns="http://www.w3.org/2000/svg" viewBox="0 0 502.81 115.7"><defs><style>.a,.b,.c,.d,.e,.f,.g,.h,.i,.j,.k,.l,.m,.n,.p,.q{fill:#41e6ae;}.a{opacity:0.2;}.b{opacity:0.7;}.c{opacity:0.5;}.d{opacity:0.25;}.f{opacity:0.8;}.g{opacity:0.15;}.h{opacity:0.6;}.i{opacity:0.9;}.j{opacity:0.4;}.k{opacity:0.3;}.l{opacity:0.85;}.m{opacity:0.1;}.n{opacity:0.95;}.o{fill:#fff;}.p{opacity:0.75;}.q{opacity:0.35;}.r{fill:none;stroke:#fff;stroke-miterlimit:10;stroke-width:2px;}.s{fill:#41e6af;}</style></defs><rect class="a" x="26.78" width="8.93" height="9.64"/><rect class="b" x="35.7" width="8.93" height="9.64"/><rect class="c" x="44.63" width="8.93" height="9.64"/><rect class="d" x="17.85" y="9.64" width="8.93" height="9.64"/><rect class="e" x="35.7" y="9.64" width="8.93" height="9.64"/><rect class="f" x="44.63" y="9.64" width="8.93" height="9.64"/><rect class="e" x="53.56" y="9.64" width="8.93" height="9.64"/><rect class="g" x="8.93" y="19.28" width="8.93" height="9.64"/><rect class="h" x="17.85" y="19.28" width="8.93" height="9.64"/><rect class="a" x="26.78" y="19.28" width="8.93" height="9.64"/><rect class="b" x="35.7" y="19.28" width="8.93" height="9.64"/><rect class="e" x="44.63" y="19.28" width="8.93" height="9.64"/><rect class="i" x="53.56" y="19.28" width="8.93" height="9.64"/><rect class="e" x="62.48" y="19.28" width="8.93" height="9.64"/><rect class="d" y="28.92" width="8.93" height="9.64"/><rect class="g" x="8.93" y="28.92" width="8.93" height="9.64"/><rect class="j" x="17.85" y="28.92" width="8.93" height="9.64"/><rect class="h" x="26.78" y="28.92" width="8.93" height="9.64"/><rect class="i" x="35.7" y="28.92" width="8.93" height="9.64"/><rect class="j" x="44.63" y="28.92" width="8.93" height="9.64"/><rect class="e" x="53.56" y="28.92" width="8.93" height="9.64"/><rect class="k" x="8.93" y="38.57" width="8.93" height="9.64"/><rect class="f" x="17.85" y="38.57" width="8.93" height="9.64"/><rect class="a" x="26.78" y="38.57" width="8.93" height="9.64"/><rect class="c" x="35.7" y="38.57" width="8.93" height="9.64"/><rect class="l" x="44.63" y="38.57" width="8.93" height="9.64"/><rect class="c" x="62.48" y="38.57" width="8.93" height="9.64"/><rect class="a" y="48.21" width="8.93" height="9.64"/><rect class="m" x="17.85" y="48.21" width="8.93" height="9.64"/><rect class="c" x="26.78" y="48.21" width="8.93" height="9.64"/><rect class="n" x="35.7" y="48.21" width="8.93" height="9.64"/><rect class="f" x="44.63" y="48.21" width="8.93" height="9.64"/><rect class="o" x="53.56" y="38.57" width="8.93" height="9.64"/><path class="o" d="M101.11,32.79c-5.77-18.52-25-28.53-44.2-28.3v9.63h8.92v9.64h8.93V33.4H65.83V43h8.93v9.65H65.83v9.64h8.93V72H65.83v9.64H56.91v9.64h8.92v9.64h8.93v9.65H56.91v9.64H92.67L85.31,98.61l17.11,1.54.89-23.33,10.23-3.31S107.88,54.55,101.11,32.79Z" transform="translate(-3.35 -4.48)"/><rect class="e" x="53.56" y="48.21" width="8.93" height="9.64"/><rect class="h" x="17.85" y="57.85" width="8.93" height="9.64"/><rect class="k" x="26.78" y="57.85" width="8.93" height="9.64"/><rect class="b" x="35.7" y="57.85" width="8.93" height="9.64"/><rect class="e" x="44.63" y="57.85" width="8.93" height="9.64"/><rect class="j" x="53.56" y="57.85" width="8.93" height="9.64"/><rect class="e" x="62.48" y="57.85" width="8.93" height="9.64"/><rect class="a" x="8.93" y="67.49" width="8.93" height="9.64"/><rect class="p" x="17.85" y="67.49" width="8.93" height="9.64"/><rect class="h" x="26.78" y="67.49" width="8.93" height="9.64"/><rect class="a" x="35.7" y="67.49" width="8.93" height="9.64"/><rect class="h" x="44.63" y="67.49" width="8.93" height="9.64"/><rect class="e" x="53.56" y="67.49" width="8.93" height="9.64"/><rect class="k" x="17.85" y="77.13" width="8.93" height="9.64"/><rect class="c" x="26.78" y="77.13" width="8.93" height="9.64"/><rect class="b" x="35.7" y="77.13" width="8.93" height="9.64"/><rect class="e" x="44.63" y="77.13" width="8.93" height="9.64"/><rect class="c" x="17.85" y="86.77" width="8.93" height="9.64"/><rect class="m" x="35.7" y="86.77" width="8.93" height="9.64"/><rect class="e" x="44.63" y="86.77" width="8.93" height="9.64"/><rect class="i" x="53.56" y="86.77" width="8.93" height="9.64"/><rect class="e" x="17.85" y="96.41" width="8.93" height="9.64"/><rect class="h" x="26.78" y="96.41" width="8.93" height="9.64"/><rect class="p" x="35.7" y="96.41" width="8.93" height="9.64"/><rect class="h" x="44.63" y="96.41" width="8.93" height="9.64"/><rect class="e" x="53.56" y="96.41" width="8.93" height="9.64"/><rect class="f" x="62.48" y="96.41" width="8.93" height="9.64"/><rect class="d" x="8.93" y="106.06" width="8.93" height="9.64"/><rect class="p" x="17.85" y="106.06" width="8.93" height="9.64"/><rect class="q" x="26.78" y="106.06" width="8.93" height="9.64"/><rect class="e" x="35.7" y="106.06" width="8.93" height="9.64"/><rect class="b" x="44.63" y="106.06" width="8.93" height="9.64"/><path class="o" d="M322.17,75.28c.63,5.59,6.06,9.26,13.48,9.26,7.11,0,12.23-3.67,12.23-8.71,0-4.38-3.09-7-10.39-8.79l-7.31-1.76C319.83,62.78,315,57.94,315,50.08c0-9.72,8.48-16.4,20.51-16.4s20.08,6.68,20.35,16.4h-8.51c-.51-5.62-5.16-9-11.95-9S324,44.5,324,49.5c0,4,3,6.33,10.23,8.12l6.22,1.53c11.56,2.73,16.36,7.38,16.36,15.62,0,10.55-8.4,17.15-21.76,17.15-12.5,0-20.93-6.45-21.48-16.64Z" transform="translate(-3.35 -4.48)"/><path class="o" d="M359.78,70.44c0-13.21,7.78-21.29,19.49-21.29s19.5,8.08,19.5,21.29S391,91.76,379.27,91.76,359.78,83.68,359.78,70.44Zm30.39,0c0-9.11-4.29-14.34-10.9-14.34s-10.89,5.23-10.89,14.34,4.29,14.37,10.89,14.37S390.17,79.58,390.17,70.44Z" transform="translate(-3.35 -4.48)"/><path class="o" d="M430.52,64a9.32,9.32,0,0,0-9.65-7.85c-6.53,0-10.82,5.43-10.82,14.26,0,9,4.33,14.25,10.9,14.25,5.19,0,8.59-2.85,9.57-7.61h8.12c-.9,8.75-7.89,14.68-17.77,14.68-11.76,0-19.42-8-19.42-21.32,0-13,7.66-21.29,19.34-21.29,10.59,0,17,6.79,17.77,14.88Z" transform="translate(-3.35 -4.48)"/><path class="o" d="M442.23,39.07a4.9,4.9,0,1,1,4.88,4.8A4.85,4.85,0,0,1,442.23,39.07Zm.66,10.82h8.44V91h-8.44Z" transform="translate(-3.35 -4.48)"/><path class="o" d="M456.32,79.3c0-7.18,5.51-11.6,15.27-12.15l11.25-.66V63.33c0-4.57-3.08-7.31-8.24-7.31-4.88,0-7.93,2.35-8.67,6h-8c.47-7.42,6.8-12.89,17-12.89,10,0,16.32,5.27,16.32,13.51V91h-8.08V84.22H483a14.69,14.69,0,0,1-13,7.47C462,91.69,456.32,86.69,456.32,79.3Zm26.52-3.71V72.35L472.73,73c-5,.36-7.89,2.58-7.89,6.1s3,5.94,7.5,5.94C478.24,85,482.84,80.94,482.84,75.59Z" transform="translate(-3.35 -4.48)"/><path class="o" d="M497.72,34.62h8.44V91h-8.44Z" transform="translate(-3.35 -4.48)"/><polyline class="r" points="285.03 67.95 288.53 81.15 275.13 101.85"/><polyline class="r" points="298.33 96.85 288.53 81.15 301.13 71.25"/><circle class="o" cx="288.53" cy="81.15" r="6.8"/><circle class="o" cx="301.13" cy="71.25" r="3.4"/><circle class="o" cx="298.33" cy="96.35" r="5.4"/><circle class="o" cx="275.13" cy="101.85" r="7.9"/><circle class="o" cx="285.03" cy="67.95" r="3.2"/><path class="s" d="M193.38,62.83c0-2.7,0-5.1.1-6.9a44.15,44.15,0,0,1,.4-4.5c.8-5,4.6-7.9,9.5-7.9a9.2,9.2,0,0,1,7.9,3.9,12.76,12.76,0,0,1,1.8,4.1c.1.1.1.2.4.2h10.8c.1,0,.2-.1.2-.3-1.2-6.7-4.8-12.9-11.2-15.8a23.25,23.25,0,0,0-10-2.1,21,21,0,0,0-15.5,6.3,17,17,0,0,0-4.7,8.6,82.09,82.09,0,0,0-1,14.3,82.09,82.09,0,0,0,1,14.3,15.59,15.59,0,0,0,4.7,8.6,21.12,21.12,0,0,0,15.5,6.3,23.25,23.25,0,0,0,10-2.1c6.4-3,10-9.1,11.2-15.8,0-.1,0-.3-.2-.3h-10.9a.52.52,0,0,0-.4.2,13.81,13.81,0,0,1-1.8,4.1,9.08,9.08,0,0,1-7.9,3.9,9.3,9.3,0,0,1-9.5-7.9,25.77,25.77,0,0,1-.4-4.5Z" transform="translate(-3.35 -4.48)"/><path class="s" d="M243.28,62.83c0-2.7,0-5.1.1-6.9a44.15,44.15,0,0,1,.4-4.5c.8-5,4.6-7.9,9.5-7.9a9.2,9.2,0,0,1,7.9,3.9,12.76,12.76,0,0,1,1.8,4.1c.1.1.1.2.4.2h10.9c.1,0,.2-.1.2-.3-1.2-6.7-4.8-12.9-11.2-15.8a23.25,23.25,0,0,0-10-2.1,21,21,0,0,0-15.5,6.3,17,17,0,0,0-4.7,8.6,82.09,82.09,0,0,0-1,14.3,82.09,82.09,0,0,0,1,14.3,15.59,15.59,0,0,0,4.7,8.6,21.12,21.12,0,0,0,15.5,6.3,23.25,23.25,0,0,0,10-2.1c6.4-3,10-9.1,11.2-15.8,0-.1,0-.3-.2-.3h-10.9a.52.52,0,0,0-.4.2,13.81,13.81,0,0,1-1.8,4.1,9.08,9.08,0,0,1-7.9,3.9,9.3,9.3,0,0,1-9.5-7.9,25.77,25.77,0,0,1-.4-4.5C243.38,67.93,243.28,65.53,243.28,62.83Z" transform="translate(-3.35 -4.48)"/><path class="s" d="M144.08,35a.94.94,0,0,0-1-1h-9.3a.94.94,0,0,0-1,1v55.6a.94.94,0,0,0,1,1h9.3a.94.94,0,0,0,1-1V74.33l7.4-8.9,15.3,25.9a.6.6,0,0,0,.6.3h11.2c.5,0,.6-.4.4-.8l-20-33.9,18.3-22c.4-.4.2-.8-.4-.8h-12.3a.52.52,0,0,0-.4.2L144,58.53l.1-23.5Z" transform="translate(-3.35 -4.48)"/></svg>