<?xml version="1.0" encoding="utf-8"?>
<!-- Generator: Adobe Illustrator 25.4.1, SVG Export Plug-In . SVG Version: 6.00 Build 0)  -->
<svg version="1.1" id="Layer_1" xmlns="http://www.w3.org/2000/svg" xmlns:xlink="http://www.w3.org/1999/xlink" x="0px" y="0px"
	 viewBox="0 0 700 700" style="enable-background:new 0 0 700 700;" xml:space="preserve">
<style type="text/css">
	.st0{fill:#00EA9C;}
	.st1{fill:#00C986;}
	.st2{fill:#77F4CA;}
	.st3{fill:#00CC88;}
	.st4{fill:#00B77A;}
	.st5{fill:#179D70;}
	.st6{fill:#00AF75;}
	.st7{fill:#42F0B6;}
	.st8{fill:#009B67;}
	.st9{fill:#1E8563;}
	.st10{fill:#1E8965;}
	.st11{fill:#14BD85;}
	.st12{fill:#1DA276;}
	.st13{fill:#1E785A;}
	.st14{fill:#0FD694;}
	.st15{fill:#1CA477;}
	.st16{fill:#3FDAA6;}
	.st17{fill:#80F0CB;}
	.st18{fill:#00FFAA;}
	.st19{fill:#01E498;}
	.st20{fill:#0FCE8E;}
	.st21{fill:#00FEA9;}
	.st22{fill:#12D292;}
	.st23{fill:#11BB82;}
	.st24{fill:#02E69A;}
	.st25{fill:#00F5A3;}
	.st26{fill:#009865;}
	.st27{fill:#197758;}
	.st28{fill:#231F20;}
	.st29{fill:#3BAD87;}
	.st30{fill:#306F5A;}
	.st31{fill:#0D5E43;}
	.st32{fill:#159067;}
</style>
<g>
	<polygon class="st0" points="665.6,360.6 603.6,197 554.8,290.1 	"/>
	<polygon class="st1" points="515.1,401.2 554.8,290.1 665.6,360.6 	"/>
	<polygon class="st2" points="571.5,136.7 603.6,197 554.8,290.1 	"/>
	<polygon class="st3" points="471.7,77.2 554.8,290.1 571.5,136.7 	"/>
	<polygon class="st4" points="433.6,226.6 471.7,77.2 554.8,290.1 	"/>
	<polygon class="st5" points="428.2,362.3 515.1,401.2 554.8,290.1 	"/>
	<polygon class="st6" points="433.6,226.6 554.8,290.1 428.2,362.3 	"/>
	<polygon class="st7" points="376.1,424.3 405.1,388.5 453.3,418.9 	"/>
	<polygon class="st0" points="349.4,396.1 405.1,388.5 376.1,424.3 	"/>
	<polygon class="st4" points="409.6,342.2 349.4,396.1 405.1,388.5 	"/>
	<polygon class="st8" points="433.6,226.6 409.6,342.2 349.4,396.1 	"/>
	<polygon class="st9" points="361.1,306.7 371.4,351.8 433.6,226.6 	"/>
	<polygon class="st10" points="370.4,135.6 433.6,226.6 452.4,153 	"/>
	<polygon class="st11" points="360,80.3 370.4,135.6 452.4,153 	"/>
	<polygon class="st12" points="361.1,306.7 370.4,135.6 433.6,226.6 	"/>
	<polygon class="st13" points="210.3,340.8 371.4,351.8 361.1,306.7 	"/>
	<polygon class="st14" points="210.3,340.8 370.4,135.6 361.1,306.7 	"/>
	<polygon class="st15" points="151.4,234.5 210.3,340.8 370.4,135.6 	"/>
	<polygon class="st16" points="151.4,124.3 151.4,234.5 370.4,135.6 	"/>
	<polygon class="st17" points="151.4,124.3 360,80.3 370.4,135.6 	"/>
	<path class="st18" d="M176.5,424.7c0.3,0,75.9-5,75.9-5l-47.3-30.7L176.5,424.7z"/>
	<polygon class="st19" points="149.3,396.9 176.5,424.7 205.1,389.1 	"/>
	<polygon class="st20" points="149.3,396.9 210.3,340.8 205.1,389.1 	"/>
	<polygon class="st21" points="151.4,234.5 149.3,396.9 210.3,340.8 	"/>
	<polygon class="st22" points="67.6,223.8 151.4,124.3 151.4,234.5 	"/>
	<polygon class="st23" points="34.4,365.4 151.4,234.5 67.6,223.8 	"/>
	<polygon class="st24" points="149.3,396.9 34.4,365.4 151.4,234.5 	"/>
	<polygon class="st25" points="131.6,508.6 149.3,396.9 34.4,365.4 	"/>
	<polygon class="st20" points="126,579.4 131.6,508.6 34.4,365.4 	"/>
	<polygon class="st26" points="251.7,622.8 131.6,508.6 126,579.4 	"/>
	<polygon class="st27" points="376.1,543.3 251.7,622.8 201.8,575.3 	"/>
	<path class="st28" d="M328.7,410.5"/>
	<polygon class="st29" points="245.3,509.4 290.9,487.5 325.3,521.3 254.8,561 263.9,537.6 293.5,526.1 278.8,509.7 	"/>
	<polygon class="st30" points="223.8,504.9 189.4,511.1 254.8,561 263.9,537.6 	"/>
	<polygon class="st26" points="223.8,447.1 223.8,504.9 189.4,511.1 	"/>
	<polygon class="st31" points="328.7,410.5 223.8,504.9 223.8,447.1 	"/>
	<polygon class="st32" points="376.1,543.3 328.7,410.5 273.4,460.3 336.3,511.1 	"/>
	<polygon class="st31" points="318.4,553.9 336.3,511.1 376.1,543.3 	"/>
</g>
<g>
</g>
<g>
</g>
<g>
</g>
<g>
</g>
<g>
</g>
<g>
</g>
</svg>
