<?xml version="1.0" encoding="utf-8"?>
<!-- Generator: Adobe Illustrator 25.4.1, SVG Export Plug-In . SVG Version: 6.00 Build 0)  -->
<svg version="1.1" id="Layer_1" xmlns="http://www.w3.org/2000/svg" xmlns:xlink="http://www.w3.org/1999/xlink" x="0px" y="0px"
	 viewBox="0 0 1770 512" style="enable-background:new 0 0 1770 512;" xml:space="preserve">
<style type="text/css">
	.st0{fill:#F19F20;}
	.st1{fill:#F5D39F;}
	.st2{fill:#006B56;}
	.st3{fill:#001939;}
	.st4{fill:#865100;}
	.st5{fill:#FFFFFF;}
	.st6{fill:#41E6AF;}
	.st7{fill:#E66B80;}
	.st8{enable-background:new    ;}
</style>
<polygon class="st0" points="291.7,350.1 383.4,278 408.4,316.8 383,352.6 382.9,391.3 356.9,429.7 341.3,437.6 295.3,375.8 "/>
<path class="st1" d="M105.5,185.5l278.9,4.5l7.6,44l-26.1,68.4l-43,40.1l-29.3,5.1H190.8l-73.4-45.1c0,0-24-60.4-23.8-62.2
	C93.9,238.3,105.5,185.5,105.5,185.5z"/>
<path class="st0" d="M102.2,189.1c2.2,17,13.3,50.9,44.5,53.1s51.6-7.7,56.3-10.9s23.3-19.2,37.8-18.3s24.8,7.4,32.6,14.5
	s37.2,18.1,59.1,13.9s52.5-19.7,45.8-63.6c-13.4-24.8-18.2-24.1-18.2-24.1l-1.1-57l-18.5-25.9l-22.6-14.5l-27.7,14.3L272,103.2
	l-57.3-2.2l-26.8-37.5l-32-5.3L135,81.8l-9.8,50l-4.7,25.4L102.2,189.1z"/>
<path class="st2" d="M196.4,348.8c1.3-8.5,6.7-20.6,41.8-19.4s54.1-0.1,56.1,25.4s-11,38.5-11,38.5v31.1l8.5,13.4l-8.8,14.4
	l-53.8,5.3l-34-8.1l2.7-21.3l7.6-24.2l-13.2-25.7L196.4,348.8z"/>
<path class="st1" d="M307.3,371.5c15.5,6.8,37.6,24.8,43.6,52.4c6,27.5-53.7,13.6-53.7,13.6L280.3,419l5.4-32l15.5-18.3L307.3,371.5
	z"/>
<polygon class="st0" points="120.8,303.5 149.5,329.6 193.4,351.3 194.1,379.2 133.7,433.9 104,399.6 99.3,357.5 "/>
<path class="st1" d="M133.5,424.4c3.1-13.4,15.7-43.2,42.9-53.4s23.4,56.4,23.4,56.4l-30.3,16.1l-36.4-10.4L133.5,424.4z"/>
<path class="st3" d="M285.7,361.5v-11.4c0-5.9-4.2-12.8-16.2-12.8c-9.2,0-20.7,0.1-30.8,0.1c-8.8,0-16.9,0.1-22.6,0.1
	c-11.8,0.4-14.3,5-14.5,12.9l-0.3,10.2l-9.8-2.7c-16.3-4.5-71.5-23.7-96-81.3c-22.3-52.2-1.9-96.7,19.9-125.5
	c-0.3-38.7,9.8-101,49.3-102.6c31.9-1.3,49.6,31.3,55.6,45.1c11.3-0.9,34.1-2.2,47.3-0.5c9-16.8,27.4-44.5,51.5-44.5
	c0.3,0,0.6,0,0.9,0c9.1,0.3,18.4,5.8,26.8,15.9c14.7,17.6,28.1,51.7,24.1,86.2c22.1,25.9,43.6,79.3,17.2,129.6
	c-30.3,57.7-64.9,68.9-85.6,75.6c-2.2,0.7-4.2,1.4-6,2L285.7,361.5z M166.5,64.4c-0.4,0-0.7,0-1.1,0c-26,1.1-34.6,55.2-33.9,89.1
	l0.1,2.9l-1.8,2.2c-19.8,25.3-39.3,65.2-19.5,111.6c18.6,43.6,57.2,62.4,77.2,69.5c2.9-8.8,10.4-17.7,28.4-18.2l0.3,0
	c5.6,0,13.8,0,22.6-0.1c10.2-0.1,21.7-0.1,30.9-0.1c15.9,0,26.1,8.2,30.2,18.4c19.5-6.4,47.9-17.1,74.1-67.1
	c23.4-44.6,1.8-93.7-17.3-114.1l-2.6-2.8l0.6-3.8c4.5-29.5-6.7-61.2-20.1-77.3c-5.2-6.3-10.7-10-15-10.1
	c-14.8-0.5-30.5,20.9-40.4,41.1l-3.4,7l-7.1-3.2c-6.2-2.4-44.6-0.7-52.2,0.6l-6.7,1.1l-2.2-6.4C207.4,104.2,193.3,64.4,166.5,64.4z"
	/>
<rect x="185.4" y="350.1" class="st3" width="16" height="30.4"/>
<rect x="165.4" y="345.3" transform="matrix(0.1836 -0.983 0.983 0.1836 -204.6694 460.1649)" class="st3" width="18.5" height="16"/>
<path class="st3" d="M297.8,412.5c8.8-7.3,13-12.5,11.5-15.3c-1.6-3.1-20,5.5-23.8,11.1s-0.3,13.7-0.3,13.7S293.7,415.9,297.8,412.5
	z"/>
<path class="st3" d="M310.2,438.1c8.8-7.3,13.5-12.4,12-15.3c-1.6-3.1-19,6.7-22.8,12.2c-3.8,5.6,4.8,6.7,4.8,6.7
	S306.1,441.5,310.2,438.1z"/>
<path class="st3" d="M189.7,412.5c-8.8-7.3-12.9-12.5-11.5-15.3c1.6-3.1,20,5.5,23.8,11.1s0.3,13.7,0.3,13.7
	S193.7,415.9,189.7,412.5z"/>
<path class="st3" d="M177.3,438.1c-8.8-7.3-13.5-12.4-12-15.3c1.6-3.1,19,6.7,22.8,12.2s-4.8,6.7-4.8,6.7S181.3,441.5,177.3,438.1z"
	/>
<rect x="301.4" y="345" transform="matrix(0.9893 -0.1461 0.1461 0.9893 -48.1804 48.9777)" class="st3" width="16" height="15.1"/>
<rect x="285.5" y="350.1" class="st3" width="16" height="23.4"/>
<path class="st4" d="M242.2,342.4c20.6,0,33.4,2.8,33.2,5.1s-18.5,5.1-33.2,5.1s-31.8-2.4-31.7-5.1
	C210.5,344.8,221.6,342.4,242.2,342.4z"/>
<path class="st3" d="M242.5,467.1c-0.5,0-1,0-1.5,0c-22.5-0.1-37.7-3.8-46.3-11.4c-8.6-7.6-8.6-16.7-8.6-21.7v-0.2h16v0.2
	c0,4.3,0.2,7.1,3.1,9.6c3.8,3.3,13,7.3,35.8,7.4c23.8,0.1,34.6-3.6,39.4-6.7c4-2.6,4.9-5.2,5-8.3l16,0.7c-0.4,8.9-4.6,16-12.4,21
	C279.5,464.1,264.2,467.1,242.5,467.1z"/>
<path class="st3" d="M166.8,448c-4.4,0-9-0.4-13.8-1.1c-32.6-4.9-56.3-40.4-58-70.5c-1.3-24.3,8.7-57.3,18.6-77.6l11.7,5.7
	c-9.5,19.5-18.4,50.1-17.3,71.2c1.4,24.4,21,54.4,46.9,58.3c15.4,2.3,27.9,0.3,35.3-5.7c4.4-3.6,6.8-8.5,7.1-14.6
	c0.9-15.7-2.9-20.9-9.8-30.3c-0.8-1-1.5-2.1-2.3-3.2c-8.7-12.3-27.8-22.1-34.9-31.2l0,0c3.4,1.6,34.3,5.4,45.4,23.6
	c0.7,1.1,1.5,2.1,2.3,3.1c7.5,10.2,13.4,18.3,12.3,38.7c-0.5,9.8-4.6,18-11.9,24C190.6,444.8,179.8,448,166.8,448z"/>
<path class="st3" d="M322.5,448.2c-14.1,0-24.2-2.1-31.7-6.5c-9.9-5.9-15.2-15.8-15.9-29.6c-1.4-26.7,18-46.2,23.2-49.9
	c2.6-1.9,19.6-12.6,36.1-11.6l0,0c-12.1,8.7-26.8,21-28.6,22.3c-0.1,0.1-18.9,15.9-17.7,38.6c0.9,17.4,10.3,23.8,34.6,23.8
	c21.7,0,44.7-22.6,52.7-43.7c6.6-17.6-6.4-66-15.6-88.2l12-5c5.5,13.2,25.4,72.1,15.7,97.8C377.7,421.8,350.8,448.2,322.5,448.2z"/>
<path class="st5" d="M259.5,338.5c-1.2,0-2.5-0.6-3.2-1.6c-0.3-0.4-0.6-0.8-0.9-1.1c-1.4-1.7-3.2-3.9-3.3-8.1
	c-0.2-5.8,3.8-8.5,5.6-9.8l0.3-0.2c1.3-0.9,1.3-1,1.3-1.8c0-1.3-0.9-2.9-2.5-4.6c-1.5-1.6-1.4-4.1,0.2-5.7c1.6-1.5,4.1-1.4,5.7,0.2
	c3,3.1,4.6,6.5,4.7,9.8c0.2,5.2-3,7.4-4.7,8.6l-0.3,0.2c-1.8,1.2-2.2,1.8-2.2,3c0,1.5,0.4,2,1.5,3.3c0.4,0.5,0.8,0.9,1.2,1.5
	c1.3,1.8,0.9,4.3-0.9,5.6C261.1,338.3,260.3,338.5,259.5,338.5z"/>
<path class="st5" d="M241.8,338.5c-1.2,0-2.5-0.6-3.2-1.6c-0.3-0.4-0.6-0.8-0.9-1.1c-1.4-1.7-3.2-3.9-3.3-8.1
	c-0.2-5.8,3.8-8.5,5.6-9.8l0.3-0.2c1.3-0.9,1.3-1,1.3-1.8c0-1.3-0.9-2.9-2.5-4.6c-1.5-1.6-1.4-4.1,0.2-5.7c1.6-1.5,4.1-1.4,5.7,0.2
	c3,3.1,4.6,6.5,4.7,9.8c0.2,5.2-3,7.4-4.7,8.6l-0.3,0.2c-1.8,1.2-2.2,1.8-2.2,3c0,1.5,0.4,2,1.5,3.3c0.4,0.5,0.8,0.9,1.2,1.5
	c1.3,1.8,0.9,4.3-0.9,5.6C243.4,338.3,242.6,338.5,241.8,338.5z"/>
<path class="st5" d="M224.1,338.5c-1.2,0-2.5-0.6-3.2-1.6c-0.3-0.4-0.6-0.8-0.9-1.1c-1.4-1.7-3.2-3.9-3.3-8.2
	c-0.2-5.8,3.8-8.5,5.6-9.8l0.3-0.2c1.3-0.9,1.3-1,1.3-1.8c0-1.3-0.9-2.9-2.5-4.6c-1.5-1.6-1.4-4.1,0.2-5.7c1.6-1.5,4.1-1.4,5.7,0.2
	c3,3.1,4.6,6.5,4.7,9.8c0.2,5.2-3,7.4-4.7,8.6l-0.3,0.2c-1.8,1.2-2.2,1.8-2.2,3c0,1.5,0.4,2,1.5,3.3c0.4,0.5,0.8,0.9,1.2,1.5
	c1.3,1.8,0.9,4.3-0.9,5.6C225.7,338.3,224.9,338.5,224.1,338.5z"/>
<g id="Layer_00000069397661234713557480000005247992563010011825_" transform="matrix(3.153802, 0, 0, 3.153802, 29.444178, -32.559643)">
	<path id="Layer" class="st6" d="M76.2,135.1l-0.5-0.8l0,0l-2.8-4.6l0,0l-0.1-0.2h-1l-3.9,6.9l4,6.9h1l0,0l3.3-5.6h-2l-1.8,3.1
		l-2.5-4.3l2.4-4.3l1.8,3.1L76.2,135.1z"/>
	<path id="Layer_00000139984825809160137150000017292457692443923873_" class="st6" d="M60.9,134l1.8-3.1l-0.6-1l0,0l-0.4-0.7
		l-3.2,5.6l0,0l-0.1,0.1l0.5,0.9h7.9l4-6.8l-0.6-1h-5.5h-0.1h-0.9l0.5,0.9l0,0l0.5,0.9h3.6l-2.5,4.3L60.9,134L60.9,134z"/>
	<path id="Layer_00000158730959777818760760000018117138280239196603_" class="st6" d="M64.8,130.4c-0.1,0-0.3,0-0.4,0.1
		c-0.2,0.1-0.3,0.1-0.5,0.2c-0.4,0.3-0.7,0.6-0.8,1c0,0.2,0,0.3,0.1,0.4l0,0c0,0,0,0,0,0.1l0,0l0,0c0,0,0,0,0.1,0l0,0
		c0.3,0.1,0.7,0.1,1.1-0.1l0,0c0,0,0.1,0,0.1-0.1s0.1,0,0.1-0.1l0.1-0.1l0.1-0.1l0,0c0,0,0.1,0,0.1-0.1l0,0c0,0,0,0,0.1-0.1
		c0,0,0,0,0-0.1c0,0,0,0,0.1-0.1l0,0c0,0,0,0,0.1-0.1l0,0c0,0,0,0,0-0.1l0,0l0,0c0,0,0-0.1,0.1-0.1s0-0.1,0-0.1l0,0l0,0l0,0l0,0
		c0,0,0,0,0-0.1l0,0l0,0c0,0,0,0,0-0.1l0,0c0,0,0,0,0-0.1l0,0l0,0l0,0l0,0c0,0,0,0,0-0.1c0,0,0,0,0-0.1l0,0
		C65.3,130.5,65.1,130.4,64.8,130.4z"/>
	<path id="Layer_00000119076910078870759520000012666720036566927009_" class="st6" d="M65.8,131.3
		C65.8,131.3,65.7,131.3,65.8,131.3L65.8,131.3C65.7,131.4,65.7,131.4,65.8,131.3L65.8,131.3c-0.1,0.1-0.1,0.1-0.1,0.2l0,0l0,0
		c-0.1,0.3-0.4,0.5-0.6,0.7l-0.1,0.1l-0.1,0.1l0,0l0,0l0,0c0,0,0,0-0.1,0l0,0l0,0h-0.1l0,0l0,0l0,0h-0.1l0,0l0,0h-0.1c0,0,0,0-0.1,0
		l0,0l0,0l0,0h-0.1c0,0,0,0-0.1,0l0,0l0,0l0,0h-0.1l0,0H64l0,0l0,0c0,0,0,0-0.1,0l0,0c0,0,0,0-0.1,0l0,0l0.7,1.1H66l0.8-1.4
		l-0.7-1.1C65.7,131.2,65.7,131.2,65.8,131.3C65.7,131.2,65.7,131.2,65.8,131.3C65.7,131.2,65.7,131.3,65.8,131.3L65.8,131.3z"/>
	<path id="Layer_00000099622504926186900340000000883162138198408351_" class="st6" d="M73.7,135.4c0.1,0.1,0.1,0.2,0.2,0.4
		c0,0.2,0.1,0.3,0.1,0.5c0,0.5-0.2,1-0.4,1.2c-0.1,0.1-0.3,0.1-0.4,0.1l0,0h-0.1l0,0l0,0H73l0,0c-0.2-0.2-0.4-0.5-0.5-1l0,0v-0.1
		v-0.1c0-0.1,0-0.1,0-0.1v-0.1l0,0v-0.1l0,0V136c0,0,0,0,0-0.1v-0.1l0,0v-0.1l0,0c0,0,0,0,0-0.1l0,0l0,0c0,0,0-0.1,0.1-0.1
		s0-0.1,0.1-0.1l0,0l0,0l0,0l0,0l0,0l0,0l0,0l0,0l0,0c0,0,0,0,0.1,0l0,0l0,0l0,0l0,0c0,0,0,0,0.1,0s0.1,0,0.1,0l0,0
		C73.3,135,73.5,135.1,73.7,135.4z"/>
	<path id="Layer_00000119818770316532775330000001220617743784759214_" class="st6" d="M72.4,135.1
		C72.4,135.1,72.3,135.1,72.4,135.1L72.4,135.1C72.3,135.1,72.3,135.1,72.4,135.1L72.4,135.1c-0.1,0.1-0.1,0.1-0.1,0.2l0,0l0,0
		c-0.2,0.2-0.2,0.6-0.3,0.9c0,0.1,0,0.1,0,0.1v0.1l0,0l0,0c0,0,0,0,0,0.1v0.1l0,0l0,0v0.1l0,0l0,0l0,0v0.1l0,0l0,0v0.1l0,0l0,0l0,0
		l0,0c0,0,0,0,0,0.1c0,0,0,0,0,0.1l0,0l0,0l0,0c0,0,0,0.1,0.1,0.1l0,0c0,0,0,0.1,0.1,0.1l0,0l0,0c0,0,0,0,0.1,0.1l0,0
		c0,0,0,0,0.1,0.1l0,0h-1.3l-0.8-1.3l0.8-1.4L72.4,135.1C72.5,135,72.5,135,72.4,135.1L72.4,135.1L72.4,135.1L72.4,135.1z"/>
	<path id="Layer_00000024000991232483426480000006635955965622010298_" class="st6" d="M64.8,142.3c-0.1,0-0.3,0-0.4-0.1
		c-0.2-0.1-0.3-0.1-0.5-0.2c-0.4-0.3-0.7-0.6-0.8-1c0-0.2,0-0.3,0.1-0.4l0,0c0,0,0,0,0-0.1l0,0l0,0c0,0,0,0,0.1,0l0,0
		c0.3-0.1,0.7-0.1,1.1,0.1l0,0c0,0,0.1,0,0.1,0.1c0,0,0.1,0,0.1,0.1l0.1,0.1l0.1,0.1l0,0c0,0,0.1,0,0.1,0.1l0,0c0,0,0,0,0.1,0.1
		c0,0,0,0,0,0.1c0,0,0,0,0.1,0.1l0,0c0,0,0,0,0.1,0.1l0,0c0,0,0,0,0,0.1l0,0l0,0c0,0,0,0.1,0.1,0.1s0,0.1,0,0.1l0,0l0,0l0,0l0,0
		c0,0,0,0,0,0.1l0,0l0,0c0,0,0,0,0,0.1l0,0c0,0,0,0,0,0.1l0,0l0,0l0,0l0,0c0,0,0,0,0,0.1c0,0,0,0,0,0.1l0,0
		C65.3,142.2,65.1,142.3,64.8,142.3z"/>
	<path id="Layer_00000039129552413664431180000011965960607563720071_" class="st6" d="M65.8,141.4
		C65.8,141.4,65.7,141.4,65.8,141.4L65.8,141.4C65.7,141.3,65.7,141.3,65.8,141.4L65.8,141.4c-0.1-0.1-0.1-0.1-0.1-0.2l0,0
		c-0.1-0.3-0.4-0.5-0.6-0.7l-0.1-0.1l-0.1-0.1l0,0l0,0l0,0c0,0,0,0-0.1,0l0,0l0,0h-0.1l0,0l0,0l0,0h-0.1l0,0l0,0h-0.1c0,0,0,0-0.1,0
		l0,0l0,0l0,0h-0.1c0,0,0,0-0.1,0l0,0l0,0l0,0h-0.1l0,0H64l0,0l0,0c0,0,0,0-0.1,0l0,0c0,0,0,0-0.1,0l0,0l0.7-1.1H66l0.8,1.4
		l-0.7,1.1C65.7,141.5,65.7,141.5,65.8,141.4C65.7,141.5,65.7,141.5,65.8,141.4C65.7,141.5,65.7,141.4,65.8,141.4L65.8,141.4z"/>
	<path id="Layer_00000042017688687211609500000004854900660477279380_" class="st6" d="M68.4,143h-3.6l-0.6,1.1l-0.4,0.7h1l0,0h5.5
		l0.6-1l-4-6.8H59l-0.5,0.9l0.1,0.2l0,0l3.2,5.5l1-1.7l-1.8-3.1h5L68.4,143z"/>
</g>
<path class="st3" d="M159.2,212.6c7-6.1,25.1-25.3,54.4,0c4.8,5.3-2.4,11.3-4.9,9.3c-9.8-8.9-25.1-14.1-42.4,0
	C161,224.7,157.3,214.3,159.2,212.6z"/>
<path class="st3" d="M268.7,213.5c7-6.1,26-27.6,55.4-2.3c4.8,5.3-3.4,12.1-6,10.1c-9.8-8.9-31.8-14-42.8-0.1
	C269.9,223.9,266.8,215.1,268.7,213.5z"/>
<path class="st1" d="M341.3,137.9c-0.5-15.6-5.5-56.1-19.2-60.8c-13.7-4.7-33.1,28.2-36.9,36.3s0.2,8.6,7.4,6.3
	c10.2-3.2,18.8,2.7,22.6,7.9c2.1,2.8,12.1,17.8,19.2,18.4C341.4,146.6,341.4,141.2,341.3,137.9z"/>
<path class="st1" d="M141.6,137.9c0.5-15.6,5.4-56.1,19.2-60.8s33.1,28.2,36.9,36.3c3.8,8.1-0.2,8.6-7.4,6.3
	c-10.2-3.2-18.8,2.7-22.6,7.9c-2.1,2.8-12.1,17.8-19.2,18.4C141.4,146.6,141.5,141.2,141.6,137.9z"/>
<ellipse transform="matrix(0.9655 -0.2606 0.2606 0.9655 -34.9118 77.4732)" class="st1" cx="274.7" cy="170.4" rx="16.2" ry="12.4"/>
<ellipse transform="matrix(0.2606 -0.9655 0.9655 0.2606 -10.1184 327.6197)" class="st1" cx="208.8" cy="170.4" rx="12.4" ry="16.2"/>
<ellipse transform="matrix(0.2379 -0.9713 0.9713 0.2379 -124.0974 326.2082)" class="st7" cx="145.8" cy="242.2" rx="16.5" ry="27.7"/>
<ellipse transform="matrix(0.9713 -0.2379 0.2379 0.9713 -47.9114 87.3866)" class="st7" cx="338.1" cy="242.2" rx="27.7" ry="16.5"/>
<path class="st3" d="M233.9,263c-7.3,6.5-20.8,8-25.5-2.6c-0.9-2.1-6.6,0-5.4,2.6s5.8,11,15.4,11.3c-0.4,10.7,9.6,24.4,24.2,23.9
	c14.5-0.4,24.3-14.9,24.1-24.1c3.9-0.3,11.9-2.8,14.8-11.1c0.9-1.8-3.8-3.8-5.3-2.3s-4.2,7.7-10.3,7.9c-6.1,0.1-9.8-1.6-13.7-4.8
	c8.4-5.5,18.2-14.1,17.8-21.2s-11-14.9-27.1-14.7c-16.2,0.1-28.1,5.2-28.6,14.7C213.6,252.1,230.4,261.1,233.9,263z"/>
<path class="st7" d="M224.3,274.8c-0.2,6.6,7.4,17.5,17.9,17.3c10.6-0.3,18.1-10.2,17.8-17.2c-7.6,0-17.8-7.6-17.8-10.9
	C242.2,264,237.2,274.5,224.3,274.8z"/>
<path class="st3" d="M387.7,361.9l-9.7-12.8c12.7-9.6,19.2-20.1,19.3-31.2c0.2-14.9-10.6-28.9-20.8-37l10-12.5
	c13.1,10.5,27.1,29.1,26.8,49.7C413.2,334.4,404.5,349.2,387.7,361.9z"/>
<g class="st8">
	<path class="st5" d="M519.9,371.2V145.8h47.2v95.6l86.8-95.6h54.2l-81.5,91.4l85.8,134.1H662l-64.8-104l-30.1,32.5v71.4
		L519.9,371.2L519.9,371.2z"/>
	<path class="st5" d="M787.3,374.7c-19.8,0-35.3-5.5-46.4-16.6c-11.1-11.1-16.6-27.4-16.6-48.8v-104h47.2v102.9
		c0,11.2,2.7,19.3,8,24.3c5.4,5,13.4,7.5,24.2,7.5c8.2,0,15.7-1.6,22.6-4.9c6.9-3.3,12.8-7.4,17.7-12.2V205.3h47.2v165.9h-43.8
		l-1.8-15.8c-7,5.6-15.2,10.2-24.7,13.8C811.6,372.9,800.4,374.7,787.3,374.7z"/>
	<path class="st5" d="M931.5,371.2V145.8h94.5c33.8,0,59.3,8.7,76.5,26.1s25.7,46.6,25.7,87.7c0,38.7-8.5,67-25.4,84.9
		s-42.5,26.8-76.8,26.8L931.5,371.2L931.5,371.2z M978.8,334.8h40.6c13.3,0,24.5-2,33.6-6.1c9.1-4.1,15.9-11.5,20.5-22.4
		c4.5-10.9,6.8-26.4,6.8-46.7s-2.1-35.8-6.3-46.6c-4.2-10.7-10.7-18.1-19.6-22c-8.9-4-20.5-6-35-6h-40.6L978.8,334.8L978.8,334.8z"
		/>
	<path class="st5" d="M1244.1,374.7c-31,0-53.8-7.5-68.2-22.6c-14.5-15-21.7-36.3-21.7-63.9c0-27.5,7.3-48.8,21.9-63.9
		c14.6-15,37.3-22.6,68.1-22.6c31,0,53.8,7.5,68.4,22.6c14.6,15,21.9,36.3,21.9,63.9c0,27.5-7.2,48.8-21.7,63.9
		C1298.2,367.2,1275.3,374.7,1244.1,374.7z M1244.1,334.5c15.2,0,26-3.4,32.5-10.3s9.8-18.8,9.8-35.9c0-17-3.3-29-9.8-35.9
		s-17.4-10.3-32.5-10.3c-14.9,0-25.7,3.4-32.2,10.3c-6.5,6.9-9.8,18.8-9.8,35.9c0,17,3.3,29,9.8,35.9
		C1218.4,331,1229.1,334.5,1244.1,334.5z"/>
	<path class="st5" d="M1437.3,432.8c-12.4,0-25-0.8-38-2.4c-12.9-1.6-23.9-4-32.7-7V388c9.3,3,20.3,5.4,32.9,7.2
		c12.6,1.8,24.4,2.6,35.3,2.6c16.1,0,27.8-0.9,35-2.6c7.2-1.8,10.8-4.8,10.8-9.3c0-3.7-1.6-6.3-4.7-7.7s-9.7-2.1-19.8-2.1H1411
		c-29.6,0-44.5-11-44.5-32.9c0-6.8,1.9-13,5.6-18.5c3.7-5.6,9.7-10,17.9-13.3c-18.9-9.6-28.4-25.7-28.4-48.3c0-21.5,6.7-37,20-46.7
		s33-14.5,59.2-14.5c5.4,0,11.3,0.4,17.7,1.2c6.4,0.8,11.3,1.6,14.5,2.3h62.3l-1,29.8H1508c7.2,6.8,10.8,16.2,10.8,28.4
		c0,17-5.4,30.6-16.1,40.8c-10.7,10.2-26.6,15.2-47.6,15.2c-3.7,0-7.3-0.2-10.7-0.5c-3.4-0.3-6.8-0.8-10.3-1.2
		c-7,0.9-12.9,2.6-17.7,4.9c-4.8,2.3-7.2,5.5-7.2,9.5c0,5.4,4.8,8,14.3,8h46.9c16.8,0,29.8,3.8,38.8,11.4
		c9.1,7.6,13.7,18.6,13.7,33.1c0,16.3-7.4,28.5-22,36.4C1486.3,428.9,1465,432.8,1437.3,432.8z M1441.1,292.8
		c14,0,23.7-2.4,29.2-7.2c5.5-4.8,8.2-12.9,8.2-24.3s-2.7-19.7-8.2-24.9c-5.5-5.1-15.2-7.7-29.2-7.7c-13.3,0-22.9,2.5-28.7,7.5
		c-5.8,5-8.8,13.4-8.8,25c0,10.7,2.7,18.7,8.2,23.8C1417.4,290.3,1427.1,292.8,1441.1,292.8z"/>
	<path class="st5" d="M1646.9,374.7c-28.7,0-51.5-7.2-68.2-21.5c-16.8-14.3-25.2-36.1-25.2-65.3c0-26.4,7.1-47.3,21.2-62.8
		s35.2-23.3,63.2-23.3c25.7,0,45.3,6.7,59,20.1c13.6,13.4,20.5,31,20.5,52.7v30.1h-120c2.6,13.3,8.7,22.4,18.4,27.3
		c9.7,4.9,23.4,7.4,41.1,7.4c8.9,0,17.9-0.8,27.1-2.5c9.2-1.6,17.1-3.7,23.6-6.3v33.6c-7.7,3.5-16.7,6.1-27,7.9
		C1670.2,373.8,1659,374.7,1646.9,374.7z M1597.2,275.7h78.8v-9.1c0-9.6-2.8-17.1-8.4-22.6s-15-8.2-28.3-8.2
		c-15.6,0-26.5,3.2-32.7,9.5C1600.3,251.5,1597.2,261.7,1597.2,275.7z"/>
</g>
</svg>
