<?xml version="1.0" encoding="utf-8"?>
<!-- Generator: Adobe Illustrator 25.4.1, SVG Export Plug-In . SVG Version: 6.00 Build 0)  -->
<svg version="1.1" id="Layer_1" xmlns="http://www.w3.org/2000/svg" xmlns:xlink="http://www.w3.org/1999/xlink" x="0px" y="0px"
	 viewBox="0 0 512 512" enable-background="new 0 0 512 512" xml:space="preserve">
<rect x="0" y="0" fill="#41E6AF" width="512" height="512"/>
<g>
	<linearGradient id="SVGID_1_" gradientUnits="userSpaceOnUse" x1="254.9685" y1="58.5181" x2="257.0496" y2="456.9572">
		<stop  offset="6.700663e-04" style="stop-color:#06665E"/>
		<stop  offset="1" style="stop-color:#099E92"/>
	</linearGradient>
	<circle fill="url(#SVGID_1_)" cx="256" cy="256" r="199.22"/>
	
		<linearGradient id="SVGID_00000045599575344969852790000018366549212608403883_" gradientUnits="userSpaceOnUse" x1="412.2087" y1="131.1143" x2="412.3665" y2="161.3292">
		<stop  offset="6.700663e-04" style="stop-color:#13D1C1"/>
		<stop  offset="1" style="stop-color:#07746B"/>
	</linearGradient>
	<path fill="url(#SVGID_00000045599575344969852790000018366549212608403883_)" d="M413.18,161.19c5.83,0,10.88-3.29,13.43-8.11
		c-4.67-7.73-9.86-15.1-15.5-22.1c-7.4,1.01-13.11,7.34-13.11,15.02C398,154.4,404.8,161.19,413.18,161.19z"/>
	
		<linearGradient id="SVGID_00000069359434007970362530000008431940465524861844_" gradientUnits="userSpaceOnUse" x1="879.6649" y1="317.7545" x2="879.8915" y2="361.1455" gradientTransform="matrix(-1 0 0 -1 968.9472 641.2228)">
		<stop  offset="5.223257e-03" style="stop-color:#088B80"/>
		<stop  offset="1" style="stop-color:#09A699"/>
	</linearGradient>
	<circle fill="url(#SVGID_00000069359434007970362530000008431940465524861844_)" cx="89.17" cy="301.96" r="21.7"/>
	
		<linearGradient id="SVGID_00000009588322002240506640000005500376737166355380_" gradientUnits="userSpaceOnUse" x1="819.0717" y1="238.4095" x2="819.642" y2="347.5927" gradientTransform="matrix(-1 0 0 -1 968.9472 641.2228)">
		<stop  offset="5.223257e-03" style="stop-color:#088B80"/>
		<stop  offset="1" style="stop-color:#09A699"/>
	</linearGradient>
	<circle fill="url(#SVGID_00000009588322002240506640000005500376737166355380_)" cx="149.59" cy="348.7" r="54.59"/>
	
		<linearGradient id="SVGID_00000107586342215400180140000009808891991371026873_" gradientUnits="userSpaceOnUse" x1="634.074" y1="276.0814" x2="635.1161" y2="475.6099" gradientTransform="matrix(-1 0 0 -1 968.9472 641.2228)">
		<stop  offset="5.223257e-03" style="stop-color:#088B80"/>
		<stop  offset="1" style="stop-color:#09A699"/>
	</linearGradient>
	<circle fill="url(#SVGID_00000107586342215400180140000009808891991371026873_)" cx="334.36" cy="266.25" r="99.77"/>
</g>
<g>
	<polygon fill="#F19F20" points="301.02,350.09 392.71,278.03 417.67,316.82 392.3,352.58 392.17,391.33 366.12,429.67 
		350.58,437.63 304.56,375.8 	"/>
	<path fill="#F5D39F" d="M114.73,185.52l278.94,4.49l7.57,43.97l-26.08,68.36l-43.04,40.06l-29.3,5.09H200.06l-73.39-45.15
		c0,0-24.04-60.41-23.78-62.21C103.16,238.33,114.73,185.52,114.73,185.52z"/>
	<path fill="#F19F20" d="M111.49,189.1c2.16,17.04,13.33,50.88,44.46,53.13c31.13,2.25,51.57-7.7,56.27-10.95
		s23.33-19.17,37.8-18.27c14.47,0.9,24.78,7.42,32.55,14.47s37.16,18.09,59.09,13.93c21.93-4.16,52.5-19.74,45.76-63.65
		c-13.41-24.77-18.22-24.06-18.22-24.06l-1.09-56.97l-18.45-25.86l-22.61-14.45l-27.67,14.27l-18.09,32.55L224,101.05l-26.76-37.48
		l-32.02-5.31l-20.95,23.53l-9.82,50.01l-4.7,25.44L111.49,189.1z"/>
	<path fill="#006B56" d="M205.71,348.83c1.27-8.5,6.69-20.59,41.78-19.43c35.09,1.16,54.08-0.1,56.07,25.4s-11.03,38.52-11.03,38.52
		v31.11l8.5,13.38l-8.82,14.42l-53.76,5.29l-34-8.14l2.71-21.34l7.6-24.23l-13.2-25.68L205.71,348.83z"/>
	<path fill="#F5D39F" d="M316.57,371.49c15.55,6.82,37.64,24.83,43.59,52.36c5.96,27.52-53.73,13.6-53.73,13.6L289.62,419
		l5.43-32.01l15.55-18.29L316.57,371.49z"/>
	<polygon fill="#F19F20" points="130.11,303.52 158.77,329.58 202.63,351.27 203.35,379.21 142.99,433.88 113.29,399.56 
		108.54,357.51 	"/>
	<path fill="#F5D39F" d="M142.82,424.36c3.11-13.41,15.67-43.22,42.9-53.36s23.42,56.41,23.42,56.41l-30.29,16.1l-36.44-10.4
		L142.82,424.36z"/>
	<path fill="none" stroke="#001939" stroke-width="16" stroke-miterlimit="10" d="M224.33,101.96c6.51-1.09,48.83-3.62,56.79,0
		c5.79-11.94,24.6-46.3,47.75-45.58c23.15,0.72,49.55,52.09,42.68,96.58c20.62,22.06,44.11,74.48,18.45,123.34
		c-32.01,60.95-68.54,67.1-87.17,73.79c0-9.77-7.23-20.8-24.23-20.8s-41.24,0.18-53.53,0.18c-12.66,0.36-21.88,5.43-22.43,20.62
		c-10.49-2.89-66.55-19.89-90.79-76.68c-20.29-47.55-2.89-89.7,20.62-119.73c-0.72-34.72,7.6-95.88,41.6-97.31
		S224.33,101.96,224.33,101.96z"/>
	<line fill="none" stroke="#001939" stroke-width="16" stroke-miterlimit="10" x1="202.63" y1="350.09" x2="202.63" y2="380.47"/>
	<line fill="none" stroke="#001939" stroke-width="16" stroke-miterlimit="10" x1="185.72" y1="344.17" x2="182.28" y2="362.37"/>
	<path fill="#001939" d="M307.05,412.51c8.78-7.32,12.95-12.48,11.53-15.33c-1.58-3.15-20.01,5.5-23.81,11.06
		c-3.8,5.56-0.27,13.7-0.27,13.7S302.98,415.9,307.05,412.51z"/>
	<path fill="#001939" d="M319.46,438.08c8.78-7.32,13.46-12.43,12.04-15.28c-1.58-3.15-19.02,6.66-22.82,12.23
		c-3.8,5.56,4.82,6.71,4.82,6.71S315.39,441.47,319.46,438.08z"/>
	<path fill="#001939" d="M198.95,412.51c-8.78-7.32-12.95-12.48-11.53-15.33c1.58-3.15,20.01,5.5,23.81,11.06
		c3.8,5.56,0.27,13.7,0.27,13.7S203.01,415.9,198.95,412.51z"/>
	<path fill="#001939" d="M186.53,438.08c-8.78-7.32-13.46-12.43-12.04-15.28c1.58-3.15,19.02,6.66,22.82,12.23
		c3.8,5.56-4.82,6.71-4.82,6.71S190.6,441.47,186.53,438.08z"/>
	<line fill="none" stroke="#001939" stroke-width="16" stroke-miterlimit="10" x1="317.62" y1="345.12" x2="319.82" y2="360.04"/>
	<line fill="none" stroke="#001939" stroke-width="16" stroke-miterlimit="10" x1="302.82" y1="350.09" x2="302.82" y2="373.48"/>
	<path fill="#865100" d="M251.46,342.41c20.62,0,33.37,2.8,33.19,5.06c-0.18,2.26-18.54,5.15-33.19,5.11
		c-14.65-0.04-31.76-2.35-31.71-5.09C219.81,344.76,230.84,342.41,251.46,342.41z"/>
	<path fill="none" stroke="#001939" stroke-width="16" stroke-miterlimit="10" d="M203.35,433.88c0,8.55-0.27,24.96,46.93,25.23
		c47.2,0.27,52.13-14.05,52.54-22.65"/>
	<path fill="#001939" d="M176.03,448.05c-4.36,0-8.96-0.36-13.8-1.09c-32.61-4.91-56.31-40.4-57.98-70.46
		c-1.35-24.32,8.67-57.27,18.56-77.58l11.71,5.7c-9.46,19.45-18.43,50.14-17.26,71.16c1.36,24.44,20.96,54.4,46.92,58.31
		c15.37,2.32,27.91,0.28,35.3-5.74c4.41-3.59,6.81-8.49,7.14-14.58c0.86-15.69-2.94-20.86-9.83-30.26
		c-0.76-1.03-1.54-2.09-2.34-3.21c-8.73-12.3-27.81-22.07-34.86-31.2l0,0c3.42,1.59,34.27,5.43,45.44,23.6
		c0.69,1.13,1.53,2.11,2.26,3.1c7.51,10.24,13.45,18.33,12.34,38.67c-0.53,9.76-4.65,18.05-11.92,23.96
		C199.89,444.8,189.09,448.05,176.03,448.05z"/>
	<path fill="#001939" d="M331.76,448.25c-14.1,0-24.17-2.08-31.68-6.54c-9.87-5.87-15.24-15.83-15.93-29.61
		c-1.36-26.73,17.97-46.19,23.21-49.94c2.62-1.87,19.56-12.58,36.11-11.63l0,0c-12.07,8.68-26.78,21.05-28.59,22.26
		c-0.13,0.1-18.89,15.87-17.73,38.65c0.88,17.35,10.26,23.8,34.61,23.8c21.66,0,44.73-22.58,52.69-43.67
		c6.64-17.59-6.42-66.01-15.59-88.17l12.03-4.98c5.46,13.2,25.43,72.08,15.74,97.75C386.97,421.77,360.06,448.25,331.76,448.25z"/>
	<path fill="none" stroke="#FFFFFF" stroke-width="8" stroke-linecap="round" stroke-linejoin="round" stroke-miterlimit="10" d="
		M268.8,334.45c-1.63-2.24-3.32-3.26-3.39-7.05c-0.07-3.8,2.51-5.36,4.2-6.58s3.12-2.31,2.98-5.22c-0.14-2.92-1.96-5.49-3.59-7.19"
		/>
	<path fill="none" stroke="#FFFFFF" stroke-width="8" stroke-linecap="round" stroke-linejoin="round" stroke-miterlimit="10" d="
		M251.03,334.45c-1.63-2.24-3.32-3.26-3.39-7.05c-0.07-3.8,2.51-5.36,4.2-6.58c1.7-1.22,3.12-2.31,2.98-5.22
		c-0.14-2.92-1.96-5.49-3.59-7.19"/>
	<path fill="none" stroke="#FFFFFF" stroke-width="8" stroke-linecap="round" stroke-linejoin="round" stroke-miterlimit="10" d="
		M233.33,334.45c-1.63-2.24-3.32-3.26-3.39-7.05c-0.07-3.8,2.51-5.36,4.2-6.58c1.7-1.22,3.12-2.31,2.98-5.22
		c-0.14-2.92-1.96-5.49-3.59-7.19"/>
	
		<g id="Layer_00000069397661234713557480000005247992563010011825_" transform="matrix(3.153802, 0, 0, 3.153802, 29.444178, -32.559643)">
		<path id="Layer" fill="#41E6AF" d="M79.19,135.12l-0.5-0.84l0,0l-2.76-4.63h-0.01l-0.09-0.16h-1.01l-3.92,6.89l3.98,6.85h1.01
			l0.03-0.04l3.29-5.63h-2.03l-1.75,3.11l-2.49-4.31l2.44-4.31l1.78,3.06L79.19,135.12z"/>
		<path id="Layer_00000139984825809160137150000017292457692443923873_" fill="#41E6AF" d="M63.86,134l1.84-3.14l-0.62-0.99l0,0
			l-0.43-0.71l-3.15,5.55l0,0l-0.09,0.15l0.5,0.88h7.92l3.99-6.84l-0.55-0.96l-5.54,0.01h-0.09l-0.88-0.01l0.47,0.88l0,0l0.47,0.88
			l3.63-0.01L68.84,134H63.86z"/>
		<path id="Layer_00000158730959777818760760000018117138280239196603_" fill="#41E6AF" d="M67.78,130.38
			c-0.14,0-0.29,0.03-0.44,0.08c-0.16,0.05-0.33,0.13-0.48,0.21c-0.43,0.26-0.73,0.64-0.78,0.99c-0.03,0.16,0.01,0.3,0.1,0.4l0,0
			c0.01,0.03,0.04,0.04,0.05,0.06c0.01,0.01,0.03,0.01,0.04,0.03c0.01,0.01,0.01,0.01,0.03,0.03c0.03,0.01,0.04,0.03,0.06,0.04l0,0
			c0.26,0.13,0.68,0.1,1.08-0.09l0.01-0.01c0.04-0.01,0.08-0.04,0.11-0.05s0.06-0.04,0.1-0.06c0.04-0.03,0.08-0.05,0.11-0.08
			c0.04-0.03,0.06-0.05,0.1-0.08l0.03-0.01c0.03-0.03,0.05-0.04,0.08-0.06c0.01-0.01,0.01-0.01,0.03-0.03
			c0.03-0.01,0.04-0.04,0.05-0.05c0.01-0.01,0.03-0.03,0.04-0.05c0.01-0.03,0.04-0.04,0.05-0.06c0.01-0.01,0.01-0.01,0.03-0.03
			c0.01-0.03,0.04-0.04,0.05-0.06l0.03-0.03c0.01-0.03,0.03-0.04,0.04-0.06c0,0,0,0,0-0.01l0.01-0.03c0.03-0.03,0.04-0.06,0.05-0.09
			c0.01-0.03,0.03-0.06,0.04-0.09l0.01-0.01c0-0.01,0.01-0.03,0.01-0.03l0,0c0-0.01,0-0.01,0.01-0.03c0-0.03,0.01-0.04,0.01-0.06
			c0-0.03,0.01-0.03,0.01-0.04c0-0.01,0-0.03,0-0.03c0-0.03,0-0.04,0-0.05v-0.03c0-0.03,0-0.04,0-0.06c0-0.01,0-0.01,0-0.03
			c0-0.01,0-0.03,0-0.03c0-0.01,0-0.01,0-0.03v-0.01c0-0.03-0.01-0.04-0.03-0.06c-0.01-0.03-0.03-0.04-0.04-0.06l0,0
			C68.29,130.46,68.05,130.38,67.78,130.38z"/>
		<path id="Layer_00000119076910078870759520000012666720036566927009_" fill="#41E6AF" d="M68.7,131.29c0,0.03-0.01,0.04-0.03,0.06
			l0,0c0,0.01,0,0.01-0.01,0.03l0,0c-0.01,0.04-0.03,0.06-0.05,0.1l0,0l0,0c-0.14,0.26-0.37,0.52-0.64,0.72
			c-0.04,0.03-0.08,0.05-0.11,0.08c-0.04,0.03-0.08,0.05-0.11,0.06h-0.01l0,0c-0.01,0.01-0.03,0.01-0.04,0.03
			c-0.03,0.01-0.04,0.03-0.06,0.04h-0.01c-0.01,0-0.03,0.01-0.04,0.01c-0.03,0.01-0.05,0.03-0.08,0.03l-0.03,0.01c0,0,0,0-0.01,0
			s-0.03,0.01-0.04,0.01c-0.03,0.01-0.05,0.01-0.08,0.03l-0.03,0.01h-0.01c-0.03,0.01-0.05,0.01-0.08,0.03
			c-0.01,0-0.03,0.01-0.05,0.01l0,0l0,0h-0.01c-0.03,0-0.05,0.01-0.06,0.01s-0.04,0-0.05,0.01h-0.01c-0.01,0-0.03,0-0.04,0.01
			c-0.01,0-0.03,0-0.04,0c-0.04,0-0.09,0.01-0.13,0.01h-0.01c-0.04,0-0.08,0-0.11,0c-0.01,0-0.03,0-0.03,0h-0.01
			c-0.03,0-0.05,0-0.08-0.01c-0.01,0-0.03,0-0.04-0.01c-0.03,0-0.05-0.01-0.08-0.01c-0.01,0-0.03-0.01-0.04-0.01l0.69,1.12
			l1.49-0.01l0.77-1.36l-0.69-1.13c0,0.01,0,0.03-0.01,0.04c0,0.01,0,0.01,0,0.03c0,0.01-0.01,0.03-0.01,0.05
			C68.7,131.28,68.7,131.29,68.7,131.29z"/>
		<path id="Layer_00000099622504926186900340000000883162138198408351_" fill="#41E6AF" d="M76.59,135.39
			c0.08,0.11,0.13,0.25,0.16,0.42s0.06,0.34,0.06,0.52c0,0.5-0.16,0.96-0.44,1.18c-0.13,0.1-0.26,0.15-0.4,0.13l0,0
			c-0.03,0-0.05-0.01-0.08-0.01c-0.01,0-0.03-0.01-0.04-0.01s-0.03-0.01-0.04-0.01c-0.03-0.01-0.05-0.03-0.06-0.04l0,0
			c-0.25-0.16-0.44-0.53-0.49-0.97v-0.01c0-0.04-0.01-0.08-0.01-0.13c0-0.04,0-0.08,0-0.11c0-0.05,0-0.09,0-0.14
			c0-0.04,0-0.08,0.01-0.11v-0.03c0-0.03,0.01-0.06,0.01-0.09c0-0.01,0-0.03,0-0.04c0-0.03,0.01-0.05,0.01-0.08
			c0-0.03,0.01-0.04,0.01-0.06c0.01-0.03,0.01-0.05,0.03-0.08c0-0.01,0.01-0.03,0.01-0.04c0.01-0.03,0.01-0.05,0.03-0.08l0.01-0.04
			c0.01-0.03,0.03-0.04,0.03-0.06c0,0,0,0,0-0.01l0.01-0.03c0.01-0.04,0.04-0.06,0.05-0.09c0.01-0.03,0.04-0.05,0.05-0.08l0.01-0.01
			c0.01-0.01,0.01-0.01,0.03-0.03l0,0c0.01-0.01,0.01-0.01,0.01-0.03c0.01-0.01,0.03-0.03,0.04-0.04c0.01-0.01,0.03-0.03,0.03-0.03
			c0.01-0.01,0.01-0.01,0.03-0.03c0.01-0.01,0.03-0.03,0.04-0.04l0.03-0.01c0.01-0.01,0.04-0.03,0.05-0.04c0.01,0,0.01,0,0.03-0.01
			c0.01,0,0.03-0.01,0.03-0.01s0.01,0,0.01-0.01h0.01c0.03,0,0.04-0.01,0.06-0.01c0.03,0,0.05,0,0.08,0l0,0
			C76.25,135,76.44,135.15,76.59,135.39z"/>
		<path id="Layer_00000119818770316532775330000001220617743784759214_" fill="#41E6AF" d="M75.32,135.09
			c-0.01,0.01-0.03,0.04-0.04,0.05l0,0c0,0.01-0.01,0.01-0.01,0.03l0,0c-0.03,0.03-0.04,0.06-0.06,0.09l0,0l0,0
			c-0.16,0.25-0.25,0.58-0.28,0.92c0,0.05,0,0.09,0,0.14c0,0.04,0,0.09,0,0.13v0.01l0,0c0,0.01,0,0.04,0,0.05
			c0,0.03,0,0.05,0.01,0.08v0.01c0,0.01,0,0.03,0,0.04c0,0.03,0.01,0.05,0.01,0.08v0.03c0,0,0,0,0,0.01c0,0.01,0,0.03,0.01,0.04
			c0,0.03,0.01,0.05,0.01,0.08l0.01,0.03v0.01c0,0.03,0.01,0.05,0.03,0.08c0,0.01,0.01,0.03,0.01,0.04l0,0l0,0v0.01
			c0.01,0.03,0.01,0.04,0.03,0.06c0,0.01,0.01,0.03,0.03,0.05v0.01c0,0.01,0.01,0.03,0.01,0.04c0.01,0.01,0.01,0.03,0.01,0.03
			c0.01,0.04,0.04,0.08,0.06,0.11l0.01,0.01c0.03,0.04,0.04,0.06,0.06,0.09c0,0.01,0.01,0.01,0.01,0.03l0.01,0.01
			c0.01,0.03,0.04,0.04,0.05,0.06c0.01,0.01,0.01,0.03,0.03,0.03c0.03,0.03,0.04,0.04,0.05,0.06c0.01,0.01,0.03,0.01,0.03,0.03H74.1
			l-0.77-1.27l0.76-1.36h1.32c-0.01,0.01-0.01,0.01-0.03,0.03l-0.01,0.01C75.36,135.05,75.35,135.06,75.32,135.09
			C75.33,135.09,75.32,135.09,75.32,135.09z"/>
		<path id="Layer_00000024000991232483426480000006635955965622010298_" fill="#41E6AF" d="M67.78,142.33
			c-0.14,0-0.29-0.03-0.44-0.08c-0.16-0.05-0.33-0.13-0.48-0.21c-0.43-0.26-0.73-0.64-0.78-0.99c-0.03-0.16,0.01-0.3,0.1-0.4l0,0
			c0.01-0.03,0.04-0.04,0.05-0.06c0.01-0.01,0.03-0.01,0.04-0.03c0.01-0.01,0.01-0.01,0.03-0.03c0.03-0.01,0.04-0.03,0.06-0.04l0,0
			c0.26-0.13,0.68-0.1,1.08,0.09l0.01,0.01c0.04,0.01,0.08,0.04,0.11,0.05c0.04,0.01,0.06,0.04,0.1,0.06
			c0.04,0.03,0.08,0.05,0.11,0.08c0.04,0.03,0.06,0.05,0.1,0.08l0.03,0.01c0.03,0.03,0.05,0.04,0.08,0.06
			c0.01,0.01,0.01,0.01,0.03,0.03c0.03,0.01,0.04,0.04,0.05,0.05c0.01,0.01,0.03,0.03,0.04,0.05c0.01,0.03,0.04,0.04,0.05,0.06
			c0.01,0.01,0.01,0.01,0.03,0.03c0.01,0.03,0.04,0.04,0.05,0.06l0.03,0.03c0.01,0.03,0.03,0.04,0.04,0.06v0.01l0.01,0.03
			c0.03,0.03,0.04,0.06,0.05,0.09c0.01,0.03,0.03,0.06,0.04,0.09l0.01,0.01c0,0.01,0.01,0.03,0.01,0.03l0,0c0,0.01,0,0.01,0.01,0.03
			c0,0.03,0.01,0.04,0.01,0.06c0,0.03,0.01,0.03,0.01,0.04c0,0.01,0,0.03,0,0.03c0,0.03,0,0.04,0,0.05v0.03c0,0.03,0,0.04,0,0.06
			c0,0.01,0,0.01,0,0.03c0,0.01,0,0.03,0,0.03c0,0.01,0,0.01,0,0.03v0.01c0,0.03-0.01,0.04-0.03,0.06
			c-0.01,0.03-0.03,0.04-0.04,0.06l0,0C68.29,142.24,68.05,142.34,67.78,142.33z"/>
		<path id="Layer_00000039129552413664431180000011965960607563720071_" fill="#41E6AF" d="M68.7,141.41c0-0.03-0.01-0.04-0.03-0.06
			l0,0c0-0.01,0-0.01-0.01-0.03l0,0c-0.01-0.04-0.03-0.06-0.05-0.1l0,0c-0.14-0.26-0.37-0.52-0.64-0.72
			c-0.04-0.03-0.08-0.05-0.11-0.08c-0.04-0.03-0.08-0.05-0.11-0.06h-0.01l0,0c-0.01-0.01-0.03-0.01-0.04-0.03
			c-0.03-0.01-0.04-0.03-0.06-0.04h-0.01c-0.01,0-0.03-0.01-0.04-0.01c-0.03-0.01-0.05-0.03-0.08-0.03l-0.03-0.01c0,0,0,0-0.01,0
			s-0.03-0.01-0.04-0.01c-0.03-0.01-0.05-0.01-0.08-0.03l-0.03-0.01h-0.01c-0.03-0.01-0.05-0.01-0.08-0.03
			c-0.01,0-0.03-0.01-0.05-0.01l0,0l0,0h-0.01c-0.03,0-0.05-0.01-0.06-0.01s-0.04,0-0.05-0.01h-0.01c-0.01,0-0.03,0-0.04-0.01
			c-0.01,0-0.03,0-0.04,0c-0.04,0-0.09-0.01-0.13-0.01h-0.01c-0.04,0-0.08,0-0.11,0c-0.01,0-0.03,0-0.03,0h-0.01
			c-0.03,0-0.05,0-0.08,0.01c-0.01,0-0.03,0-0.04,0.01c-0.03,0-0.05,0.01-0.08,0.01c-0.01,0-0.03,0.01-0.04,0.01l0.69-1.12
			l1.49,0.01l0.77,1.36l-0.69,1.13c0-0.01,0-0.03-0.01-0.04c0-0.01,0-0.01,0-0.03c0-0.01-0.01-0.03-0.01-0.05
			C68.7,141.42,68.7,141.41,68.7,141.41z"/>
		<path id="Layer_00000042017688687211609500000004854900660477279380_" fill="#41E6AF" d="M71.33,142.99l-3.63-0.01l-0.55,1.05
			l-0.38,0.72l0.97-0.01v0.01l5.54,0.01l0.55-0.96l-3.99-6.84l-7.92-0.01l-0.5,0.88l0.1,0.16h-0.01l3.15,5.54l1.05-1.7l-1.84-3.12
			h4.97L71.33,142.99z"/>
	</g>
	<path fill="#001939" d="M168.45,212.64c6.97-6.07,25.14-25.32,54.44,0c4.79,5.34-2.35,11.3-4.88,9.31
		c-9.77-8.86-25.14-14.11-42.41,0C170.26,224.67,166.56,214.29,168.45,212.64z"/>
	<path fill="#001939" d="M277.95,213.46c6.97-6.07,26.05-27.62,55.35-2.3c4.79,5.34-3.44,12.06-5.97,10.07
		c-9.77-8.86-31.83-14.02-42.77-0.09C279.22,223.86,276.06,215.11,277.95,213.46z"/>
	<path fill="#F5D39F" d="M350.56,137.95c-0.46-15.55-5.45-56.07-19.19-60.77c-13.74-4.7-33.1,28.21-36.89,36.35s0.23,8.56,7.42,6.33
		c10.22-3.16,18.81,2.71,22.61,7.87c2.06,2.8,12.12,17.81,19.17,18.36C350.72,146.63,350.66,141.19,350.56,137.95z"/>
	<path fill="#F5D39F" d="M150.88,137.95c0.46-15.55,5.45-56.07,19.19-60.77s33.1,28.21,36.89,36.35s-0.23,8.56-7.42,6.33
		c-10.22-3.16-18.81,2.71-22.61,7.87c-2.06,2.8-12.12,17.81-19.17,18.36C150.72,146.63,150.79,141.19,150.88,137.95z"/>
	
		<ellipse transform="matrix(0.9655 -0.2606 0.2606 0.9655 -34.5981 79.8738)" fill="#F5D39F" cx="283.92" cy="170.41" rx="16.19" ry="12.39"/>
	
		<ellipse transform="matrix(0.2606 -0.9655 0.9655 0.2606 -3.2653 336.5664)" fill="#F5D39F" cx="218.09" cy="170.41" rx="12.39" ry="16.19"/>
	
		<ellipse transform="matrix(0.2379 -0.9713 0.9713 0.2379 -117.0497 335.282)" fill="#E66B80" cx="155.12" cy="242.23" rx="16.46" ry="27.66"/>
	
		<ellipse transform="matrix(0.9713 -0.2379 0.2379 0.9713 -47.6463 89.5693)" fill="#E66B80" cx="347.34" cy="242.23" rx="27.66" ry="16.46"/>
	<path fill="#001939" d="M243.23,262.97c-7.32,6.51-20.75,8-25.5-2.58c-0.95-2.08-6.65,0-5.43,2.58c1.22,2.58,5.8,10.99,15.38,11.26
		c-0.39,10.72,9.65,24.39,24.16,23.94s24.35-14.85,24.08-24.08c3.93-0.27,11.87-2.78,14.78-11.12c0.88-1.83-3.8-3.8-5.29-2.31
		c-1.49,1.49-4.2,7.73-10.31,7.87c-6.1,0.14-9.77-1.63-13.7-4.75c8.41-5.47,18.18-14.11,17.77-21.23
		c-0.41-7.12-10.95-14.85-27.11-14.72c-16.16,0.14-28.1,5.16-28.64,14.72C222.89,252.12,239.71,261.07,243.23,262.97z"/>
	<path fill="#E66B80" d="M233.54,274.77c-0.25,6.56,7.37,17.54,17.94,17.27c10.57-0.27,18.07-10.22,17.84-17.18
		c-7.6,0.05-17.83-7.6-17.84-10.85C251.48,264.01,246.49,274.45,233.54,274.77z"/>
	<path fill="none" stroke="#001939" stroke-width="16" stroke-miterlimit="10" d="M390.84,274.65c18.14,14.5,42.38,49.76,1.32,80.87
		"/>
</g>
</svg>
