<?xml version="1.0" encoding="utf-8"?>
<!-- Generator: Adobe Illustrator 25.4.1, SVG Export Plug-In . SVG Version: 6.00 Build 0)  -->
<svg version="1.1" id="Layer_1" xmlns="http://www.w3.org/2000/svg" xmlns:xlink="http://www.w3.org/1999/xlink" x="0px" y="0px"
	 viewBox="0 0 512 512" style="enable-background:new 0 0 512 512;" xml:space="preserve">
<style type="text/css">
	.st0{fill:#F19F20;}
	.st1{fill:#F5D39F;}
	.st2{fill:#006B56;}
	.st3{fill:#001939;}
	.st4{fill:#865100;}
	.st5{fill:#FFFFFF;}
	.st6{fill:#41E6AF;}
	.st7{fill:#E66B80;}
</style>
<polygon class="st0" points="310.3,371.2 423,282.7 453.7,330.3 422.5,374.3 422.3,421.9 390.3,469 371.2,478.8 314.7,402.8 "/>
<path class="st1" d="M81.4,169l342.7,5.5l9.3,54l-32,84l-52.9,49.2l-36,6.2H186.3l-90.2-55.5c0,0-29.5-74.2-29.2-76.4
	C67.2,233.9,81.4,169,81.4,169z"/>
<path class="st0" d="M77.5,173.4c2.7,20.9,16.4,62.5,54.6,65.3s63.4-9.5,69.1-13.5s28.7-23.6,46.4-22.4c17.8,1.1,30.4,9.1,40,17.8
	s45.7,22.2,72.6,17.1c27-5.1,64.5-24.2,56.2-78.2c-16.5-30.4-22.4-29.6-22.4-29.6l-1.3-70l-22.7-31.8l-27.8-17.8l-34,17.5l-22.2,40
	l-70.4-2.7l-32.9-46l-39.4-6.5l-25.7,28.9L105.7,103l-5.8,31.3L77.5,173.4z"/>
<path class="st2" d="M193.2,369.7c1.6-10.4,8.2-25.3,51.3-23.9s66.4-0.1,68.9,31.2s-13.6,47.3-13.6,47.3v38.2l10.4,16.4l-10.8,17.7
	l-66.1,6.5l-41.8-10L195,467l9.3-29.8l-16.2-31.6L193.2,369.7z"/>
<path class="st1" d="M329.5,397.5c19.1,8.4,46.2,30.5,53.6,64.3s-66,16.7-66,16.7l-20.7-22.7l6.7-39.3l19.1-22.5L329.5,397.5z"/>
<polygon class="st0" points="100.3,314 135.6,346 189.4,372.7 190.3,407 116.2,474.2 79.7,432 73.8,380.3 "/>
<path class="st1" d="M115.9,462.5c3.8-16.5,19.3-53.1,52.7-65.6s28.8,69.3,28.8,69.3L160.2,486l-44.8-12.8L115.9,462.5z"/>
<path class="st3" d="M304.6,382.6v-11.4c0-8.1-5.7-17.6-21.8-17.6c-11.3,0-25.4,0.1-37.9,0.1c-10.8,0-20.8,0.1-27.8,0.1
	c-13.7,0.4-19.2,5.4-19.7,17.6l-0.4,10.1l-9.8-2.7c-19.8-5.5-86.9-28.8-116.8-98.8c-27.2-63.6-2.1-117.9,24.6-152.9
	C94.7,80.4,106.5,4.3,154,2.3c39-1.7,60.5,39.6,67.3,55.4c13.6-1.2,44.2-2.9,60.2-0.6c10.7-20.4,33.6-55.7,63.2-54.8
	c10.7,0.3,21.7,6.9,31.7,18.9c17.8,21.5,34.1,63.1,28.9,105.1c14.5,16.7,26.3,40.3,32,64.2c7.9,33,4.2,65.4-10.7,93.7
	c-36.8,70.2-78.9,83.8-104.1,92c-2.7,0.9-5.2,1.7-7.4,2.5L304.6,382.6z M156.1,18.3c-0.5,0-1,0-1.5,0c-14.8,0.6-26.3,13.7-34.3,38.9
	c-6.3,19.9-9.7,47.1-9.2,72.6l0.1,2.9l-1.8,2.2c-24.7,31.5-48.9,81.2-24.3,139c23.7,55.5,73.5,78.7,97.7,87
	c3-10.8,11.5-22.3,33.8-22.9l0.2,0c6.9,0,17,0,27.8-0.1c12.5-0.1,26.7-0.1,38-0.1c19.5,0,31.7,10.5,36,23
	c24.3-7.9,60.5-20.4,93.8-83.9c29.3-55.7,2.4-116.9-21.4-142.4l-2.7-2.8l0.6-3.8c5.7-36.7-8.2-76.2-24.9-96.3
	c-6.9-8.3-14-13-19.9-13.2c-0.2,0-0.4,0-0.6,0c-18.9,0-38.5,26.5-50.6,51.5l-3.4,7l-7.1-3.2c-7.2-3-55.4-1-65.2,0.6l-6.7,1.1
	l-2.2-6.4C208.3,68.2,190.4,18.3,156.1,18.3z"/>
<rect x="181.4" y="371.2" class="st3" width="16" height="37.3"/>
<rect x="155.2" y="367.1" transform="matrix(0.1858 -0.9826 0.9826 0.1858 -232.991 469.0768)" class="st3" width="22.8" height="16"/>
<path class="st3" d="M317.8,447.9c10.8-9,15.9-15.3,14.2-18.8c-1.9-3.9-24.6,6.8-29.2,13.6c-4.7,6.8-0.3,16.8-0.3,16.8
	S312.8,452.1,317.8,447.9z"/>
<path class="st3" d="M333,479.3c10.8-9,16.5-15.3,14.8-18.8c-1.9-3.9-23.4,8.2-28,15c-4.7,6.8,5.9,8.2,5.9,8.2S328,483.5,333,479.3z
	"/>
<path class="st3" d="M184.9,447.9c-10.8-9-15.9-15.3-14.2-18.8c1.9-3.9,24.6,6.8,29.2,13.6c4.7,6.8,0.3,16.8,0.3,16.8
	S189.9,452.1,184.9,447.9z"/>
<path class="st3" d="M169.7,479.3c-10.8-9-16.5-15.3-14.8-18.8c1.9-3.9,23.4,8.2,28,15c4.7,6.8-5.9,8.2-5.9,8.2
	S174.7,483.5,169.7,479.3z"/>
<rect x="324.1" y="365" transform="matrix(0.9893 -0.1457 0.1457 0.9893 -51.0001 52.3938)" class="st3" width="16" height="18.5"/>
<rect x="304.6" y="371.2" class="st3" width="16" height="28.7"/>
<path class="st4" d="M249.4,361.8c25.3,0,41,3.4,40.8,6.2s-22.8,6.3-40.8,6.3c-18,0-39-2.9-39-6.2
	C210.6,364.7,224.1,361.8,249.4,361.8z"/>
<path class="st3" d="M249.6,513.2c-0.5,0-1.1,0-1.6,0c-27.3-0.2-45.5-4.6-55.7-13.6c-9.9-8.7-9.9-19.5-9.9-25.2v-0.2h16v0.2
	c0,5.6,0.3,9.6,4.5,13.2c4.9,4.3,16.7,9.4,45.2,9.6c0.6,0,1.1,0,1.6,0c35.8,0,54.2-6.8,54.9-20.2l16,0.8
	C319.4,501.6,296.2,513.2,249.6,513.2z"/>
<path class="st3" d="M156.8,491.6c-5.4,0-11-0.4-16.9-1.3c-40.1-6-69.2-49.6-71.2-86.6c-1.7-29.9,10.7-70.4,22.8-95.3l14.4,7
	c-11.6,23.9-22.7,61.6-21.2,87.4c1.7,30,25.8,66.8,57.7,71.6c18.9,2.9,34.3,0.3,43.4-7.1c5.4-4.4,8.4-10.4,8.8-17.9
	c1.1-19.3-3.6-25.6-12.1-37.2c-0.9-1.3-1.9-2.6-2.9-3.9c-10.7-15.1-34.2-27.1-42.8-38.3l0,0c4.2,2,42.1,6.7,55.8,29
	c0.9,1.4,1.9,2.6,2.8,3.8c9.2,12.6,16.5,22.5,15.2,47.5c-0.6,12-5.7,22.2-14.6,29.5C186.1,487.6,172.8,491.6,156.8,491.6z"/>
<path class="st3" d="M348.1,491.8c-17.3,0-29.7-2.5-38.9-8c-12.1-7.2-18.7-19.5-19.6-36.4c-1.7-32.8,22.1-56.8,28.5-61.4
	c3.2-2.3,24-15.5,44.4-14.3l0,0c-14.8,10.7-32.9,25.9-35.1,27.4c-0.2,0.1-23.2,19.5-21.8,47.5c1.1,21.3,12.6,29.2,42.5,29.2
	c26.6,0,55-27.7,64.7-53.7c8.2-21.6-7.9-81.1-19.2-108.3l14.8-6.1c6.7,16.2,31.2,88.6,19.3,120.1C416,459.3,382.9,491.8,348.1,491.8
	z"/>
<path class="st5" d="M270.8,356c-1.2,0-2.5-0.6-3.2-1.6c-0.4-0.5-0.7-0.9-1.1-1.4c-1.7-2-3.7-4.5-3.8-9.5c-0.1-6.5,4.2-9.5,6.4-11.1
	l0.4-0.3c1.9-1.4,2.1-1.6,2-3c-0.1-2.6-2.1-5-3.3-6.2c-1.5-1.6-1.5-4.1,0.1-5.7c1.6-1.5,4.1-1.5,5.7,0.1c2.4,2.5,5.3,6.5,5.5,11.4
	c0.3,5.8-3.1,8.3-5.3,9.9l-0.4,0.3c-2,1.4-3.1,2.3-3.1,4.5c0,2.3,0.6,2.9,2,4.6c0.4,0.5,0.9,1.1,1.4,1.8c1.3,1.8,0.9,4.3-0.9,5.6
	C272.4,355.8,271.6,356,270.8,356z"/>
<path class="st5" d="M248.9,356c-1.2,0-2.5-0.6-3.2-1.6c-0.4-0.5-0.7-0.9-1.1-1.4c-1.7-2-3.7-4.5-3.8-9.5c-0.1-6.5,4.2-9.5,6.4-11.1
	l0.4-0.3c1.9-1.4,2.1-1.6,2-3c-0.1-2.6-2.1-5-3.3-6.2c-1.5-1.6-1.5-4.1,0.1-5.7c1.6-1.5,4.1-1.5,5.7,0.1c2.4,2.5,5.3,6.5,5.5,11.4
	c0.3,5.8-3.1,8.2-5.3,9.9l-0.4,0.3c-2,1.4-3.1,2.3-3.1,4.5c0,2.3,0.6,2.9,2,4.6c0.4,0.5,0.9,1.1,1.4,1.8c1.3,1.8,0.9,4.3-0.9,5.6
	C250.6,355.8,249.7,356,248.9,356z"/>
<path class="st5" d="M227.2,356c-1.2,0-2.5-0.6-3.2-1.6c-0.4-0.5-0.7-0.9-1.1-1.4c-1.7-2-3.7-4.5-3.8-9.5c-0.1-6.5,4.2-9.5,6.4-11.1
	l0.4-0.3c1.9-1.4,2.1-1.6,2-3c-0.1-2.6-2.1-5-3.3-6.2c-1.5-1.6-1.5-4.1,0.1-5.7c1.6-1.5,4.1-1.5,5.7,0.1c2.4,2.5,5.3,6.5,5.5,11.4
	c0.3,5.8-3.1,8.2-5.3,9.9l-0.4,0.3c-2,1.4-3.1,2.3-3.1,4.5c0,2.3,0.6,2.9,2,4.6c0.4,0.5,0.9,1.1,1.4,1.8c1.3,1.8,0.9,4.3-0.9,5.6
	C228.8,355.8,228,356,227.2,356z"/>
<g id="Layer_00000069397661234713557480000005247992563010011825_" transform="matrix(3.153802, 0, 0, 3.153802, 29.444178, -32.559643)">
	<path id="Layer" class="st6" d="M80.6,145l-0.6-1l0,0l-3.4-5.7h0l-0.1-0.2h-1.2l-4.8,8.5l4.9,8.4h1.2l0-0.1l4-6.9h-2.5l-2.2,3.8
		l-3.1-5.3l3-5.3l2.2,3.8L80.6,145z"/>
	<path id="Layer_00000139984825809160137150000017292457692443923873_" class="st6" d="M61.7,143.6l2.3-3.9l-0.8-1.2l0,0l-0.5-0.9
		l-3.9,6.8l0,0l-0.1,0.2l0.6,1.1h9.7l4.9-8.4l-0.7-1.2l-6.8,0h-0.1l-1.1,0l0.6,1.1l0,0l0.6,1.1l4.5,0l-3.1,5.3L61.7,143.6
		L61.7,143.6z"/>
	<path id="Layer_00000158730959777818760760000018117138280239196603_" class="st6" d="M66.5,139.1c-0.2,0-0.4,0-0.5,0.1
		c-0.2,0.1-0.4,0.1-0.6,0.3c-0.5,0.3-0.9,0.8-1,1.2c0,0.2,0,0.4,0.1,0.5l0,0c0,0,0.1,0.1,0.1,0.1c0,0,0,0,0.1,0c0,0,0,0,0,0
		c0,0,0.1,0,0.1,0.1l0,0c0.3,0.1,0.8,0.1,1.3-0.1l0,0c0.1,0,0.1-0.1,0.1-0.1c0.1,0,0.1-0.1,0.1-0.1c0.1,0,0.1-0.1,0.1-0.1
		s0.1-0.1,0.1-0.1l0,0c0,0,0.1-0.1,0.1-0.1c0,0,0,0,0,0c0,0,0.1-0.1,0.1-0.1c0,0,0,0,0.1-0.1s0.1-0.1,0.1-0.1c0,0,0,0,0,0
		c0,0,0.1-0.1,0.1-0.1l0,0c0,0,0-0.1,0.1-0.1c0,0,0,0,0,0l0,0c0,0,0.1-0.1,0.1-0.1s0-0.1,0.1-0.1l0,0c0,0,0,0,0,0l0,0c0,0,0,0,0,0
		c0,0,0-0.1,0-0.1s0,0,0-0.1s0,0,0,0c0,0,0-0.1,0-0.1v0c0,0,0-0.1,0-0.1c0,0,0,0,0,0c0,0,0,0,0,0c0,0,0,0,0,0v0c0,0,0-0.1,0-0.1
		c0,0,0-0.1-0.1-0.1l0,0C67.2,139.2,66.9,139.1,66.5,139.1z"/>
	<path id="Layer_00000119076910078870759520000012666720036566927009_" class="st6" d="M67.7,140.3
		C67.7,140.3,67.7,140.3,67.7,140.3L67.7,140.3c0,0.1,0,0.1,0,0.1l0,0c0,0.1,0,0.1-0.1,0.1l0,0l0,0c-0.2,0.3-0.4,0.6-0.8,0.9
		c-0.1,0-0.1,0.1-0.1,0.1s-0.1,0.1-0.1,0.1h0l0,0c0,0,0,0-0.1,0c0,0-0.1,0-0.1,0.1h0c0,0,0,0-0.1,0c0,0-0.1,0-0.1,0l0,0c0,0,0,0,0,0
		s0,0-0.1,0c0,0-0.1,0-0.1,0l0,0h0c0,0-0.1,0-0.1,0c0,0,0,0-0.1,0l0,0l0,0h0c0,0-0.1,0-0.1,0s-0.1,0-0.1,0h0c0,0,0,0-0.1,0
		c0,0,0,0-0.1,0c-0.1,0-0.1,0-0.2,0h0c-0.1,0-0.1,0-0.1,0c0,0,0,0,0,0h0c0,0-0.1,0-0.1,0c0,0,0,0-0.1,0c0,0-0.1,0-0.1,0
		c0,0,0,0-0.1,0l0.8,1.4l1.8,0l0.9-1.7l-0.8-1.4C67.7,140.1,67.7,140.2,67.7,140.3C67.7,140.2,67.7,140.2,67.7,140.3
		C67.7,140.2,67.6,140.2,67.7,140.3C67.7,140.3,67.7,140.3,67.7,140.3z"/>
	<path id="Layer_00000099622504926186900340000000883162138198408351_" class="st6" d="M77.4,145.3c0.1,0.1,0.2,0.3,0.2,0.5
		c0.1,0.2,0.1,0.4,0.1,0.6c0,0.6-0.2,1.2-0.5,1.4c-0.2,0.1-0.3,0.2-0.5,0.1l0,0c0,0-0.1,0-0.1,0c0,0,0,0-0.1,0s0,0-0.1,0
		c0,0-0.1,0-0.1-0.1l0,0c-0.3-0.2-0.5-0.6-0.6-1.2v0c0-0.1,0-0.1,0-0.1c0-0.1,0-0.1,0-0.1c0-0.1,0-0.1,0-0.2c0-0.1,0-0.1,0-0.1v0
		c0,0,0-0.1,0-0.1c0,0,0,0,0-0.1c0,0,0-0.1,0-0.1s0-0.1,0-0.1c0,0,0-0.1,0-0.1c0,0,0,0,0-0.1c0,0,0-0.1,0-0.1l0-0.1c0,0,0-0.1,0-0.1
		c0,0,0,0,0,0l0,0c0-0.1,0.1-0.1,0.1-0.1c0,0,0.1-0.1,0.1-0.1l0,0c0,0,0,0,0,0l0,0c0,0,0,0,0,0c0,0,0,0,0.1-0.1s0,0,0,0c0,0,0,0,0,0
		s0,0,0.1-0.1l0,0c0,0,0.1,0,0.1-0.1c0,0,0,0,0,0c0,0,0,0,0,0s0,0,0,0h0c0,0,0.1,0,0.1,0s0.1,0,0.1,0l0,0
		C76.9,144.8,77.2,145,77.4,145.3z"/>
	<path id="Layer_00000119818770316532775330000001220617743784759214_" class="st6" d="M75.8,144.9C75.8,144.9,75.8,145,75.8,144.9
		L75.8,144.9C75.8,145,75.7,145,75.8,144.9L75.8,144.9c-0.1,0.1-0.1,0.2-0.2,0.2l0,0l0,0c-0.2,0.3-0.3,0.7-0.3,1.1
		c0,0.1,0,0.1,0,0.2c0,0.1,0,0.1,0,0.1v0l0,0c0,0,0,0.1,0,0.1c0,0,0,0.1,0,0.1v0c0,0,0,0,0,0.1c0,0,0,0.1,0,0.1v0c0,0,0,0,0,0
		s0,0,0,0.1c0,0,0,0.1,0,0.1l0,0v0c0,0,0,0.1,0,0.1c0,0,0,0,0,0.1l0,0l0,0v0c0,0,0,0.1,0,0.1c0,0,0,0,0,0.1v0c0,0,0,0,0,0.1
		c0,0,0,0,0,0c0,0.1,0.1,0.1,0.1,0.1l0,0c0,0.1,0.1,0.1,0.1,0.1c0,0,0,0,0,0l0,0c0,0,0.1,0.1,0.1,0.1c0,0,0,0,0,0
		c0,0,0.1,0.1,0.1,0.1c0,0,0,0,0,0h-1.6l-0.9-1.6l0.9-1.7H76c0,0,0,0,0,0L75.8,144.9C75.8,144.9,75.8,144.9,75.8,144.9
		C75.8,144.9,75.8,144.9,75.8,144.9z"/>
	<path id="Layer_00000024000991232483426480000006635955965622010298_" class="st6" d="M66.5,153.8c-0.2,0-0.4,0-0.5-0.1
		c-0.2-0.1-0.4-0.1-0.6-0.3c-0.5-0.3-0.9-0.8-1-1.2c0-0.2,0-0.4,0.1-0.5l0,0c0,0,0.1-0.1,0.1-0.1c0,0,0,0,0.1,0c0,0,0,0,0,0
		c0,0,0.1,0,0.1-0.1l0,0c0.3-0.1,0.8-0.1,1.3,0.1l0,0c0.1,0,0.1,0.1,0.1,0.1c0.1,0,0.1,0.1,0.1,0.1c0.1,0,0.1,0.1,0.1,0.1
		s0.1,0.1,0.1,0.1l0,0c0,0,0.1,0.1,0.1,0.1c0,0,0,0,0,0c0,0,0.1,0.1,0.1,0.1s0,0,0.1,0.1s0.1,0.1,0.1,0.1c0,0,0,0,0,0
		c0,0,0.1,0.1,0.1,0.1l0,0c0,0,0,0.1,0.1,0.1v0l0,0c0,0,0.1,0.1,0.1,0.1s0,0.1,0.1,0.1l0,0c0,0,0,0,0,0l0,0c0,0,0,0,0,0
		c0,0,0,0.1,0,0.1s0,0,0,0.1s0,0,0,0c0,0,0,0.1,0,0.1v0c0,0,0,0.1,0,0.1c0,0,0,0,0,0s0,0,0,0c0,0,0,0,0,0v0c0,0,0,0.1,0,0.1
		c0,0,0,0.1-0.1,0.1l0,0C67.2,153.7,66.9,153.8,66.5,153.8z"/>
	<path id="Layer_00000039129552413664431180000011965960607563720071_" class="st6" d="M67.7,152.7
		C67.7,152.7,67.7,152.6,67.7,152.7L67.7,152.7c0-0.1,0-0.1,0-0.1l0,0c0-0.1,0-0.1-0.1-0.1l0,0c-0.2-0.3-0.4-0.6-0.8-0.9
		c-0.1,0-0.1-0.1-0.1-0.1s-0.1-0.1-0.1-0.1h0l0,0c0,0,0,0-0.1,0c0,0-0.1,0-0.1-0.1h0c0,0,0,0-0.1,0c0,0-0.1,0-0.1,0l0,0c0,0,0,0,0,0
		s0,0-0.1,0c0,0-0.1,0-0.1,0l0,0h0c0,0-0.1,0-0.1,0c0,0,0,0-0.1,0l0,0l0,0h0c0,0-0.1,0-0.1,0s-0.1,0-0.1,0h0c0,0,0,0-0.1,0
		c0,0,0,0-0.1,0c-0.1,0-0.1,0-0.2,0h0c-0.1,0-0.1,0-0.1,0c0,0,0,0,0,0h0c0,0-0.1,0-0.1,0c0,0,0,0-0.1,0c0,0-0.1,0-0.1,0
		c0,0,0,0-0.1,0l0.8-1.4l1.8,0l0.9,1.7l-0.8,1.4C67.7,152.8,67.7,152.8,67.7,152.7C67.7,152.8,67.7,152.8,67.7,152.7
		C67.7,152.7,67.6,152.7,67.7,152.7C67.7,152.7,67.7,152.7,67.7,152.7z"/>
	<path id="Layer_00000042017688687211609500000004854900660477279380_" class="st6" d="M70.9,154.6l-4.5,0l-0.7,1.3l-0.5,0.9l1.2,0
		v0l6.8,0l0.7-1.2l-4.9-8.4l-9.7,0l-0.6,1.1l0.1,0.2h0l3.9,6.8l1.3-2.1l-2.3-3.8h6.1L70.9,154.6z"/>
</g>
<path class="st3" d="M147.4,202.3c8.6-7.5,30.9-31.1,66.9,0c5.9,6.6-2.9,13.9-6,11.4c-12-10.9-30.9-17.3-52.1,0
	C149.7,217.1,145.1,204.4,147.4,202.3z"/>
<path class="st3" d="M282,203.3c8.6-7.5,32-33.9,68-2.8c5.9,6.6-4.2,14.8-7.3,12.4c-12-10.9-39.1-17.2-52.6-0.1
	C283.6,216.1,279.7,205.4,282,203.3z"/>
<path class="st1" d="M371.2,110.6c-0.6-19.1-6.7-68.9-23.6-74.7S307,70.6,302.3,80.6s0.3,10.5,9.1,7.8c12.6-3.9,23.1,3.3,27.8,9.7
	c2.5,3.4,14.9,21.9,23.6,22.6C371.4,121.2,371.3,114.5,371.2,110.6z"/>
<path class="st1" d="M125.9,110.6c0.6-19.1,6.7-68.9,23.6-74.7s40.7,34.7,45.3,44.7c4.7,10-0.3,10.5-9.1,7.8
	c-12.6-3.9-23.1,3.3-27.8,9.7c-2.5,3.4-14.9,21.9-23.6,22.6C125.7,121.2,125.7,114.5,125.9,110.6z"/>
<ellipse transform="matrix(0.9655 -0.2606 0.2606 0.9655 -29.2068 80.5973)" class="st1" cx="289.3" cy="150.4" rx="19.9" ry="15.2"/>
<ellipse transform="matrix(0.2606 -0.9655 0.9655 0.2606 8.8882 312.4853)" class="st1" cx="208.4" cy="150.4" rx="15.2" ry="19.9"/>
<ellipse transform="matrix(0.2379 -0.9713 0.9713 0.2379 -131.9474 309.2177)" class="st7" cx="131.1" cy="238.7" rx="20.2" ry="34"/>
<ellipse transform="matrix(0.9713 -0.2379 0.2379 0.9713 -46.2331 94.2246)" class="st7" cx="367.3" cy="238.7" rx="34" ry="20.2"/>
<path class="st3" d="M239.3,264.2c-9,8-25.5,9.8-31.3-3.2c-1.2-2.6-8.2,0-6.7,3.2s7.1,13.5,18.9,13.8c-0.5,13.2,11.9,30,29.7,29.4
	c17.8-0.5,29.9-18.2,29.6-29.6c4.8-0.3,14.6-3.4,18.2-13.7c1.1-2.2-4.7-4.7-6.5-2.8c-1.8,1.8-5.2,9.5-12.7,9.7s-12-2-16.8-5.8
	c10.3-6.7,22.3-17.3,21.8-26.1S270,220.9,250.2,221s-34.5,6.3-35.2,18.1C214.3,250.8,235,261.8,239.3,264.2z"/>
<path class="st7" d="M227.4,278.7c-0.3,8.1,9.1,21.6,22,21.2c13-0.3,22.2-12.6,21.9-21.1c-9.3,0.1-21.9-9.3-21.9-13.3
	C249.5,265.4,243.3,278.3,227.4,278.7z"/>
<path class="st3" d="M427.2,384.3l-9.7-12.8c16-12.2,24.3-25.6,24.5-39.9c0.2-18.9-13.4-36.6-26.3-46.9l10-12.5
	c15.8,12.6,32.6,34.9,32.3,59.6C457.7,351.3,447.4,369,427.2,384.3z"/>
</svg>
