<?xml version="1.0" encoding="utf-8"?>
<!-- Generator: Adobe Illustrator 25.4.1, SVG Export Plug-In . SVG Version: 6.00 Build 0)  -->
<svg version="1.1" id="Layer_1" xmlns="http://www.w3.org/2000/svg" xmlns:xlink="http://www.w3.org/1999/xlink" x="0px" y="0px"
	 viewBox="0 0 512 512" style="enable-background:new 0 0 512 512;" xml:space="preserve">
<style type="text/css">
	.st0{fill:#41E6AF;}
	.st1{fill:url(#SVGID_1_);}
	.st2{fill:url(#SVGID_00000026873602333536725060000011413872377480903349_);}
	.st3{fill:url(#SVGID_00000002385617873503986150000001141632612100923785_);}
	.st4{fill:url(#SVGID_00000057830859903825313630000005635223131485955770_);}
	.st5{fill:url(#SVGID_00000059992482334491032860000014146965486849161908_);}
	.st6{fill:#F19F20;}
	.st7{fill:#F5D39F;}
	.st8{fill:#006B56;}
	.st9{fill:#001939;}
	.st10{fill:#865100;}
	.st11{fill:#FFFFFF;}
	.st12{fill:#E66B80;}
</style>
<rect class="st0" width="512" height="512"/>
<g>
	
		<linearGradient id="SVGID_1_" gradientUnits="userSpaceOnUse" x1="254.9686" y1="455.4819" x2="257.0496" y2="57.0472" gradientTransform="matrix(1 0 0 -1 0 514)">
		<stop  offset="6.700663e-04" style="stop-color:#06665E"/>
		<stop  offset="1" style="stop-color:#099E92"/>
	</linearGradient>
	<circle class="st1" cx="256" cy="256" r="199.2"/>
	
		<linearGradient id="SVGID_00000160173561576374084280000006173347071951147908_" gradientUnits="userSpaceOnUse" x1="412.2087" y1="382.8857" x2="412.3665" y2="352.6655" gradientTransform="matrix(1 0 0 -1 0 514)">
		<stop  offset="6.700663e-04" style="stop-color:#13D1C1"/>
		<stop  offset="1" style="stop-color:#07746B"/>
	</linearGradient>
	<path style="fill:url(#SVGID_00000160173561576374084280000006173347071951147908_);" d="M413.2,161.2c5.8,0,10.9-3.3,13.4-8.1
		c-4.7-7.7-9.9-15.1-15.5-22.1c-7.4,1-13.1,7.3-13.1,15C398,154.4,404.8,161.2,413.2,161.2z"/>
	
		<linearGradient id="SVGID_00000011030547495345377510000005105695254840165559_" gradientUnits="userSpaceOnUse" x1="793.6649" y1="282.2455" x2="793.8915" y2="238.8461" gradientTransform="matrix(-1 0 0 1 882.9472 41.2228)">
		<stop  offset="5.223257e-03" style="stop-color:#088B80"/>
		<stop  offset="1" style="stop-color:#09A699"/>
	</linearGradient>
	<circle style="fill:url(#SVGID_00000011030547495345377510000005105695254840165559_);" cx="89.2" cy="302" r="21.7"/>
	
		<linearGradient id="SVGID_00000114063552347218183090000006382562950124597648_" gradientUnits="userSpaceOnUse" x1="733.0745" y1="361.5905" x2="733.6448" y2="252.412" gradientTransform="matrix(-1 0 0 1 882.9472 41.2228)">
		<stop  offset="5.223257e-03" style="stop-color:#088B80"/>
		<stop  offset="1" style="stop-color:#09A699"/>
	</linearGradient>
	<circle style="fill:url(#SVGID_00000114063552347218183090000006382562950124597648_);" cx="149.6" cy="348.7" r="54.6"/>
	
		<linearGradient id="SVGID_00000167361011797779814010000016405380084828532365_" gradientUnits="userSpaceOnUse" x1="548.0707" y1="323.9186" x2="549.1129" y2="124.3813" gradientTransform="matrix(-1 0 0 1 882.9472 41.2228)">
		<stop  offset="5.223257e-03" style="stop-color:#088B80"/>
		<stop  offset="1" style="stop-color:#09A699"/>
	</linearGradient>
	<circle style="fill:url(#SVGID_00000167361011797779814010000016405380084828532365_);" cx="334.4" cy="266.2" r="99.8"/>
</g>
<g>
	<polygon class="st6" points="301,350.1 392.7,278 417.7,316.8 392.3,352.6 392.2,391.3 366.1,429.7 350.6,437.6 304.6,375.8 	"/>
	<path class="st7" d="M114.7,185.5l278.9,4.5l7.6,44l-26.1,68.4l-43,40.1l-29.3,5.1H200.1l-73.4-45.1c0,0-24-60.4-23.8-62.2
		C103.2,238.3,114.7,185.5,114.7,185.5z"/>
	<path class="st6" d="M111.5,189.1c2.2,17,13.3,50.9,44.5,53.1s51.6-7.7,56.3-10.9s23.3-19.2,37.8-18.3c14.5,0.9,24.8,7.4,32.6,14.5
		s37.2,18.1,59.1,13.9s52.5-19.7,45.8-63.6c-13.4-24.8-18.2-24.1-18.2-24.1l-1.1-57l-18.5-25.9L327,56.4l-27.7,14.3l-18.1,32.5
		l-57.3-2.2l-26.8-37.5l-32-5.3l-20.9,23.5l-9.8,50l-4.7,25.4L111.5,189.1z"/>
	<path class="st8" d="M205.7,348.8c1.3-8.5,6.7-20.6,41.8-19.4s54.1-0.1,56.1,25.4s-11,38.5-11,38.5v31.1l8.5,13.4l-8.8,14.4
		l-53.8,5.3l-34-8.1l2.7-21.3l7.6-24.2l-13.2-25.7L205.7,348.8z"/>
	<path class="st7" d="M316.6,371.5c15.5,6.8,37.6,24.8,43.6,52.4c6,27.5-53.7,13.6-53.7,13.6L289.6,419l5.4-32l15.5-18.3
		L316.6,371.5z"/>
	<polygon class="st6" points="130.1,303.5 158.8,329.6 202.6,351.3 203.4,379.2 143,433.9 113.3,399.6 108.5,357.5 	"/>
	<path class="st7" d="M142.8,424.4c3.1-13.4,15.7-43.2,42.9-53.4s23.4,56.4,23.4,56.4l-30.3,16.1l-36.4-10.4L142.8,424.4z"/>
	<path class="st9" d="M294.8,361.5v-11.4c0-5.9-4.3-12.8-16.2-12.8c-9.2,0-20.7,0.1-30.8,0.1c-8.8,0-16.9,0.1-22.6,0.1
		c-11.8,0.4-14.3,5-14.6,12.9l-0.4,10.1l-9.8-2.7c-16.3-4.5-71.4-23.6-96-81.3c-22.3-52.2-1.9-96.7,19.9-125.5
		c-0.3-38.7,9.7-101,49.3-102.6c31.9-1.4,49.7,31.3,55.8,45c11.3-0.9,34.1-2.2,47.2-0.5c8.9-16.8,27.3-44.5,51.4-44.5
		c0.3,0,0.6,0,1,0c9.2,0.3,18.4,5.8,26.9,16c14.6,17.6,28,51.6,24,86c11.7,13.7,21.3,33,25.9,52.3c6.5,27.2,3.4,53.9-8.8,77.3
		c-30.3,57.7-64.9,68.9-85.6,75.6c-2.2,0.7-4.2,1.4-6,2L294.8,361.5z M175.6,64.3c-0.4,0-0.8,0-1.1,0c-26,1.1-34.6,55.3-33.9,89.2
		l0.1,2.9l-1.8,2.2c-19.8,25.3-39.3,65.3-19.6,111.7c18.6,43.6,57.2,62.4,77.2,69.5c2.9-8.8,10.4-17.7,28.5-18.3l0.2,0
		c5.6,0,13.8,0,22.6-0.1c10.2,0,21.7-0.1,30.9-0.1c15.9,0,26.1,8.2,30.2,18.4c19.5-6.4,47.9-17.2,74.1-67.1
		c23.5-44.7,1.9-93.7-17.2-114.2l-2.7-2.8l0.6-3.8c4.5-29.4-6.6-61.1-20-77.2c-5.3-6.3-10.8-10-15.1-10.2
		c-14.8-0.5-31,21.8-40.3,41.1l-3.4,7l-7.1-3.2c-6.1-2.3-44.6-0.7-52.2,0.6L219,111l-2.2-6.4C216.6,104.2,202.4,64.3,175.6,64.3z"/>
	<rect x="194.6" y="350.1" class="st9" width="16" height="30.4"/>
	
		<rect x="174.7" y="345.3" transform="matrix(0.1858 -0.9826 0.9826 0.1858 -197.3046 468.4332)" class="st9" width="18.5" height="16"/>
	<path class="st9" d="M307,412.5c8.8-7.3,13-12.5,11.5-15.3c-1.6-3.1-20,5.5-23.8,11.1s-0.3,13.7-0.3,13.7S303,415.9,307,412.5z"/>
	<path class="st9" d="M319.5,438.1c8.8-7.3,13.5-12.4,12-15.3c-1.6-3.1-19,6.7-22.8,12.2c-3.8,5.6,4.8,6.7,4.8,6.7
		S315.4,441.5,319.5,438.1z"/>
	<path class="st9" d="M198.9,412.5c-8.8-7.3-12.9-12.5-11.5-15.3c1.6-3.1,20,5.5,23.8,11.1s0.3,13.7,0.3,13.7S203,415.9,198.9,412.5
		z"/>
	<path class="st9" d="M186.5,438.1c-8.8-7.3-13.5-12.4-12-15.3c1.6-3.1,19,6.7,22.8,12.2c3.8,5.6-4.8,6.7-4.8,6.7
		S190.6,441.5,186.5,438.1z"/>
	
		<rect x="310.7" y="345" transform="matrix(0.9893 -0.1459 0.1459 0.9893 -48.0276 50.2701)" class="st9" width="16" height="15.1"/>
	<rect x="294.8" y="350.1" class="st9" width="16" height="23.4"/>
	<path class="st10" d="M251.5,342.4c20.6,0,33.4,2.8,33.2,5.1c-0.2,2.3-18.5,5.1-33.2,5.1s-31.8-2.4-31.7-5.1
		C219.8,344.8,230.8,342.4,251.5,342.4z"/>
	<path class="st9" d="M251.6,467.1c-0.5,0-0.9,0-1.4,0c-22.6-0.1-37.7-3.9-46.3-11.4s-8.6-16.7-8.6-21.7v-0.1h16v0.1
		c0,4.3,0.2,7.1,3.2,9.7c3.8,3.3,13,7.3,35.8,7.4c23.7,0.1,34.6-3.6,39.4-6.7c4-2.6,4.9-5.2,5.1-8.3l16,0.8c-0.4,8.9-4.6,16-12.4,21
		C288.7,464.1,273.4,467.1,251.6,467.1z"/>
	<path class="st9" d="M176,448c-4.4,0-9-0.4-13.8-1.1c-32.6-4.9-56.3-40.4-58-70.5c-1.3-24.3,8.7-57.3,18.6-77.6l11.7,5.7
		c-9.5,19.5-18.4,50.1-17.3,71.2c1.4,24.4,21,54.4,46.9,58.3c15.4,2.3,27.9,0.3,35.3-5.7c4.4-3.6,6.8-8.5,7.1-14.6
		c0.9-15.7-2.9-20.9-9.8-30.3c-0.8-1-1.5-2.1-2.3-3.2c-8.7-12.3-27.8-22.1-34.9-31.2l0,0c3.4,1.6,34.3,5.4,45.4,23.6
		c0.7,1.1,1.5,2.1,2.3,3.1c7.5,10.2,13.4,18.3,12.3,38.7c-0.5,9.8-4.6,18-11.9,24C199.9,444.8,189.1,448,176,448z"/>
	<path class="st9" d="M331.8,448.2c-14.1,0-24.2-2.1-31.7-6.5c-9.9-5.9-15.2-15.8-15.9-29.6c-1.4-26.7,18-46.2,23.2-49.9
		c2.6-1.9,19.6-12.6,36.1-11.6l0,0c-12.1,8.7-26.8,21-28.6,22.3c-0.1,0.1-18.9,15.9-17.7,38.6c0.9,17.4,10.3,23.8,34.6,23.8
		c21.7,0,44.7-22.6,52.7-43.7c6.6-17.6-6.4-66-15.6-88.2l12-5c5.5,13.2,25.4,72.1,15.7,97.8C387,421.8,360.1,448.2,331.8,448.2z"/>
	<path class="st11" d="M268.8,338.5c-1.2,0-2.5-0.6-3.2-1.6c-0.3-0.4-0.6-0.8-0.9-1.1c-1.4-1.7-3.2-3.8-3.3-8.2
		c-0.1-5.7,3.7-8.4,5.5-9.7l0.3-0.2c1.4-1,1.4-1,1.3-1.8c-0.1-1.9-1.6-3.7-2.5-4.6c-1.5-1.6-1.5-4.1,0.1-5.7
		c1.6-1.5,4.1-1.5,5.7,0.1c2,2.1,4.5,5.5,4.7,9.8c0.2,5.1-2.8,7.3-4.6,8.7l-0.4,0.3c-1.7,1.2-2.2,1.7-2.2,3c0,1.6,0.4,2,1.4,3.3
		c0.4,0.5,0.8,1,1.2,1.5c1.3,1.8,0.9,4.3-0.9,5.6C270.4,338.2,269.6,338.5,268.8,338.5z"/>
	<path class="st11" d="M251,338.5c-1.2,0-2.5-0.6-3.2-1.6c-0.3-0.4-0.6-0.8-0.9-1.1c-1.4-1.7-3.2-3.8-3.3-8.2
		c-0.1-5.7,3.7-8.4,5.5-9.7l0.3-0.2c1.4-1,1.4-1,1.3-1.8c-0.1-1.9-1.6-3.7-2.5-4.6c-1.5-1.6-1.5-4.1,0.1-5.7
		c1.6-1.5,4.1-1.5,5.7,0.1c2,2.1,4.5,5.5,4.7,9.8c0.2,5.2-2.8,7.3-4.6,8.7l-0.4,0.3c-1.7,1.2-2.2,1.7-2.2,3c0,1.6,0.4,2,1.4,3.3
		c0.4,0.5,0.8,1,1.2,1.5c1.3,1.8,0.9,4.3-0.9,5.6C252.7,338.2,251.8,338.5,251,338.5z"/>
	<path class="st11" d="M233.3,338.5c-1.2,0-2.5-0.6-3.2-1.6c-0.3-0.4-0.6-0.8-0.9-1.1c-1.4-1.7-3.2-3.8-3.3-8.2
		c-0.1-5.7,3.7-8.4,5.5-9.7l0.3-0.2c1.4-1,1.4-1,1.3-1.8c-0.1-1.4-1-3-2.5-4.6c-1.5-1.6-1.5-4.1,0.1-5.7c1.6-1.5,4.1-1.5,5.7,0.1
		c2,2.1,4.5,5.5,4.7,9.8c0.2,5.1-2.8,7.3-4.6,8.7l-0.4,0.3c-1.7,1.2-2.2,1.7-2.2,3c0,1.6,0.4,2,1.4,3.3c0.4,0.5,0.8,1,1.2,1.5
		c1.3,1.8,0.9,4.3-0.9,5.6C235,338.2,234.1,338.5,233.3,338.5z"/>
	
		<g id="Layer_00000069397661234713557480000005247992563010011825_" transform="matrix(3.153802, 0, 0, 3.153802, 29.444178, -32.559643)">
		<path id="Layer" class="st0" d="M79.2,135.1l-0.5-0.8l0,0l-2.8-4.6h0l-0.1-0.2h-1l-3.9,6.9l4,6.9h1l0,0l3.3-5.6h-2l-1.8,3.1
			l-2.5-4.3l2.4-4.3l1.8,3.1L79.2,135.1z"/>
		<path id="Layer_00000139984825809160137150000017292457692443923873_" class="st0" d="M63.9,134l1.8-3.1l-0.6-1l0,0l-0.4-0.7
			l-3.2,5.6l0,0l-0.1,0.1l0.5,0.9h7.9l4-6.8l-0.6-1l-5.5,0h-0.1l-0.9,0l0.5,0.9l0,0l0.5,0.9l3.6,0l-2.5,4.3H63.9z"/>
		<path id="Layer_00000158730959777818760760000018117138280239196603_" class="st0" d="M67.8,130.4c-0.1,0-0.3,0-0.4,0.1
			c-0.2,0.1-0.3,0.1-0.5,0.2c-0.4,0.3-0.7,0.6-0.8,1c0,0.2,0,0.3,0.1,0.4l0,0c0,0,0,0,0.1,0.1c0,0,0,0,0,0c0,0,0,0,0,0
			c0,0,0,0,0.1,0l0,0c0.3,0.1,0.7,0.1,1.1-0.1l0,0c0,0,0.1,0,0.1-0.1s0.1,0,0.1-0.1c0,0,0.1-0.1,0.1-0.1c0,0,0.1-0.1,0.1-0.1l0,0
			c0,0,0.1,0,0.1-0.1c0,0,0,0,0,0c0,0,0,0,0.1-0.1c0,0,0,0,0-0.1c0,0,0,0,0.1-0.1c0,0,0,0,0,0c0,0,0,0,0.1-0.1l0,0c0,0,0,0,0-0.1
			c0,0,0,0,0,0l0,0c0,0,0-0.1,0.1-0.1s0-0.1,0-0.1l0,0c0,0,0,0,0,0l0,0c0,0,0,0,0,0c0,0,0,0,0-0.1c0,0,0,0,0,0s0,0,0,0
			c0,0,0,0,0-0.1v0c0,0,0,0,0-0.1c0,0,0,0,0,0c0,0,0,0,0,0c0,0,0,0,0,0v0c0,0,0,0,0-0.1c0,0,0,0,0-0.1l0,0
			C68.3,130.5,68.1,130.4,67.8,130.4z"/>
		<path id="Layer_00000119076910078870759520000012666720036566927009_" class="st0" d="M68.7,131.3
			C68.7,131.3,68.7,131.3,68.7,131.3L68.7,131.3C68.7,131.4,68.7,131.4,68.7,131.3L68.7,131.3c-0.1,0.1-0.1,0.1-0.1,0.2l0,0l0,0
			c-0.1,0.3-0.4,0.5-0.6,0.7c0,0-0.1,0.1-0.1,0.1c0,0-0.1,0.1-0.1,0.1h0l0,0c0,0,0,0,0,0c0,0,0,0-0.1,0h0c0,0,0,0,0,0
			c0,0-0.1,0-0.1,0l0,0c0,0,0,0,0,0s0,0,0,0c0,0-0.1,0-0.1,0l0,0h0c0,0-0.1,0-0.1,0c0,0,0,0-0.1,0l0,0l0,0h0c0,0-0.1,0-0.1,0
			s0,0-0.1,0h0c0,0,0,0,0,0c0,0,0,0,0,0c0,0-0.1,0-0.1,0h0c0,0-0.1,0-0.1,0c0,0,0,0,0,0h0c0,0-0.1,0-0.1,0c0,0,0,0,0,0
			c0,0-0.1,0-0.1,0c0,0,0,0,0,0l0.7,1.1l1.5,0l0.8-1.4l-0.7-1.1C68.7,131.2,68.7,131.2,68.7,131.3C68.7,131.2,68.7,131.2,68.7,131.3
			C68.7,131.2,68.7,131.3,68.7,131.3C68.7,131.3,68.7,131.3,68.7,131.3z"/>
		<path id="Layer_00000099622504926186900340000000883162138198408351_" class="st0" d="M76.6,135.4c0.1,0.1,0.1,0.2,0.2,0.4
			s0.1,0.3,0.1,0.5c0,0.5-0.2,1-0.4,1.2c-0.1,0.1-0.3,0.1-0.4,0.1l0,0c0,0-0.1,0-0.1,0c0,0,0,0,0,0s0,0,0,0c0,0-0.1,0-0.1,0l0,0
			c-0.2-0.2-0.4-0.5-0.5-1v0c0,0,0-0.1,0-0.1c0,0,0-0.1,0-0.1c0-0.1,0-0.1,0-0.1c0,0,0-0.1,0-0.1v0c0,0,0-0.1,0-0.1c0,0,0,0,0,0
			c0,0,0-0.1,0-0.1s0,0,0-0.1c0,0,0-0.1,0-0.1c0,0,0,0,0,0c0,0,0-0.1,0-0.1l0,0c0,0,0,0,0-0.1c0,0,0,0,0,0l0,0c0,0,0-0.1,0.1-0.1
			s0-0.1,0.1-0.1l0,0c0,0,0,0,0,0l0,0c0,0,0,0,0,0c0,0,0,0,0,0s0,0,0,0c0,0,0,0,0,0c0,0,0,0,0,0l0,0c0,0,0,0,0.1,0c0,0,0,0,0,0
			c0,0,0,0,0,0s0,0,0,0h0c0,0,0,0,0.1,0c0,0,0.1,0,0.1,0l0,0C76.2,135,76.4,135.1,76.6,135.4z"/>
		<path id="Layer_00000119818770316532775330000001220617743784759214_" class="st0" d="M75.3,135.1
			C75.3,135.1,75.3,135.1,75.3,135.1L75.3,135.1C75.3,135.1,75.3,135.1,75.3,135.1L75.3,135.1c-0.1,0.1-0.1,0.1-0.1,0.2l0,0l0,0
			c-0.2,0.2-0.2,0.6-0.3,0.9c0,0.1,0,0.1,0,0.1c0,0,0,0.1,0,0.1v0l0,0c0,0,0,0,0,0.1c0,0,0,0.1,0,0.1v0c0,0,0,0,0,0c0,0,0,0.1,0,0.1
			v0c0,0,0,0,0,0s0,0,0,0c0,0,0,0.1,0,0.1l0,0v0c0,0,0,0.1,0,0.1c0,0,0,0,0,0l0,0l0,0v0c0,0,0,0,0,0.1c0,0,0,0,0,0.1v0c0,0,0,0,0,0
			c0,0,0,0,0,0c0,0,0,0.1,0.1,0.1l0,0c0,0,0,0.1,0.1,0.1c0,0,0,0,0,0l0,0c0,0,0,0,0.1,0.1c0,0,0,0,0,0c0,0,0,0,0.1,0.1c0,0,0,0,0,0
			h-1.3l-0.8-1.3l0.8-1.4L75.3,135.1C75.4,135,75.4,135,75.3,135.1L75.3,135.1C75.4,135.1,75.3,135.1,75.3,135.1
			C75.3,135.1,75.3,135.1,75.3,135.1z"/>
		<path id="Layer_00000024000991232483426480000006635955965622010298_" class="st0" d="M67.8,142.3c-0.1,0-0.3,0-0.4-0.1
			c-0.2-0.1-0.3-0.1-0.5-0.2c-0.4-0.3-0.7-0.6-0.8-1c0-0.2,0-0.3,0.1-0.4l0,0c0,0,0,0,0.1-0.1c0,0,0,0,0,0c0,0,0,0,0,0
			c0,0,0,0,0.1,0l0,0c0.3-0.1,0.7-0.1,1.1,0.1l0,0c0,0,0.1,0,0.1,0.1c0,0,0.1,0,0.1,0.1c0,0,0.1,0.1,0.1,0.1c0,0,0.1,0.1,0.1,0.1
			l0,0c0,0,0.1,0,0.1,0.1c0,0,0,0,0,0c0,0,0,0,0.1,0.1c0,0,0,0,0,0.1c0,0,0,0,0.1,0.1c0,0,0,0,0,0c0,0,0,0,0.1,0.1l0,0
			c0,0,0,0,0,0.1v0l0,0c0,0,0,0.1,0.1,0.1s0,0.1,0,0.1l0,0c0,0,0,0,0,0l0,0c0,0,0,0,0,0c0,0,0,0,0,0.1c0,0,0,0,0,0s0,0,0,0
			c0,0,0,0,0,0.1v0c0,0,0,0,0,0.1c0,0,0,0,0,0c0,0,0,0,0,0c0,0,0,0,0,0v0c0,0,0,0,0,0.1c0,0,0,0,0,0.1l0,0
			C68.3,142.2,68.1,142.3,67.8,142.3z"/>
		<path id="Layer_00000039129552413664431180000011965960607563720071_" class="st0" d="M68.7,141.4
			C68.7,141.4,68.7,141.4,68.7,141.4L68.7,141.4C68.7,141.3,68.7,141.3,68.7,141.4L68.7,141.4c-0.1-0.1-0.1-0.1-0.1-0.2l0,0
			c-0.1-0.3-0.4-0.5-0.6-0.7c0,0-0.1-0.1-0.1-0.1c0,0-0.1-0.1-0.1-0.1h0l0,0c0,0,0,0,0,0c0,0,0,0-0.1,0h0c0,0,0,0,0,0
			c0,0-0.1,0-0.1,0l0,0c0,0,0,0,0,0s0,0,0,0c0,0-0.1,0-0.1,0l0,0h0c0,0-0.1,0-0.1,0c0,0,0,0-0.1,0l0,0l0,0h0c0,0-0.1,0-0.1,0
			s0,0-0.1,0h0c0,0,0,0,0,0c0,0,0,0,0,0c0,0-0.1,0-0.1,0h0c0,0-0.1,0-0.1,0c0,0,0,0,0,0h0c0,0-0.1,0-0.1,0c0,0,0,0,0,0
			c0,0-0.1,0-0.1,0c0,0,0,0,0,0l0.7-1.1l1.5,0l0.8,1.4l-0.7,1.1C68.7,141.5,68.7,141.5,68.7,141.4C68.7,141.5,68.7,141.5,68.7,141.4
			C68.7,141.5,68.7,141.4,68.7,141.4C68.7,141.4,68.7,141.4,68.7,141.4z"/>
		<path id="Layer_00000042017688687211609500000004854900660477279380_" class="st0" d="M71.3,143l-3.6,0l-0.6,1.1l-0.4,0.7l1,0v0
			l5.5,0l0.6-1l-4-6.8l-7.9,0l-0.5,0.9l0.1,0.2h0l3.1,5.5l1.1-1.7l-1.8-3.1h5L71.3,143z"/>
	</g>
	<path class="st9" d="M168.4,212.6c7-6.1,25.1-25.3,54.4,0c4.8,5.3-2.4,11.3-4.9,9.3c-9.8-8.9-25.1-14.1-42.4,0
		C170.3,224.7,166.6,214.3,168.4,212.6z"/>
	<path class="st9" d="M278,213.5c7-6.1,26-27.6,55.4-2.3c4.8,5.3-3.4,12.1-6,10.1c-9.8-8.9-31.8-14-42.8-0.1
		C279.2,223.9,276.1,215.1,278,213.5z"/>
	<path class="st7" d="M350.6,137.9c-0.5-15.6-5.5-56.1-19.2-60.8c-13.7-4.7-33.1,28.2-36.9,36.3s0.2,8.6,7.4,6.3
		c10.2-3.2,18.8,2.7,22.6,7.9c2.1,2.8,12.1,17.8,19.2,18.4C350.7,146.6,350.7,141.2,350.6,137.9z"/>
	<path class="st7" d="M150.9,137.9c0.5-15.6,5.4-56.1,19.2-60.8s33.1,28.2,36.9,36.3s-0.2,8.6-7.4,6.3c-10.2-3.2-18.8,2.7-22.6,7.9
		c-2.1,2.8-12.1,17.8-19.2,18.4C150.7,146.6,150.8,141.2,150.9,137.9z"/>
	
		<ellipse transform="matrix(0.9655 -0.2606 0.2606 0.9655 -34.5981 79.8776)" class="st7" cx="283.9" cy="170.4" rx="16.2" ry="12.4"/>
	
		<ellipse transform="matrix(0.2606 -0.9655 0.9655 0.2606 -3.2559 336.5675)" class="st7" cx="218.1" cy="170.4" rx="12.4" ry="16.2"/>
	
		<ellipse transform="matrix(0.2379 -0.9713 0.9713 0.2379 -117.0598 335.2896)" class="st12" cx="155.1" cy="242.2" rx="16.5" ry="27.7"/>
	
		<ellipse transform="matrix(0.9713 -0.2379 0.2379 0.9713 -47.65 89.588)" class="st12" cx="347.4" cy="242.2" rx="27.7" ry="16.5"/>
	<path class="st9" d="M243.2,263c-7.3,6.5-20.8,8-25.5-2.6c-0.9-2.1-6.6,0-5.4,2.6s5.8,11,15.4,11.3c-0.4,10.7,9.6,24.4,24.2,23.9
		c14.5-0.4,24.3-14.9,24.1-24.1c3.9-0.3,11.9-2.8,14.8-11.1c0.9-1.8-3.8-3.8-5.3-2.3c-1.5,1.5-4.2,7.7-10.3,7.9
		c-6.1,0.1-9.8-1.6-13.7-4.8c8.4-5.5,18.2-14.1,17.8-21.2s-11-14.9-27.1-14.7c-16.2,0.1-28.1,5.2-28.6,14.7
		C222.9,252.1,239.7,261.1,243.2,263z"/>
	<path class="st12" d="M233.5,274.8c-0.2,6.6,7.4,17.5,17.9,17.3c10.6-0.3,18.1-10.2,17.8-17.2c-7.6,0-17.8-7.6-17.8-10.9
		C251.5,264,246.5,274.5,233.5,274.8z"/>
	<path class="st9" d="M397,361.9l-9.7-12.8c12.7-9.6,19.2-20.1,19.3-31.3c0.2-14.8-10.6-28.8-20.8-37l10-12.5
		c13.1,10.5,27.1,29.1,26.8,49.7C422.4,334.4,413.8,349.2,397,361.9z"/>
</g>
</svg>
