<?xml version="1.0" encoding="utf-8"?>
<!-- Generator: Adobe Illustrator 25.4.1, SVG Export Plug-In . SVG Version: 6.00 Build 0)  -->
<svg version="1.1" id="Layer_1" xmlns="http://www.w3.org/2000/svg" xmlns:xlink="http://www.w3.org/1999/xlink" x="0px" y="0px"
	 viewBox="0 0 512 512" enable-background="new 0 0 512 512" xml:space="preserve">
<polygon fill="#F19F20" points="310.33,371.22 423,282.67 453.67,330.33 422.5,374.28 422.33,421.89 390.33,469 371.24,478.78 
	314.69,402.81 "/>
<path fill="#F5D39F" d="M81.44,169l342.74,5.52l9.3,54.03l-32.04,84l-52.89,49.22l-36,6.25H186.29l-90.18-55.47
	c0,0-29.54-74.22-29.22-76.44C67.22,233.89,81.44,169,81.44,169z"/>
<path fill="#F19F20" d="M77.46,173.4c2.66,20.94,16.38,62.52,54.63,65.28s63.36-9.46,69.14-13.46c5.78-4,28.67-23.56,46.44-22.44
	c17.78,1.11,30.44,9.11,40,17.78c9.56,8.67,45.66,22.22,72.61,17.11c26.95-5.11,64.5-24.25,56.23-78.21
	c-16.47-30.43-22.39-29.56-22.39-29.56l-1.33-70l-22.67-31.78l-27.78-17.75l-34,17.53l-22.22,40l-70.41-2.68l-32.88-46.05
	l-39.35-6.53l-25.74,28.92L105.67,103l-5.78,31.26L77.46,173.4z"/>
<path fill="#006B56" d="M193.22,369.67c1.56-10.44,8.22-25.3,51.33-23.87S311,345.67,313.44,377c2.44,31.33-13.56,47.33-13.56,47.33
	v38.22L310.33,479l-10.84,17.72l-66.05,6.51l-41.78-10L195,467l9.33-29.78l-16.22-31.56L193.22,369.67z"/>
<path fill="#F5D39F" d="M329.45,397.51c19.1,8.38,46.24,30.51,53.56,64.33c7.32,33.82-66.01,16.71-66.01,16.71l-20.67-22.67
	l6.67-39.33l19.11-22.47L329.45,397.51z"/>
<polygon fill="#F19F20" points="100.33,314 135.55,346.01 189.44,372.67 190.33,407 116.17,474.17 79.67,432 73.83,380.33 "/>
<path fill="#F5D39F" d="M115.95,462.47c3.82-16.47,19.26-53.11,52.71-65.57s28.78,69.32,28.78,69.32L160.22,486l-44.78-12.78
	L115.95,462.47z"/>
<path fill="none" stroke="#001939" stroke-width="16" stroke-miterlimit="10" d="M216.11,66.33c8-1.33,60-4.44,69.78,0
	c7.11-14.67,30.22-56.89,58.67-56C373,11.22,405.44,74.33,397,129c25.33,27.11,54.2,91.51,22.67,151.56
	c-39.33,74.89-84.22,82.44-107.11,90.67c0-12-8.89-25.56-29.78-25.56s-50.67,0.22-65.78,0.22c-15.56,0.44-26.89,6.67-27.56,25.33
	c-12.89-3.56-81.78-24.44-111.56-94.22c-24.94-58.43-3.56-110.22,25.33-147.11c-0.89-42.67,9.33-117.81,51.11-119.57
	S216.11,66.33,216.11,66.33z"/>
<line fill="none" stroke="#001939" stroke-width="16" stroke-miterlimit="10" x1="189.44" y1="371.22" x2="189.44" y2="408.54"/>
<line fill="none" stroke="#001939" stroke-width="16" stroke-miterlimit="10" x1="168.66" y1="363.94" x2="164.43" y2="386.31"/>
<path fill="#001939" d="M317.75,447.92c10.79-8.99,15.92-15.33,14.17-18.84c-1.94-3.87-24.58,6.75-29.25,13.59
	c-4.67,6.83-0.33,16.83-0.33,16.83S312.75,452.08,317.75,447.92z"/>
<path fill="#001939" d="M333,479.33c10.79-8.99,16.54-15.27,14.79-18.77c-1.94-3.87-23.38,8.19-28.04,15.02
	c-4.67,6.83,5.92,8.25,5.92,8.25S328,483.5,333,479.33z"/>
<path fill="#001939" d="M184.92,447.92c-10.79-8.99-15.92-15.33-14.17-18.84c1.94-3.87,24.58,6.75,29.25,13.59
	c4.67,6.83,0.33,16.83,0.33,16.83S189.92,452.08,184.92,447.92z"/>
<path fill="#001939" d="M169.67,479.33c-10.79-8.99-16.54-15.27-14.79-18.77c1.94-3.87,23.38,8.19,28.04,15.02
	c4.67,6.83-5.92,8.25-5.92,8.25S174.67,483.5,169.67,479.33z"/>
<line fill="none" stroke="#001939" stroke-width="16" stroke-miterlimit="10" x1="330.74" y1="365.11" x2="333.44" y2="383.44"/>
<line fill="none" stroke="#001939" stroke-width="16" stroke-miterlimit="10" x1="312.56" y1="371.22" x2="312.56" y2="399.96"/>
<path fill="#865100" d="M249.44,361.78c25.33,0,41,3.44,40.78,6.22s-22.78,6.33-40.78,6.27c-18-0.05-39.03-2.89-38.96-6.25
	C210.56,364.67,224.11,361.78,249.44,361.78z"/>
<path fill="none" stroke="#001939" stroke-width="16" stroke-miterlimit="10" d="M190.33,474.17c0,10.5-0.33,30.67,57.67,31
	c58,0.33,64.05-17.26,64.56-27.83"/>
<path fill="#001939" d="M156.76,491.58c-5.35,0-11.01-0.44-16.95-1.34c-40.07-6.04-69.19-49.64-71.24-86.58
	c-1.66-29.88,10.66-70.36,22.8-95.33l14.39,7c-11.63,23.9-22.65,61.61-21.21,87.44c1.67,30.03,25.75,66.84,57.65,71.64
	c18.89,2.85,34.3,0.34,43.38-7.06c5.41-4.41,8.37-10.44,8.77-17.91c1.05-19.27-3.61-25.63-12.08-37.18
	c-0.93-1.27-1.89-2.57-2.87-3.94c-10.73-15.11-34.17-27.11-42.84-38.34l0,0c4.2,1.96,42.11,6.67,55.83,29
	c0.85,1.39,1.88,2.59,2.78,3.81c9.23,12.58,16.52,22.52,15.16,47.51c-0.65,11.99-5.72,22.18-14.65,29.45
	C186.07,487.59,172.81,491.58,156.76,491.58z"/>
<path fill="#001939" d="M348.11,491.83c-17.33,0-29.7-2.55-38.93-8.04c-12.13-7.21-18.72-19.45-19.58-36.39
	c-1.67-32.84,22.08-56.75,28.52-61.36c3.22-2.3,24.04-15.46,44.37-14.3l0,0c-14.83,10.67-32.91,25.87-35.13,27.36
	c-0.16,0.12-23.21,19.5-21.79,47.49c1.08,21.31,12.61,29.24,42.53,29.24c26.61,0,54.96-27.74,64.74-53.66
	c8.16-21.61-7.89-81.11-19.16-108.34l14.78-6.12c6.71,16.22,31.25,88.56,19.34,120.11C415.95,459.29,382.89,491.83,348.11,491.83z"
	/>
<path fill="none" stroke="#FFFFFF" stroke-width="8" stroke-linecap="round" stroke-linejoin="round" stroke-miterlimit="10" d="
	M270.75,352c-2-2.75-4.08-4-4.17-8.67c-0.08-4.67,3.08-6.58,5.17-8.08s3.83-2.83,3.67-6.42c-0.17-3.58-2.41-6.75-4.41-8.83"/>
<path fill="none" stroke="#FFFFFF" stroke-width="8" stroke-linecap="round" stroke-linejoin="round" stroke-miterlimit="10" d="
	M248.92,352c-2-2.75-4.08-4-4.17-8.67c-0.08-4.67,3.08-6.58,5.17-8.08c2.08-1.5,3.83-2.83,3.67-6.42c-0.17-3.58-2.41-6.75-4.41-8.83
	"/>
<path fill="none" stroke="#FFFFFF" stroke-width="8" stroke-linecap="round" stroke-linejoin="round" stroke-miterlimit="10" d="
	M227.17,352c-2-2.75-4.08-4-4.17-8.67c-0.08-4.67,3.08-6.58,5.17-8.08c2.08-1.5,3.83-2.83,3.67-6.42c-0.17-3.58-2.41-6.75-4.41-8.83
	"/>
<g id="Layer_00000069397661234713557480000005247992563010011825_" transform="matrix(3.153802, 0, 0, 3.153802, 29.444178, -32.559643)">
	<path id="Layer" fill="#41E6AF" d="M80.56,144.98l-0.62-1.04l0,0l-3.39-5.69h-0.02l-0.11-0.2h-1.24l-4.81,8.46l4.89,8.42h1.24
		l0.03-0.05l4.04-6.92h-2.49l-2.15,3.82l-3.06-5.29l3-5.29l2.18,3.76L80.56,144.98z"/>
	<path id="Layer_00000139984825809160137150000017292457692443923873_" fill="#41E6AF" d="M61.73,143.6l2.26-3.85l-0.76-1.22l0,0
		l-0.53-0.87l-3.87,6.82l0,0l-0.11,0.19l0.62,1.08h9.73l4.91-8.4l-0.68-1.18l-6.81,0.02h-0.11l-1.08-0.02l0.57,1.08l0,0l0.57,1.08
		l4.46-0.02l-3.06,5.28H61.73z"/>
	<path id="Layer_00000158730959777818760760000018117138280239196603_" fill="#41E6AF" d="M66.54,139.14
		c-0.17,0-0.36,0.03-0.54,0.09c-0.2,0.06-0.4,0.15-0.59,0.26c-0.53,0.32-0.9,0.79-0.96,1.22c-0.03,0.2,0.02,0.37,0.12,0.5l0,0
		c0.02,0.03,0.05,0.05,0.06,0.08c0.02,0.02,0.03,0.02,0.05,0.03c0.02,0.02,0.02,0.02,0.03,0.03c0.03,0.02,0.05,0.03,0.08,0.05l0,0
		c0.32,0.15,0.84,0.12,1.33-0.11l0.02-0.02c0.05-0.02,0.09-0.05,0.14-0.06c0.05-0.02,0.08-0.05,0.12-0.08
		c0.05-0.03,0.09-0.06,0.14-0.09c0.05-0.03,0.08-0.06,0.12-0.09l0.03-0.02c0.03-0.03,0.06-0.05,0.09-0.08
		c0.02-0.02,0.02-0.02,0.03-0.03c0.03-0.02,0.05-0.05,0.06-0.06c0.02-0.02,0.03-0.03,0.05-0.06s0.05-0.05,0.06-0.08
		c0.02-0.02,0.02-0.02,0.03-0.03c0.02-0.03,0.05-0.05,0.06-0.08l0.03-0.03c0.02-0.03,0.03-0.05,0.05-0.08c0,0,0,0,0-0.02l0.02-0.03
		c0.03-0.03,0.05-0.08,0.06-0.11s0.03-0.08,0.05-0.11l0.02-0.02c0-0.02,0.02-0.03,0.02-0.03l0,0c0-0.02,0-0.02,0.02-0.03
		c0-0.03,0.02-0.05,0.02-0.08s0.02-0.03,0.02-0.05s0-0.03,0-0.03c0-0.03,0-0.05,0-0.06v-0.03c0-0.03,0-0.05,0-0.08
		c0-0.02,0-0.02,0-0.03c0-0.02,0-0.03,0-0.03c0-0.02,0-0.02,0-0.03v-0.02c0-0.03-0.02-0.05-0.03-0.08
		c-0.02-0.03-0.03-0.05-0.05-0.08l0,0C67.17,139.25,66.88,139.14,66.54,139.14z"/>
	<path id="Layer_00000119076910078870759520000012666720036566927009_" fill="#41E6AF" d="M67.67,140.27c0,0.03-0.02,0.05-0.03,0.08
		l0,0c0,0.02,0,0.02-0.02,0.03l0,0c-0.02,0.05-0.03,0.08-0.06,0.12l0,0l0,0c-0.17,0.32-0.45,0.63-0.79,0.88
		c-0.05,0.03-0.09,0.06-0.14,0.09s-0.09,0.06-0.14,0.08h-0.02l0,0c-0.02,0.02-0.03,0.02-0.05,0.03c-0.03,0.02-0.05,0.03-0.08,0.05
		h-0.02c-0.02,0-0.03,0.02-0.05,0.02c-0.03,0.02-0.06,0.03-0.09,0.03l-0.03,0.02c0,0,0,0-0.02,0c-0.02,0-0.03,0.02-0.05,0.02
		c-0.03,0.02-0.06,0.02-0.09,0.03l-0.03,0.02h-0.02c-0.03,0.02-0.06,0.02-0.09,0.03c-0.02,0-0.03,0.02-0.06,0.02l0,0l0,0H65.8
		c-0.03,0-0.06,0.02-0.08,0.02s-0.05,0-0.06,0.02h-0.02c-0.02,0-0.03,0-0.05,0.02c-0.02,0-0.03,0-0.05,0
		c-0.05,0-0.11,0.02-0.15,0.02h-0.02c-0.05,0-0.09,0-0.14,0c-0.02,0-0.03,0-0.03,0h-0.02c-0.03,0-0.06,0-0.09-0.02
		c-0.02,0-0.03,0-0.05-0.02c-0.03,0-0.06-0.02-0.09-0.02c-0.02,0-0.03-0.02-0.05-0.02l0.85,1.38l1.83-0.02l0.94-1.67l-0.85-1.39
		c0,0.02,0,0.03-0.02,0.05c0,0.02,0,0.02,0,0.03s-0.02,0.03-0.02,0.06C67.67,140.26,67.67,140.27,67.67,140.27z"/>
	<path id="Layer_00000099622504926186900340000000883162138198408351_" fill="#41E6AF" d="M77.37,145.3
		c0.09,0.14,0.15,0.31,0.2,0.51c0.05,0.2,0.08,0.42,0.08,0.63c0,0.62-0.2,1.18-0.54,1.45c-0.15,0.12-0.32,0.19-0.5,0.15l0,0
		c-0.03,0-0.06-0.02-0.09-0.02c-0.02,0-0.03-0.02-0.05-0.02s-0.03-0.02-0.05-0.02c-0.03-0.02-0.06-0.03-0.08-0.05l0,0
		c-0.31-0.2-0.54-0.65-0.6-1.19v-0.02c0-0.05-0.02-0.09-0.02-0.15c0-0.05,0-0.09,0-0.14c0-0.06,0-0.11,0-0.17
		c0-0.05,0-0.09,0.02-0.14v-0.03c0-0.03,0.02-0.08,0.02-0.11c0-0.02,0-0.03,0-0.05c0-0.03,0.02-0.06,0.02-0.09s0.02-0.05,0.02-0.08
		c0.02-0.03,0.02-0.06,0.03-0.09c0-0.02,0.02-0.03,0.02-0.05c0.02-0.03,0.02-0.06,0.03-0.09l0.02-0.05
		c0.02-0.03,0.03-0.05,0.03-0.08c0,0,0,0,0-0.02l0.02-0.03c0.02-0.05,0.05-0.08,0.06-0.11c0.02-0.03,0.05-0.06,0.06-0.09l0.02-0.02
		c0.02-0.02,0.02-0.02,0.03-0.03l0,0c0.02-0.02,0.02-0.02,0.02-0.03c0.02-0.02,0.03-0.03,0.05-0.05s0.03-0.03,0.03-0.03
		c0.02-0.02,0.02-0.02,0.03-0.03s0.03-0.03,0.05-0.05l0.03-0.02c0.02-0.02,0.05-0.03,0.06-0.05c0.02,0,0.02,0,0.03-0.02
		c0.02,0,0.03-0.02,0.03-0.02s0.02,0,0.02-0.02h0.02c0.03,0,0.05-0.02,0.08-0.02c0.03,0,0.06,0,0.09,0l0,0
		C76.95,144.82,77.18,145.01,77.37,145.3z"/>
	<path id="Layer_00000119818770316532775330000001220617743784759214_" fill="#41E6AF" d="M75.81,144.93
		c-0.02,0.02-0.03,0.05-0.05,0.06l0,0c0,0.02-0.02,0.02-0.02,0.03l0,0c-0.03,0.03-0.05,0.08-0.08,0.11l0,0l0,0
		c-0.2,0.31-0.31,0.71-0.34,1.13c0,0.06,0,0.11,0,0.17c0,0.05,0,0.11,0,0.15v0.02l0,0c0,0.02,0,0.05,0,0.06c0,0.03,0,0.06,0.02,0.09
		v0.02c0,0.02,0,0.03,0,0.05c0,0.03,0.02,0.06,0.02,0.09v0.03c0,0,0,0,0,0.02s0,0.03,0.02,0.05c0,0.03,0.02,0.06,0.02,0.09
		l0.02,0.03v0.02c0,0.03,0.02,0.06,0.03,0.09c0,0.02,0.02,0.03,0.02,0.05l0,0l0,0v0.02c0.02,0.03,0.02,0.05,0.03,0.08
		c0,0.02,0.02,0.03,0.03,0.06v0.02c0,0.02,0.02,0.03,0.02,0.05c0.02,0.02,0.02,0.03,0.02,0.03c0.02,0.05,0.05,0.09,0.08,0.14
		l0.02,0.02c0.03,0.05,0.05,0.08,0.08,0.11c0,0.02,0.02,0.02,0.02,0.03l0.02,0.02c0.02,0.03,0.05,0.05,0.06,0.08
		c0.02,0.02,0.02,0.03,0.03,0.03c0.03,0.03,0.05,0.05,0.06,0.08c0.02,0.02,0.03,0.02,0.03,0.03h-1.62l-0.94-1.56l0.93-1.67h1.62
		c-0.02,0.02-0.02,0.02-0.03,0.03l-0.02,0.02C75.85,144.88,75.84,144.9,75.81,144.93C75.82,144.93,75.81,144.93,75.81,144.93z"/>
	<path id="Layer_00000024000991232483426480000006635955965622010298_" fill="#41E6AF" d="M66.54,153.83
		c-0.17,0-0.36-0.03-0.54-0.09c-0.2-0.06-0.4-0.15-0.59-0.26c-0.53-0.32-0.9-0.79-0.96-1.22c-0.03-0.2,0.02-0.37,0.12-0.5l0,0
		c0.02-0.03,0.05-0.05,0.06-0.08c0.02-0.02,0.03-0.02,0.05-0.03c0.02-0.02,0.02-0.02,0.03-0.03c0.03-0.02,0.05-0.03,0.08-0.05l0,0
		c0.32-0.15,0.84-0.12,1.33,0.11l0.02,0.02c0.05,0.02,0.09,0.05,0.14,0.06c0.05,0.02,0.08,0.05,0.12,0.08
		c0.05,0.03,0.09,0.06,0.14,0.09c0.05,0.03,0.08,0.06,0.12,0.09l0.03,0.02c0.03,0.03,0.06,0.05,0.09,0.08
		c0.02,0.02,0.02,0.02,0.03,0.03c0.03,0.02,0.05,0.05,0.06,0.06s0.03,0.03,0.05,0.06s0.05,0.05,0.06,0.08
		c0.02,0.02,0.02,0.02,0.03,0.03c0.02,0.03,0.05,0.05,0.06,0.08l0.03,0.03c0.02,0.03,0.03,0.05,0.05,0.08v0.02l0.02,0.03
		c0.03,0.03,0.05,0.08,0.06,0.11s0.03,0.08,0.05,0.11l0.02,0.02c0,0.02,0.02,0.03,0.02,0.03l0,0c0,0.02,0,0.02,0.02,0.03
		c0,0.03,0.02,0.05,0.02,0.08s0.02,0.03,0.02,0.05c0,0.02,0,0.03,0,0.03c0,0.03,0,0.05,0,0.06v0.03c0,0.03,0,0.05,0,0.08
		c0,0.02,0,0.02,0,0.03s0,0.03,0,0.03c0,0.02,0,0.02,0,0.03v0.02c0,0.03-0.02,0.05-0.03,0.08c-0.02,0.03-0.03,0.05-0.05,0.08l0,0
		C67.17,153.72,66.88,153.84,66.54,153.83z"/>
	<path id="Layer_00000039129552413664431180000011965960607563720071_" fill="#41E6AF" d="M67.67,152.7c0-0.03-0.02-0.05-0.03-0.08
		l0,0c0-0.02,0-0.02-0.02-0.03l0,0c-0.02-0.05-0.03-0.08-0.06-0.12l0,0c-0.17-0.32-0.45-0.63-0.79-0.88
		c-0.05-0.03-0.09-0.06-0.14-0.09s-0.09-0.06-0.14-0.08h-0.02l0,0c-0.02-0.02-0.03-0.02-0.05-0.03c-0.03-0.02-0.05-0.03-0.08-0.05
		h-0.02c-0.02,0-0.03-0.02-0.05-0.02c-0.03-0.02-0.06-0.03-0.09-0.03l-0.03-0.02c0,0,0,0-0.02,0c-0.02,0-0.03-0.02-0.05-0.02
		c-0.03-0.02-0.06-0.02-0.09-0.03l-0.03-0.02h-0.02c-0.03-0.02-0.06-0.02-0.09-0.03c-0.02,0-0.03-0.02-0.06-0.02l0,0l0,0H65.8
		c-0.03,0-0.06-0.02-0.08-0.02s-0.05,0-0.06-0.02h-0.02c-0.02,0-0.03,0-0.05-0.02c-0.02,0-0.03,0-0.05,0
		c-0.05,0-0.11-0.02-0.15-0.02h-0.02c-0.05,0-0.09,0-0.14,0c-0.02,0-0.03,0-0.03,0h-0.02c-0.03,0-0.06,0-0.09,0.02
		c-0.02,0-0.03,0-0.05,0.02c-0.03,0-0.06,0.02-0.09,0.02c-0.02,0-0.03,0.02-0.05,0.02l0.85-1.38l1.83,0.02l0.94,1.67l-0.85,1.39
		c0-0.02,0-0.03-0.02-0.05c0-0.02,0-0.02,0-0.03c0-0.02-0.02-0.03-0.02-0.06C67.67,152.71,67.67,152.7,67.67,152.7z"/>
	<path id="Layer_00000042017688687211609500000004854900660477279380_" fill="#41E6AF" d="M70.9,154.65l-4.46-0.02l-0.68,1.28
		l-0.46,0.88l1.19-0.02v0.02l6.81,0.02l0.68-1.18l-4.91-8.4l-9.73-0.02l-0.62,1.08l0.12,0.2h-0.02l3.87,6.81l1.28-2.09l-2.26-3.84
		h6.11L70.9,154.65z"/>
</g>
<path fill="#001939" d="M147.44,202.33c8.56-7.46,30.89-31.11,66.89,0c5.89,6.56-2.89,13.89-6,11.44c-12-10.89-30.89-17.33-52.11,0
	C149.67,217.11,145.12,204.36,147.44,202.33z"/>
<path fill="#001939" d="M282,203.33c8.56-7.46,32-33.93,68-2.82c5.89,6.56-4.22,14.82-7.33,12.38c-12-10.89-39.11-17.22-52.56-0.11
	C283.56,216.11,279.67,205.36,282,203.33z"/>
<path fill="#F5D39F" d="M371.21,110.56c-0.56-19.1-6.69-68.89-23.58-74.67s-40.67,34.67-45.33,44.67s0.28,10.51,9.11,7.78
	c12.56-3.89,23.11,3.33,27.78,9.67c2.53,3.44,14.89,21.89,23.56,22.56C371.41,121.22,371.33,114.54,371.21,110.56z"/>
<path fill="#F5D39F" d="M125.86,110.56c0.56-19.1,6.69-68.89,23.58-74.67s40.67,34.67,45.33,44.67c4.67,10-0.28,10.51-9.11,7.78
	c-12.56-3.89-23.11,3.33-27.78,9.67c-2.53,3.44-14.89,21.89-23.56,22.56C125.67,121.22,125.74,114.54,125.86,110.56z"/>
<ellipse transform="matrix(0.9655 -0.2606 0.2606 0.9655 -29.2072 80.5931)" fill="#F5D39F" cx="289.33" cy="150.44" rx="19.89" ry="15.22"/>
<ellipse transform="matrix(0.2606 -0.9655 0.9655 0.2606 8.8805 312.4841)" fill="#F5D39F" cx="208.44" cy="150.44" rx="15.22" ry="19.89"/>
<ellipse transform="matrix(0.2379 -0.9713 0.9713 0.2379 -131.938 309.2179)" fill="#E66B80" cx="131.07" cy="238.68" rx="20.23" ry="33.99"/>
<ellipse transform="matrix(0.9713 -0.2379 0.2379 0.9713 -46.2316 94.2042)" fill="#E66B80" cx="367.26" cy="238.68" rx="33.99" ry="20.23"/>
<path fill="#001939" d="M239.33,264.17c-9,8-25.5,9.83-31.33-3.17c-1.17-2.56-8.17,0-6.67,3.17c1.5,3.17,7.12,13.5,18.9,13.83
	c-0.48,13.17,11.86,29.96,29.69,29.42c17.83-0.55,29.92-18.25,29.58-29.58c4.83-0.33,14.58-3.42,18.17-13.67
	c1.08-2.25-4.67-4.67-6.5-2.83c-1.83,1.83-5.17,9.5-12.67,9.67s-12-2-16.83-5.83c10.33-6.72,22.33-17.33,21.83-26.08
	c-0.5-8.75-13.45-18.25-33.31-18.08s-34.52,6.34-35.19,18.08C214.33,250.83,235,261.83,239.33,264.17z"/>
<path fill="#E66B80" d="M227.42,278.67c-0.31,8.06,9.06,21.56,22.04,21.22s22.2-12.56,21.93-21.11
	c-9.33,0.06-21.91-9.33-21.93-13.33C249.46,265.44,243.33,278.28,227.42,278.67z"/>
<path fill="none" stroke="#001939" stroke-width="16" stroke-miterlimit="10" d="M420.71,278.52c22.29,17.81,52.07,61.15,1.63,99.37
	"/>
</svg>
